<?xml version="1.0" encoding="UTF-8"?>
<svg width="0" height="0" fill="none" style="visibility: hidden; position: absolute;" aria-hidden="true">
    <symbol id="agri" width="100px" height="100px" viewBox="0 0 100 100" xmlns="http://www.w3.org/2000/svg">
        <g id="Schema_icons__Agricolture_icon" stroke="none" stroke-width="1" fill="none" fill-rule="evenodd">
            <g id="Agricolture_icon__Agricolture_icon">
                <path d="M49.7008547,99.4017094 C77.1498291,99.4017094 99.4019658,77.1495726 99.4019658,49.7008547 C99.4019658,22.2521368 77.1498291,-1.82190445e-14 49.7008547,-1.82190445e-14 C22.2517949,-1.82190445e-14 -4.85841187e-14,22.2521368 -4.85841187e-14,49.7008547 C-4.85841187e-14,77.1495726 22.2517949,99.4017094 49.7008547,99.4017094 Z"
                      id="Path__Agricolture_icon" fill="none" fill-rule="nonzero"></path>
                <path d="M26.5207692,28.2051282 C26.5207692,25.1132721 29.5388319,22.3738047 30.7942735,21.3675214 C32.0496987,22.3736783 35.0677778,25.112482 35.0677778,28.2051282 C35.0677778,31.2977745 32.0497152,34.0364517 30.7942735,35.042735 C29.5388483,34.0365781 26.5207692,31.2971424 26.5207692,28.2051282 Z"
                      id="Path__Agricolture_icon" stroke="#2079D4" fill="#2079D4" fill-rule="nonzero"
                      stroke-linejoin="round"></path>
                <path d="M31.4672033,58.7774306 C31.4658771,55.6028832 34.563482,52.7914442 35.8520685,51.7587866 C37.1415015,52.7923917 40.2414738,55.6057392 40.2428012,58.7810978 C40.2441277,61.9564564 37.1465225,64.7670842 35.857936,65.7997418 C34.568503,64.7661367 31.4685304,61.9521402 31.4672033,58.7774306 Z"
                      id="Path__Agricolture_icon" fill="#2079D4" fill-rule="nonzero"
                      transform="translate(35.855002, 58.779264) rotate(-315.000000) translate(-35.855002, -58.779264) "></path>
                <path d="M70.0636945,55.2657249 C70.0623684,52.0911776 73.1599732,49.2797385 74.4485597,48.2470809 C75.7379928,49.280686 78.8379651,52.0940335 78.8392924,55.2693921 C78.8406189,58.4447507 75.7430137,61.2553786 74.4544272,62.2880361 C73.1649942,61.254431 70.0650216,58.4404346 70.0636945,55.2657249 Z"
                      id="Path__Agricolture_icon" stroke="#2079D4" stroke-linejoin="round" fill-rule="nonzero"
                      transform="translate(74.451493, 55.267559) rotate(-315.000000) translate(-74.451493, -55.267559) "></path>
                <path d="M20.3560922,48.8275978 C20.354766,45.6530505 23.4523709,42.8416114 24.7409574,41.8089538 C26.0303904,42.8425589 29.1303627,45.6559064 29.1316901,48.831265 C29.1330166,52.0066237 26.0354114,54.8172515 24.7468249,55.8499091 C23.4573918,54.816304 20.3574193,52.0023075 20.3560922,48.8275978 Z"
                      id="Path__Agricolture_icon" stroke="#2079D4" fill="#2079D4" fill-rule="nonzero"
                      stroke-linejoin="round"
                      transform="translate(24.743891, 48.829431) scale(-1, 1) rotate(-315.000000) translate(-24.743891, -48.829431) "></path>
                <path d="M58.9525834,62.8744206 C58.9512573,59.6998732 62.0488621,56.8884341 63.3374486,55.8557766 C64.6268817,56.8893817 67.7268539,59.7027292 67.7281813,62.8780878 C67.7295078,66.0534464 64.6319026,68.8640742 63.3433161,69.8967318 C62.0538831,68.8631267 58.9539105,66.0491302 58.9525834,62.8744206 Z"
                      id="Path__Agricolture_icon" stroke="#2079D4" fill="#2079D4" fill-rule="nonzero"
                      stroke-linejoin="round"
                      transform="translate(63.340382, 62.876254) scale(-1, 1) rotate(-315.000000) translate(-63.340382, -62.876254) "></path>
                <line x1="17.1190598" y1="79.0598291" x2="70.1105128" y2="79.0598291" id="Path-6__Agricolture_icon"
                      stroke="#2079D4" stroke-linecap="round" stroke-linejoin="round" stroke-dasharray="0,2"></line>
                <line x1="30.3669231" y1="76.0683761" x2="30.3669231" y2="29.9145299" id="Path-6__Agricolture_icon"
                      stroke="#2079D4" stroke-width="2" fill="#2079D4" stroke-linecap="round"
                      stroke-linejoin="round"></line>
                <line x1="50.0250427" y1="76.0683761" x2="49.5976923" y2="26.7868596" id="Path-6__Agricolture_icon"
                      stroke="#234580" stroke-width="2" stroke-linecap="round" stroke-linejoin="round"></line>
                <path d="M50.7654489,43.5600393 C50.7641228,40.3854919 53.8617276,37.5740529 55.1503141,36.5413953 C56.4397472,37.5750004 59.5397194,40.3883479 59.5410468,43.5637065 C59.5423733,46.7390651 56.4447681,49.5496929 55.1561816,50.5823505 C53.8667486,49.5487454 50.766776,46.7347489 50.7654489,43.5600393 Z"
                      id="Path__Agricolture_icon" stroke="#234580" fill="#234580" fill-rule="nonzero"
                      stroke-linejoin="round"
                      transform="translate(55.153248, 43.561873) rotate(-315.000000) translate(-55.153248, -43.561873) "></path>
                <line x1="23.1019658" y1="76.4957265" x2="76.0934188" y2="76.4957265" id="Path-6__Agricolture_icon"
                      stroke="#2079D4" stroke-width="2" stroke-linecap="round" stroke-linejoin="round"></line>
                <line x1="68.8284615" y1="76.0683761" x2="68.8284615" y2="29.9145299" id="Path-6__Agricolture_icon"
                      stroke="#2079D4" stroke-width="2" stroke-linecap="round" stroke-linejoin="round"></line>
                <path d="M64.9823077,29.9145299 C64.9823077,26.8226738 68.0003703,24.0832064 69.255812,23.0769231 C70.5112372,24.08308 73.5293162,26.8218837 73.5293162,29.9145299 C73.5293162,33.0071762 70.5112536,35.7458534 69.255812,36.7521368 C68.0003868,35.7459798 64.9823077,33.0065441 64.9823077,29.9145299 Z"
                      id="Path__Agricolture_icon" fill="#2079D4" fill-rule="nonzero"></path>
                <path d="M39.6543378,37.1219122 C39.6530116,33.9473648 42.7506165,31.1359258 44.039203,30.1032682 C45.328636,31.1368733 48.4286083,33.9502208 48.4299357,37.1255794 C48.4312622,40.300938 45.333657,43.1115659 44.0450705,44.1442234 C42.7556375,43.1106183 39.6556649,40.2966218 39.6543378,37.1219122 Z"
                      id="Path__Agricolture_icon" stroke="#234580" stroke-linejoin="round" fill-rule="nonzero"
                      transform="translate(44.042137, 37.123746) scale(-1, 1) rotate(-315.000000) translate(-44.042137, -37.123746) "></path>
            </g>
        </g>
    </symbol>
    <symbol id="econ" width="101px" height="101px" viewBox="0 0 101 101" xmlns="http://www.w3.org/2000/svg">
        <g id="Schema_icons__Economy_icon" stroke="none" stroke-width="1" fill="none" fill-rule="evenodd">
            <g id="Economy_icon__Economy_icon" transform="translate(0.728300, 0.500000)">
                <path d="M49.9266055,99.853211 C77.5009174,99.853211 99.853211,77.5002752 99.853211,49.9266055 C99.853211,22.3529358 77.5009174,1.30374814e-14 49.9266055,1.30374814e-14 C22.353211,1.30374814e-14 6.5187407e-14,22.3529358 6.5187407e-14,49.9266055 C6.5187407e-14,77.5002752 22.353211,99.853211 49.9266055,99.853211 Z"
                      id="Path__Economy_icon" fill="none" fill-rule="nonzero"></path>
                <path d="M72.5146789,62.9725632 L25.8908257,62.9725632 C25.3385409,62.9725632 24.8908257,63.4202784 24.8908257,63.9725632 L24.8908257,66.5597191 C24.8908257,67.1120039 25.3385409,67.5597191 25.8908257,67.5597191 L72.5146789,67.5597191 C73.0669636,67.5597191 73.5146789,67.1120039 73.5146789,66.5597191 L73.5146789,63.9725632 C73.5146789,63.4202784 73.0669636,62.9725632 72.5146789,62.9725632 Z"
                      id="Path__Economy_icon" fill="#2079D4" fill-rule="nonzero"></path>
                <line x1="26.2669725" y1="62.9725632" x2="26.2669725" y2="67.5597191" id="Path__Economy_icon"
                      stroke="#B0CCF5" stroke-width="0.5" stroke-linejoin="round"></line>
                <line x1="28.1018349" y1="62.9725632" x2="28.1018349" y2="67.5597191" id="Path__Economy_icon"
                      stroke="#B0CCF5" stroke-width="0.5" stroke-linejoin="round"></line>
                <line x1="32.6889908" y1="62.9725632" x2="32.6889908" y2="67.5597191" id="Path__Economy_icon"
                      stroke="#B0CCF5" stroke-width="0.5" stroke-linejoin="round"></line>
                <line x1="72.1385321" y1="62.9725632" x2="72.1385321" y2="67.5597191" id="Path__Economy_icon"
                      stroke="#B0CCF5" stroke-width="0.5" stroke-linejoin="round"></line>
                <line x1="70.3036697" y1="62.9725632" x2="70.3036697" y2="67.5597191" id="Path__Economy_icon"
                      stroke="#B0CCF5" stroke-width="0.5" stroke-linejoin="round"></line>
                <line x1="65.7165138" y1="62.9725632" x2="65.7165138" y2="67.5597191" id="Path__Economy_icon"
                      stroke="#B0CCF5" stroke-width="0.5" stroke-linejoin="round"></line>
                <line x1="50.1201835" y1="62.9725632" x2="50.1201835" y2="67.5597191" id="Path__Economy_icon"
                      stroke="#B0CCF5" stroke-width="0.5" stroke-linejoin="round"></line>
                <path d="M65.1752294,68.4771503 L18.5513761,68.4771503 C17.9990914,68.4771503 17.5513761,68.9248656 17.5513761,69.4771503 L17.5513761,72.0643063 C17.5513761,72.616591 17.9990914,73.0643063 18.5513761,73.0643063 L65.1752294,73.0643063 C65.7275141,73.0643063 66.1752294,72.616591 66.1752294,72.0643063 L66.1752294,69.4771503 C66.1752294,68.9248656 65.7275141,68.4771503 65.1752294,68.4771503 Z"
                      id="Path__Economy_icon" fill="#234580" fill-rule="nonzero"></path>
                <line x1="18.9275229" y1="68.4771503" x2="18.9275229" y2="73.0643063" id="Path__Economy_icon"
                      stroke="#B0CCF5" stroke-width="0.5" stroke-linejoin="round"></line>
                <line x1="20.7623853" y1="68.4771503" x2="20.7623853" y2="73.0643063" id="Path__Economy_icon"
                      stroke="#B0CCF5" stroke-width="0.5" stroke-linejoin="round"></line>
                <line x1="25.3495413" y1="68.4771503" x2="25.3495413" y2="73.0643063" id="Path__Economy_icon"
                      stroke="#B0CCF5" stroke-width="0.5" stroke-linejoin="round"></line>
                <line x1="64.7990826" y1="68.4771503" x2="64.7990826" y2="73.0643063" id="Path__Economy_icon"
                      stroke="#B0CCF5" stroke-width="0.5" stroke-linejoin="round"></line>
                <line x1="62.9642202" y1="68.4771503" x2="62.9642202" y2="73.0643063" id="Path__Economy_icon"
                      stroke="#B0CCF5" stroke-width="0.5" stroke-linejoin="round"></line>
                <line x1="58.3770642" y1="68.4771503" x2="58.3770642" y2="73.0643063" id="Path__Economy_icon"
                      stroke="#B0CCF5" stroke-width="0.5" stroke-linejoin="round"></line>
                <line x1="42.7807339" y1="68.4771503" x2="42.7807339" y2="73.0643063" id="Path__Economy_icon"
                      stroke="#B0CCF5" stroke-width="0.5" stroke-linejoin="round"></line>
                <path d="M73.4321101,73.9817375 L26.8082569,73.9817375 C26.2559721,73.9817375 25.8082569,74.4294527 25.8082569,74.9817375 L25.8082569,77.5688934 C25.8082569,78.1211782 26.2559721,78.5688934 26.8082569,78.5688934 L73.4321101,78.5688934 C73.9843948,78.5688934 74.4321101,78.1211782 74.4321101,77.5688934 L74.4321101,74.9817375 C74.4321101,74.4294527 73.9843948,73.9817375 73.4321101,73.9817375 Z"
                      id="Path__Economy_icon" fill="#2079D4" fill-rule="nonzero"></path>
                <line x1="27.1844037" y1="73.9817375" x2="27.1844037" y2="78.5688934" id="Path__Economy_icon"
                      stroke="#B0CCF5" stroke-width="0.5" stroke-linejoin="round"></line>
                <line x1="29.0192661" y1="73.9817375" x2="29.0192661" y2="78.5688934" id="Path__Economy_icon"
                      stroke="#B0CCF5" stroke-width="0.5" stroke-linejoin="round"></line>
                <line x1="33.606422" y1="73.9817375" x2="33.606422" y2="78.5688934" id="Path__Economy_icon"
                      stroke="#B0CCF5" stroke-width="0.5" stroke-linejoin="round"></line>
                <line x1="73.0559633" y1="73.9817375" x2="73.0559633" y2="78.5688934" id="Path__Economy_icon"
                      stroke="#B0CCF5" stroke-width="0.5" stroke-linejoin="round"></line>
                <line x1="71.2211009" y1="73.9817375" x2="71.2211009" y2="78.5688934" id="Path__Economy_icon"
                      stroke="#B0CCF5" stroke-width="0.5" stroke-linejoin="round"></line>
                <line x1="66.633945" y1="73.9817375" x2="66.633945" y2="78.5688934" id="Path__Economy_icon"
                      stroke="#B0CCF5" stroke-width="0.5" stroke-linejoin="round"></line>
                <line x1="51.0376147" y1="73.9817375" x2="51.0376147" y2="78.5688934" id="Path__Economy_icon"
                      stroke="#B0CCF5" stroke-width="0.5" stroke-linejoin="round"></line>
                <path d="M73.0559633,38.6619199 C73.0532185,43.1953872 71.712394,47.6268662 69.1995489,51.4002945 C66.6757246,55.171252 63.0951605,58.1128514 58.9066278,59.8557113 C54.7126056,61.5848447 50.1000046,62.0383699 45.6493455,61.1597335 C41.2000589,60.2739593 37.1117106,58.0913007 33.9003193,54.8867006 C30.6971622,51.6748255 28.515063,47.5866474 27.6298718,43.1367748 C26.7378186,38.6853923 27.1920795,34.0692912 28.9336418,29.8769286 C30.6724592,25.6847033 33.6134899,22.1022113 37.3861885,19.582017 C41.1588872,17.0670387 45.5903328,15.7248567 50.1233352,15.7248567 C56.204393,15.7277393 62.0384206,18.1414157 66.3449788,22.4371391 C70.6391854,26.7445302 73.0518461,32.5787252 73.0559633,38.6619199 Z"
                      id="Path__Economy_icon" stroke="#AACCF9" fill="#2079D4" fill-rule="nonzero"></path>
                <path d="M41.446316,36.2841033 L43.3648009,36.2841033 C43.487901,35.1660814 43.7737438,34.075683 44.2108537,33.0521623 C44.6124941,32.0886974 45.1654017,31.2069844 45.8476687,30.4462778 C46.5268061,29.7044713 47.3394758,29.118452 48.2366466,28.7240074 C49.2318801,28.2999263 50.2959664,28.0945959 51.3663119,28.1200944 C53.2149009,28.021008 55.03115,28.6673067 56.4572342,29.9318334 C57.801947,31.2952228 58.606271,33.1617613 58.7012042,35.1434906 L55.1845036,35.1434906 C55.1083484,34.0420204 54.6733249,33.0045203 53.9545451,32.2133943 C53.2399382,31.5196772 52.2989522,31.1543098 51.3350152,31.1955772 C50.7737619,31.1639277 50.2145951,31.2710663 49.6982003,31.5088291 C49.1797191,31.7430131 48.7217447,32.107374 48.3618332,32.5711568 C47.603411,33.650148 47.1443934,34.9373773 47.0379847,36.2841033 L52.7861367,36.2841033 L52.4512625,38.1629437 L46.954527,38.1629437 L46.954527,40.2207212 L52.0548383,40.2207212 L51.742915,42.1107452 L47.0066881,42.1107452 C47.0974484,43.4292885 47.5637685,44.6860986 48.342012,45.7118559 C48.718615,46.1461141 49.1818055,46.4826279 49.6982003,46.6960104 C50.2135518,46.9196819 50.769589,47.0188802 51.324583,46.9867834 C53.6509676,46.9867834 54.9967237,45.5329188 55.3722835,42.6475567 L58.8357798,42.6475567 C58.7043339,44.7275896 57.8739293,46.6859452 56.498963,48.1610586 C55.0666195,49.5207575 53.1940365,50.2235333 51.2828542,50.118184 C50.2135518,50.1451364 49.1494656,49.9437203 48.1531888,49.5254546 C47.2685368,49.1442066 46.4642128,48.5777586 45.7861186,47.8592139 C45.0975922,47.1338474 44.541555,46.2765146 44.1472172,45.3316144 C43.7184531,44.3105542 43.4399128,43.2238463 43.323072,42.1107452 L41.4045872,42.1107452 L41.4045872,40.2207212 L43.2396143,40.2207212 L43.2396143,38.1853108 L41.4045872,38.1853108 L41.446316,36.2841033 Z"
                      id="Path__Economy_icon" fill="#B0CCF5" fill-rule="nonzero"></path>
                <line x1="25.9642202" y1="82.5688073" x2="82.8449541" y2="82.5688073" id="Path-6__Economy_icon"
                      stroke="#457FE5" stroke-linecap="round" stroke-linejoin="round" stroke-dasharray="0,2"></line>
                <line x1="20.459633" y1="78.8990826" x2="77.340367" y2="78.8990826" id="Path-6__Economy_icon"
                      stroke="#2079D4" stroke-width="2" stroke-linecap="round" stroke-linejoin="round"></line>
            </g>
        </g>
    </symbol>
    <symbol id="ener" width="101px" height="100px" viewBox="0 0 101 100" xmlns="http://www.w3.org/2000/svg">
        <defs>
            <filter id="filter-1__Energy_icon">
                <feColorMatrix in="SourceGraphic" type="matrix"
                               values="0 0 0 0 0.125490 0 0 0 0 0.474510 0 0 0 0 0.831373 0 0 0 1.000000 0"></feColorMatrix>
            </filter>
        </defs>
        <g id="Schema_icons__Energy_icon" stroke="none" stroke-width="1" fill="none" fill-rule="evenodd">
            <g id="Energy_icon__Energy_icon" transform="translate(0.029300, 0.000000)">
                <path d="M49.7008547,99.4017094 C77.1498291,99.4017094 99.4019658,77.1495726 99.4019658,49.7008547 C99.4019658,22.2521368 77.1498291,6.07301484e-15 49.7008547,6.07301484e-15 C22.2517949,6.07301484e-15 -4.85841187e-14,22.2521368 -4.85841187e-14,49.7008547 C-4.85841187e-14,77.1495726 22.2517949,99.4017094 49.7008547,99.4017094 Z"
                      id="Path__Energy_icon" fill="" fill-rule="nonzero"></path>
                <line x1="26.9230769" y1="18.3760684" x2="35.854485" y2="26.880126" id="Path-6__Energy_icon"
                      stroke="#B0CCF5" stroke-linecap="round" stroke-linejoin="round" stroke-dasharray="0,2"></line>
                <line x1="63.6752137" y1="18.3760684" x2="72.6066218" y2="26.880126" id="Path-6__Energy_icon"
                      stroke="#B0CCF5" stroke-linecap="round" stroke-linejoin="round" stroke-dasharray="0,2"
                      transform="translate(68.293851, 22.567355) scale(-1, 1) translate(-68.293851, -22.567355) "></line>
                <line x1="50.6473157" y1="10.354892" x2="50.3451333" y2="22.6836281" id="Path-6__Energy_icon"
                      stroke="#B0CCF5" stroke-linecap="round" stroke-linejoin="round" stroke-dasharray="0,2"></line>
                <line x1="29.4871795" y1="18.3760684" x2="38.4185876" y2="26.880126" id="Path-6__Energy_icon"
                      stroke="#2079D4" stroke-linecap="round" stroke-linejoin="round" stroke-dasharray="0,2"></line>
                <line x1="66.2393162" y1="18.3760684" x2="75.1707243" y2="26.880126" id="Path-6__Energy_icon"
                      stroke="#2079D4" stroke-linecap="round" stroke-linejoin="round" stroke-dasharray="0,2"
                      transform="translate(70.857954, 22.567355) scale(-1, 1) translate(-70.857954, -22.567355) "></line>
                <line x1="52.3567174" y1="10.354892" x2="52.054535" y2="22.6836281" id="Path-6__Energy_icon"
                      stroke="#2079D4" stroke-linecap="round" stroke-linejoin="round" stroke-dasharray="0,2"></line>
                <g id="Group-11__Energy_icon" transform="translate(30.769231, 28.205128)">
                    <path d="M18.8034188,0.5 C23.8577683,0.5 28.433623,2.54867993 31.7458904,5.86094725 C35.0581577,9.17321457 37.1068376,13.7490693 37.1068376,18.8034188 C37.1068376,24.9356483 34.0911273,30.3634466 29.4620742,33.6849735 L29.4620742,33.6849735 L28.6073219,42.2350427 L9.8322656,42.2350427 L8.59608663,33.9986864 C3.71268933,30.7116431 0.5,25.1327559 0.5,18.8034188 C0.5,13.7490693 2.54867993,9.17321457 5.86094725,5.86094725 C9.17321457,2.54867993 13.7490693,0.5 18.8034188,0.5 Z"
                          id="Combined-Shape__Energy_icon" stroke="#2079D4" fill="#B0CCF5"></path>
                    <g filter="url(#filter-1__Energy_icon)" id="Group-10__Energy_icon">
                        <g transform="translate(12.360289, 23.033647)">
                            <polygon id="Path__Energy_icon" fill="#2079D4" fill-rule="nonzero"
                                     points="2.75469393 19.2037217 -1.2070117e-13 0.287354077 1.10999608 0 3.8625904 18.9163677"></polygon>
                            <polygon id="Path__Energy_icon" fill="#2079D4" fill-rule="nonzero"
                                     points="11.9232472 19.2037217 14.6778435 0.287354077 13.56915 0 10.8152531 18.9163677"></polygon>
                            <path d="M13.9053254,2.30444661 C13.2355107,2.30444661 12.9478339,1.72792819 12.7356033,1.30543728 C12.6472761,1.13296987 12.463261,0.767968086 12.3595992,0.767968086 C12.2534839,0.767968086 12.0719224,1.13296987 11.9842086,1.30543728 C11.7750448,1.72792819 11.4830743,2.30444661 10.8175533,2.30444661 C10.1489654,2.30444661 9.85822164,1.72792819 9.64721775,1.30543728 C9.59937384,1.21161067 9.5233143,1.05975257 9.44725475,0.940435495 C9.10560019,1.49905635 8.48424278,2.30444661 7.72916779,2.30444661 C7.0593531,2.30444661 6.76983613,1.72792819 6.560059,1.30543728 C6.47050502,1.13134282 6.28833014,0.767968086 6.18405496,0.767968086 C6.07977978,0.767968086 5.89576475,1.13134282 5.80866431,1.30543728 C5.59643365,1.72792819 5.30814344,2.30444661 4.64078228,2.30444661 C3.9703542,2.30444661 3.68022384,1.72792819 3.46799318,1.30543728 C3.38089273,1.13296987 3.19810448,0.767968086 3.09260253,0.767968086 C2.98587381,0.767968086 2.80369894,1.13134282 2.71291819,1.30543728 C2.50436783,1.72792819 2.21423747,2.30444661 1.54503616,2.30444661 L1.54503616,1.53485147 C1.64869796,1.53485147 1.83393975,1.17147674 1.9210402,0.99575523 C2.13511101,0.574891364 2.42585475,1.82190445e-14 3.09260253,1.82190445e-14 C3.76119045,1.82190445e-14 4.04948066,0.574891364 4.26109794,0.99575523 C4.35065192,1.17147674 4.53528033,1.53485147 4.64078228,1.53485147 C4.74137716,1.53485147 4.92784572,1.17147674 5.01555955,0.99575523 C5.22472329,0.574891364 5.51546703,1.82190445e-14 6.18405496,1.82190445e-14 C6.85080274,1.82190445e-14 7.14154648,0.574891364 7.35316376,0.99575523 C7.43965082,1.17147674 7.62305246,1.53485147 7.72916779,1.53485147 C7.98372191,1.53485147 8.53024654,0.912233277 8.87558141,0.226702443 C8.90993088,0.159451001 8.96574877,0.101961865 9.03628786,0.0618279391 C9.10621357,0.0211516634 9.18840695,1.82190445e-14 9.27244048,1.82190445e-14 C9.9410284,1.82190445e-14 10.229932,0.574891364 10.4409359,0.99575523 C10.5280363,1.17147674 10.711438,1.53485147 10.8175533,1.53485147 C10.9187616,1.53485147 11.10339,1.17147674 11.1904904,0.99629758 C11.4002676,0.574891364 11.6934648,1.82190445e-14 12.3595992,1.82190445e-14 C13.0294139,1.82190445e-14 13.3177041,0.574891364 13.5268679,0.99629758 C13.6176486,1.17147674 13.8010503,1.53485147 13.9053254,1.53485147 L13.9053254,2.30444661 Z"
                                  id="Path__Energy_icon" fill="#2079D4" fill-rule="nonzero"></path>
                        </g>
                    </g>
                    <path d="M29.7692308,41.025641 C30.3215155,41.025641 30.7692308,41.4733563 30.7692308,42.025641 L30.7692308,45.1538462 C30.7692308,45.7061309 30.3215155,46.1538462 29.7692308,46.1538462 L28.2046068,46.153641 L28.2051282,48.1758242 C28.2051282,48.7281089 27.757413,49.1758242 27.2051282,49.1758242 L23.0664598,49.175935 C23.0733539,49.2233347 23.0769231,49.2718122 23.0769231,49.3211233 L23.0769231,50.6788767 C23.0769231,51.2311614 22.6292078,51.6788767 22.0769231,51.6788767 L15.5299145,51.6788767 C14.9776298,51.6788767 14.5299145,51.2311614 14.5299145,50.6788767 L14.5299145,49.3211233 C14.5299145,49.2718122 14.5334837,49.2233347 14.5403778,49.175935 L10.4017094,49.1758242 C9.84942465,49.1758242 9.4017094,48.7281089 9.4017094,48.1758242 L9.40160684,46.153641 L7.83760684,46.1538462 C7.28532209,46.1538462 6.83760684,45.7061309 6.83760684,45.1538462 L6.83760684,42.025641 C6.83760684,41.4733563 7.28532209,41.025641 7.83760684,41.025641 L29.7692308,41.025641 Z"
                          id="Combined-Shape__Energy_icon" fill="#234580"></path>
                </g>
            </g>
        </g>
    </symbol>
    <symbol id="envi" width="100px" height="100px" viewBox="0 0 100 100" xmlns="http://www.w3.org/2000/svg">
        <g id="Schema_icons__Environment_icon" stroke="none" stroke-width="1" fill="none" fill-rule="evenodd">
            <g id="Environment_icon__Environment_icon" transform="translate(-0.000000, 0.000000)">
                <path d="M49.7008547,99.4017094 C77.1498291,99.4017094 99.4019658,77.1495726 99.4019658,49.7008547 C99.4019658,22.2521368 77.1498291,6.07301484e-15 49.7008547,6.07301484e-15 C22.2517949,6.07301484e-15 -4.85841187e-14,22.2521368 -4.85841187e-14,49.7008547 C-4.85841187e-14,77.1495726 22.2517949,99.4017094 49.7008547,99.4017094 Z"
                      id="Path__Environment_icon" fill="" fill-rule="nonzero"></path>
                <g id="Group-9__Environment_icon" transform="translate(18.998547, 20.512821)">
                    <path d="M30.1717949,60.6837607 C46.4574742,60.6837607 59.6589744,47.099218 59.6589744,30.3418803 C59.6589744,13.5845427 46.4574742,9.71682374e-14 30.1717949,9.71682374e-14 C13.8866574,9.71682374e-14 0.684615385,13.5845427 0.684615385,30.3418803 C0.684615385,47.099218 13.8866574,60.6837607 30.1717949,60.6837607 Z"
                          id="Path__Environment_icon" fill="#B0CCF5" fill-rule="nonzero"></path>
                    <path d="M2.39401709,37.894108 C2.39401709,34.2053662 7.86323061,31.3067579 18.1408249,39.2288366 C28.4184193,47.1509154 31.3566524,53.8148216 26.8226847,53.8148216 C22.288717,53.8148216 22.9019203,57.2649573 17.2746357,57.2649573 C11.647351,57.2649573 2.39401709,41.5828498 2.39401709,37.894108 Z"
                          id="Path-7__Environment_icon" fill="#2079D4"></path>
                    <path d="M54.0472209,15.8720522 C56.3734415,8.26332771 63.2051979,29.5715812 58.567798,29.587216 C53.930398,29.6028507 54.366206,39.1512107 52.7527006,34.8473904 C51.1391951,30.5435701 51.7210004,23.4807767 54.0472209,15.8720522 Z"
                          id="Path-7__Environment_icon" fill="#2079D4"
                          transform="translate(55.992746, 25.096131) rotate(163.000000) translate(-55.992746, -25.096131) "></path>
                    <path d="M2.41561524,20.5233316 C1.78250946,24.1158804 15.2522404,19.7740053 18.6112208,20.5233316 C21.9702013,21.2726579 27.0049077,23.0878011 29.1931282,24.5633451 C30.6519419,25.547041 31.9485449,26.8972447 33.0829373,28.6139561 L33.768454,32.2872924 C32.6779986,34.4413216 32.2458845,36.3916061 32.4721117,38.1381459 C32.8114525,40.7579556 36.3501033,44.7630375 37.6903295,46.132731 C39.0305557,47.5024246 38.8768348,51.4142196 40.6001585,48.5471026 C42.3234822,45.6799855 42.1594754,41.0215123 42.4955947,38.1381459 C42.8317141,35.2547795 44.39524,34.3994415 42.4955947,32.2872924 C40.5959495,30.1751433 37.817584,32.3512578 35.9298067,30.8378759 C34.0420293,29.3244941 33.435032,30.5276096 33.768454,25.2909714 C34.1018761,20.0543333 36.6399637,16.9153277 36.9586684,14.6788464 C37.2773731,12.4423652 36.3578531,8.53799964 31.0518055,5.86331536 C25.7457579,3.18863109 27.3047466,-0.374082139 18.1895142,3.24673131 C9.07428184,6.86754476 3.04872101,16.9307828 2.41561524,20.5233316 Z"
                          id="Path-8__Environment_icon" fill="#2079D4"></path>
                </g>
                <path d="M49.3404274,81.1965812 C66.0981553,81.1965812 79.6823077,67.6120385 79.6823077,50.8547009 C79.6823077,34.0973632 66.0981553,20.5128205 49.3404274,20.5128205 C32.5832569,20.5128205 18.998547,34.0973632 18.998547,50.8547009 C18.998547,67.6120385 32.5832569,81.1965812 49.3404274,81.1965812 Z"
                      id="Path__Environment_icon" stroke="#234580" stroke-width="2" fill-rule="nonzero"></path>
                <path d="M49.3404274,85.042735 C68.2223743,85.042735 83.5284615,69.7362081 83.5284615,50.8547009 C83.5284615,31.9731936 68.2223743,16.6666667 49.3404274,16.6666667 C30.4591086,16.6666667 15.1523932,31.9731936 15.1523932,50.8547009 C15.1523932,69.7362081 30.4591086,85.042735 49.3404274,85.042735 Z"
                      id="Path__Environment_icon" stroke="#2079D4" stroke-linecap="round" stroke-linejoin="round"
                      stroke-dasharray="0,3" fill-rule="nonzero"></path>
            </g>
        </g>
    </symbol>
    <symbol id="gove" width="100px" height="100px" viewBox="0 0 100 100" xmlns="http://www.w3.org/2000/svg">
        <g id="Schema_icons__Government_icon" stroke="none" stroke-width="1" fill="none" fill-rule="evenodd">
            <g id="Government_icon__Government_icon" transform="translate(-0.000000, 0.000000)">
                <path d="M49.7008547,99.4017094 C77.1498291,99.4017094 99.4019658,77.1495726 99.4019658,49.7008547 C99.4019658,22.2521368 77.1498291,6.07301484e-15 49.7008547,6.07301484e-15 C22.2517949,6.07301484e-15 -4.85841187e-14,22.2521368 -4.85841187e-14,49.7008547 C-4.85841187e-14,77.1495726 22.2517949,99.4017094 49.7008547,99.4017094 Z"
                      id="Path__Government_icon" fill="none" fill-rule="nonzero"></path>
                <line x1="14.5549573" y1="75.6410256" x2="67.5464103" y2="75.6410256" id="Path-6__Government_icon"
                      stroke="#0058B0" stroke-linecap="round" stroke-linejoin="round" stroke-dasharray="0,2"></line>
                <polyline id="Path__Government_icon" stroke="#2079D4" fill="#2079D4" stroke-linecap="round"
                          stroke-linejoin="round"
                          points="61.3247009 71.7952137 61.3247009 33.9234188 22.7948034 41.3080342 22.7948034 71.7952137"></polyline>
                <polygon id="Path__Government_icon" fill="#B0CCF5" fill-rule="nonzero"
                         points="29.5547863 58.2648718 33.7941026 58.2648718 33.7941026 55.1110256 29.5547863 55.1110256"></polygon>
                <polygon id="Path__Government_icon" fill="#0058B0" fill-rule="nonzero"
                         points="30.9829915 56.6748718 36.6069231 56.6748718 36.6069231 53.5210256 30.9829915 53.5210256"></polygon>
                <line x1="36.6069231" y1="71.7950427" x2="36.6069231" y2="52.3078632" id="Path__Government_icon"
                      stroke="#0058B0" stroke-linecap="round" stroke-linejoin="round"></line>
                <polygon id="Path__Government_icon" fill="#B0CCF5" fill-rule="nonzero"
                         points="33.4860684 50.2562393 37.7253846 50.2562393 37.7253846 47.1023932 33.4860684 47.1023932"></polygon>
                <polygon id="Path__Government_icon" fill="#0058B0" fill-rule="nonzero"
                         points="34.9226496 48.6753846 40.5465812 48.6753846 40.5465812 45.5215385 34.9226496 45.5215385"></polygon>
                <polygon id="Path__Government_icon" fill="#B0CCF5" fill-rule="nonzero"
                         points="42.4687179 23.5301709 46.7080342 23.5301709 46.7080342 20.3762991 42.4687179 20.3762991"></polygon>
                <polygon id="Path__Government_icon" fill="#234580" fill-rule="nonzero"
                         points="43.8970085 21.9400855 49.5209402 21.9400855 49.5209402 18.7862564 43.8970085 18.7862564"></polygon>
                <line x1="40.5465812" y1="71.7949573" x2="40.5465812" y2="44.2992308" id="Path__Government_icon"
                      stroke="#0058B0" stroke-linecap="round" stroke-linejoin="round"></line>
                <polygon id="Path__Government_icon" fill="#B0CCF5" fill-rule="nonzero"
                         points="26.0257778 65.9830769 30.2651282 65.9830769 30.2651282 62.8292308 26.0257778 62.8292308"></polygon>
                <polygon id="Path__Government_icon" fill="#0058B0" fill-rule="nonzero"
                         points="27.4523077 64.4105983 33.0762393 64.4105983 33.0762393 61.2567521 27.4523077 61.2567521"></polygon>
                <line x1="33.0762393" y1="71.7952991" x2="33.0762393" y2="60.0260684" id="Path__Government_icon"
                      stroke="#0058B0" stroke-linecap="round" stroke-linejoin="round"></line>
                <polygon id="Path__Government_icon" stroke="#B0CCF5" fill="#B0CCF5" stroke-linecap="round"
                         stroke-linejoin="round"
                         points="68.8618803 47.4784615 75.7165812 49.2220513 75.7165812 71.7947009 68.8633333 71.7945299"></polygon>
                <polyline id="Path__Government_icon" stroke="#234580" fill="#234580" fill-rule="nonzero"
                          stroke-linecap="round" stroke-linejoin="round"
                          points="68.8628205 71.7945299 68.8628205 20.3500598 49.5209402 24.6834188 49.5209402 71.7945299"></polyline>
                <line x1="49.1703419" y1="71.3675214" x2="49.5209402" y2="16.9830085" id="Path__Government_icon"
                      stroke="#234580" stroke-linecap="round" stroke-linejoin="round"></line>
                <polygon id="Path__Government_icon" fill="#FFFFFF"
                         points="62.3411111 27.1709402 52.3838462 27.1709402 52.3838462 32.2991453 62.3411111 32.2991453"></polygon>
                <polygon id="Path__Government_icon" fill="#FFFFFF"
                         points="62.3411111 34.9659829 52.3838462 34.9659829 52.3838462 40.094188 62.3411111 40.094188"></polygon>
                <polygon id="Path__Government_icon" fill="#FFFFFF"
                         points="62.3411111 42.7517094 52.3838462 42.7517094 52.3838462 47.8799145 62.3411111 47.8799145"></polygon>
                <polygon id="Path__Government_icon" fill="#FFFFFF"
                         points="62.3411111 50.5466667 52.3838462 50.5466667 52.3838462 55.6748718 62.3411111 55.6748718"></polygon>
                <polygon id="Path__Government_icon" fill="#FFFFFF"
                         points="68.0086325 27.1709402 65.0257265 27.1709402 65.0257265 32.2991453 68.0086325 32.2991453"></polygon>
                <polygon id="Path__Government_icon" fill="#FFFFFF"
                         points="68.0086325 34.9659829 65.0257265 34.9659829 65.0257265 40.094188 68.0086325 40.094188"></polygon>
                <polygon id="Path__Government_icon" fill="#FFFFFF"
                         points="68.0086325 42.7517094 65.0257265 42.7517094 65.0257265 47.8799145 68.0086325 47.8799145"></polygon>
                <polygon id="Path__Government_icon" fill="#FFFFFF"
                         points="68.0086325 50.5466667 65.0257265 50.5466667 65.0257265 55.6748718 68.0086325 55.6748718"></polygon>
                <polygon id="Path__Government_icon" fill="#FFFFFF"
                         points="64.2306838 67.2651282 53.1366667 67.2651282 53.1366667 71.7950427 64.2306838 71.7950427"></polygon>
                <polygon id="Path__Government_icon" stroke="#2079D4" stroke-linecap="round" stroke-linejoin="round"
                         points="19.0421368 72.6495726 19.0421368 71.7948718 57.4780342 71.7948718 79.9908547 71.7948718 79.9908547 72.6495726"></polygon>
            </g>
        </g>
    </symbol>
    <symbol id="heal" width="101px" height="100px" viewBox="0 0 101 100" xmlns="http://www.w3.org/2000/svg">
        <g id="Schema_icons__Healthcare_icon" stroke="none" stroke-width="1" fill="none" fill-rule="evenodd">
            <g id="Healthcare_icon__Healthcare_icon" transform="translate(0.029300, 0.000000)">
                <path d="M49.7008547,99.4017094 C77.1498291,99.4017094 99.4019658,77.1495726 99.4019658,49.7008547 C99.4019658,22.2521368 77.1498291,0 49.7008547,0 C22.2517949,0 -4.85841187e-14,22.2521368 -4.85841187e-14,49.7008547 C-4.85841187e-14,77.1495726 22.2517949,99.4017094 49.7008547,99.4017094 Z"
                      id="Path__Healthcare_icon" fill="none" fill-rule="nonzero"></path>
                <line x1="18.3247863" y1="74.7863248" x2="71.3162393" y2="74.7863248" id="Path-6__Healthcare_icon"
                      stroke="#2079D4" stroke-linecap="round" stroke-linejoin="round" stroke-dasharray="0,2"></line>
                <polygon id="Path__Healthcare_icon" stroke="#234580" fill="#234580" stroke-linejoin="round"
                         points="82.4273504 45.2991453 21.7435897 45.2991453 21.7435897 70.9401709 82.4273504 70.9401709"></polygon>
                <polyline id="Path__Healthcare_icon" stroke="#2079D4" fill="#2079D4" fill-rule="nonzero"
                          stroke-linecap="round" stroke-linejoin="round"
                          points="28.5811966 70.9401709 28.5811966 36.7521368 74.7350427 36.7521368 74.7350427 70.9401709"></polyline>
                <polygon id="Path__Healthcare_icon" fill="#B0CCF5" fill-rule="nonzero"
                         points="39.6923077 39.3162393 33.7094017 39.3162393 33.7094017 47.8632479 39.6923077 47.8632479"></polygon>
                <polygon id="Path__Healthcare_icon" fill="#B0CCF5" fill-rule="nonzero"
                         points="69.6068376 39.3162393 63.6239316 39.3162393 63.6239316 47.8632479 69.6068376 47.8632479"></polygon>
                <polygon id="Path__Healthcare_icon" fill="#B0CCF5" fill-rule="nonzero"
                         points="39.6923077 50.4273504 33.7094017 50.4273504 33.7094017 58.974359 39.6923077 58.974359"></polygon>
                <polygon id="Path__Healthcare_icon" fill="#B0CCF5" fill-rule="nonzero"
                         points="49.9487179 50.4273504 43.965812 50.4273504 43.965812 58.974359 49.9487179 58.974359"></polygon>
                <polygon id="Path__Healthcare_icon" fill="#B0CCF5" fill-rule="nonzero"
                         points="59.3504274 50.4273504 53.3675214 50.4273504 53.3675214 58.974359 59.3504274 58.974359"></polygon>
                <polygon id="Path__Healthcare_icon" fill="#B0CCF5" fill-rule="nonzero"
                         points="69.6068376 50.4273504 63.6239316 50.4273504 63.6239316 58.974359 69.6068376 58.974359"></polygon>
                <polygon id="Path__Healthcare_icon" fill="#FFFFFF"
                         points="66.1880342 64.1025641 37.1282051 64.1025641 37.1282051 70.9401709 66.1880342 70.9401709"></polygon>
                <line x1="51.6581197" y1="64.1025641" x2="51.6581197" y2="70.9401709" id="Path__Healthcare_icon"
                      stroke="#0058B0" fill="#FFFFFF"></line>
                <polyline id="Path__Healthcare_icon" stroke="#2079D4" fill="#2079D4"
                          points="27.7264957 48.7179487 25.1623932 48.7179487 25.1623932 59.8290598 27.7264957 59.8290598"></polyline>
                <polyline id="Path__Healthcare_icon" stroke="#2079D4" fill="#2079D4"
                          points="75.5897436 48.7179487 78.1538462 48.7179487 78.1538462 59.8290598 75.5897436 59.8290598"></polyline>
                <path d="M51.2307692,45.2991453 C56.1872137,45.2991453 60.2051282,41.2812308 60.2051282,36.3247863 C60.2051282,31.368434 56.1872137,27.3504274 51.2307692,27.3504274 C46.2744169,27.3504274 42.2564103,31.368434 42.2564103,36.3247863 C42.2564103,41.2812308 46.2744169,45.2991453 51.2307692,45.2991453 Z"
                      id="Path__Healthcare_icon" stroke="#2079D4" fill="#FFFFFF" fill-rule="nonzero"></path>
                <polyline id="Path__Healthcare_icon" fill="#234580" fill-rule="nonzero"
                          points="51.6581197 31.6239316 50.1340363 31.6239316 50.1340363 35.3047368 46.5299145 35.3047368 46.5299145 38.1995367 50.1340363 38.1995367 50.1340363 41.8803419 51.6581197 41.8803419"></polyline>
                <polyline id="Path__Healthcare_icon" stroke="#234580"
                          points="51.6581197 31.6239316 50.1340363 31.6239316 50.1340363 35.3047368 46.5299145 35.3047368 46.5299145 38.1995367 50.1340363 38.1995367 50.1340363 41.8803419 51.6581197 41.8803419"></polyline>
                <polyline id="Path__Healthcare_icon" fill="#2079D4" fill-rule="nonzero"
                          points="50.8034188 31.6239316 52.3179168 31.6239316 52.3179168 35.3047368 55.9316239 35.3047368 55.9316239 38.1995367 52.3179168 38.1995367 52.3179168 41.8803419 50.8034188 41.8803419"></polyline>
                <polyline id="Path__Healthcare_icon" stroke="#2079D4"
                          points="50.8034188 31.6239316 52.3179168 31.6239316 52.3179168 35.3047368 55.9316239 35.3047368 55.9316239 38.1995367 52.3179168 38.1995367 52.3179168 41.8803419 50.8034188 41.8803419"></polyline>
                <polygon id="Path__Healthcare_icon" stroke="#2079D4" fill="#2079D4" stroke-linecap="round"
                         stroke-linejoin="round"
                         points="16.2393162 71.8649283 16.2393162 70.8701145 60.9760921 70.8701145 87.1794872 70.8701145 87.1794872 71.8649283"></polygon>
            </g>
        </g>
    </symbol>
    <symbol id="educ" width="100px" height="100px" viewBox="0 0 100 100" xmlns="http://www.w3.org/2000/svg">
        <g id="Schema_icons__Instruction_icon" stroke="none" stroke-width="1" fill="none" fill-rule="evenodd">
            <g id="Instruction_icon__Instruction_icon" transform="translate(-0.000000, 0.000000)">
                <path d="M49.7008547,99.4017094 C77.1498291,99.4017094 99.4019658,77.1495726 99.4019658,49.7008547 C99.4019658,22.2521368 77.1498291,-1.82190445e-14 49.7008547,-1.82190445e-14 C22.2517949,-1.82190445e-14 -4.85841187e-14,22.2521368 -4.85841187e-14,49.7008547 C-4.85841187e-14,77.1495726 22.2517949,99.4017094 49.7008547,99.4017094 Z"
                      id="Path__Instruction_icon" fill="none" fill-rule="nonzero"></path>
                <line x1="10.7088034" y1="75.6410256" x2="22.247265" y2="75.6410256" id="Path-6__Instruction_icon"
                      stroke="#457FE5" stroke-linecap="round" stroke-linejoin="round" stroke-dasharray="0,2"></line>
                <line x1="61.9908547" y1="50.8547009" x2="87.161579" y2="75.5980748" id="Path-6__Instruction_icon"
                      stroke="#457FE5" stroke-linecap="round" stroke-linejoin="round" stroke-dasharray="0,2"></line>
                <path d="M79.0352991,70.2709402 L29.1332479,20.3692308 C28.1987179,19.4350427 26.682906,19.434188 25.7483761,20.3683761 L20.3816239,25.7358974 C19.4470085,26.6700855 19.4474359,28.1854701 20.3820513,29.1205128 L70.2840171,79.0222222 C71.2182051,79.957265 72.7344444,79.957265 73.6686325,79.0230769 L79.0361538,73.6564103 C79.9703419,72.7213675 79.9694872,71.2059829 79.0352991,70.2709402 Z"
                      id="Path__Instruction_icon" fill="#2079D4" fill-rule="nonzero"></path>
                <line x1="38.0160684" y1="29.2564103" x2="34.0160684" y2="33.2564103" id="Path__Instruction_icon"
                      stroke="#B0CCF5"></line>
                <line x1="48.0588034" y1="39.2991453" x2="44.0588034" y2="43.2905983" id="Path__Instruction_icon"
                      stroke="#B0CCF5"></line>
                <line x1="52.0758974" y1="43.3162393" x2="49.9733333" y2="45.4102564" id="Path__Instruction_icon"
                      stroke="#B0CCF5"></line>
                <line x1="54.0755556" y1="45.3247863" x2="51.9815385" y2="47.4188034" id="Path__Instruction_icon"
                      stroke="#B0CCF5"></line>
                <line x1="56.0853846" y1="47.3333333" x2="53.9913675" y2="49.4273504" id="Path__Instruction_icon"
                      stroke="#B0CCF5"></line>
                <line x1="58.0929915" y1="49.3418803" x2="54.1015385" y2="53.3333333" id="Path__Instruction_icon"
                      stroke="#457FE5"></line>
                <line x1="68.1361538" y1="59.3760684" x2="64.1447009" y2="63.3760684" id="Path__Instruction_icon"
                      stroke="#B0CCF5"></line>
                <line x1="78.1788889" y1="69.4188034" x2="74.1788889" y2="73.4188034" id="Path__Instruction_icon"
                      stroke="#B0CCF5"></line>
                <polygon id="Path__Instruction_icon" fill="#EEF4FD" fill-rule="nonzero"
                         points="73.4746154 34.1666667 65.2429915 25.9350427 25.9469231 65.2307692 34.1784615 73.4623932"></polygon>
                <polygon id="Path__Instruction_icon" fill="#234580" fill-rule="nonzero"
                         points="65.2352991 25.9333333 25.9398291 65.2282051 27.3600855 66.6487179 66.655812 27.3529915"></polygon>
                <polygon id="Path__Instruction_icon" fill="#234580" fill-rule="nonzero"
                         points="72.0481197 32.7452991 32.7523932 72.0410256 34.1726496 73.4606838 73.4677778 34.165812"></polygon>
                <polygon id="Path__Instruction_icon" fill="#234580" fill-rule="nonzero"
                         points="69.3506838 30.0512821 67.4361538 28.1282051 28.1366667 67.4273504 30.0511966 69.3504274 31.9742735 71.2649573 71.2737607 31.965812"></polygon>
                <path d="M74.3053846,20.9769231 L78.432735,25.1051282 C78.9763248,25.6487179 79.281453,26.3854701 79.281453,27.1538462 C79.281453,27.9222222 78.9763248,28.6598291 78.4335897,29.2034188 L74.7284615,32.9076923 L66.4968376,24.6760684 L70.2019658,20.9717949 C70.4711966,20.7017094 70.7917094,20.4880342 71.1438462,20.342735 C71.4959829,20.1965812 71.8737607,20.1222222 72.2549573,20.1230696 C72.6361538,20.1230696 73.0130769,20.1991453 73.3652137,20.3461538 C73.7173504,20.4923077 74.0361538,20.7068376 74.3053846,20.9769231 Z"
                      id="Path__Instruction_icon" fill="#2079D4" fill-rule="nonzero"></path>
                <polygon id="Path__Instruction_icon" fill="#B0CCF5" fill-rule="nonzero"
                         points="24.6836752 66.4871795 32.9144444 74.7179487 23.8631624 75.5384615"></polygon>
                <polygon id="Path__Instruction_icon" fill="#234580" fill-rule="nonzero"
                         points="24.1195726 72.6581197 26.7435043 75.2820513 23.8631624 75.5384615"></polygon>
            </g>
        </g>
    </symbol>
    <symbol id="intr" width="100px" height="100px" viewBox="0 0 100 100" xmlns="http://www.w3.org/2000/svg">
        <g id="Schema_icons__International_icon" stroke="none" stroke-width="1" fill="none" fill-rule="evenodd">
            <g id="International_icon__International_icon" transform="translate(-0.000000, 0.000000)">
                <path d="M49.7008547,99.4017094 C77.1498291,99.4017094 99.4019658,77.1495726 99.4019658,49.7008547 C99.4019658,22.2521368 77.1498291,0 49.7008547,0 C22.2517949,0 -4.85841187e-14,22.2521368 -4.85841187e-14,49.7008547 C-4.85841187e-14,77.1495726 22.2517949,99.4017094 49.7008547,99.4017094 Z"
                      id="Path__International_icon" fill="none" fill-rule="nonzero"></path>
                <polygon id="Path__International_icon" fill="#234580" fill-rule="nonzero"
                         points="62.4182051 70.9401709 74.3840171 70.9401709 74.3840171 62.3931624 62.4182051 62.3931624"></polygon>
                <polygon id="Path__International_icon" stroke="#2079D4" fill="#2079D4" fill-rule="nonzero"
                         stroke-linecap="round" stroke-linejoin="round"
                         points="55.5805983 67.5213675 70.9652137 67.5213675 70.9652137 58.1196581 55.5805983 58.1196581"></polygon>
                <polygon id="Path__International_icon" fill="#234580" fill-rule="nonzero"
                         points="51.307094 49.5726496 63.272906 49.5726496 63.272906 40.1709402 51.307094 40.1709402"></polygon>
                <polygon id="Path__International_icon" stroke="#2079D4" fill="#2079D4" fill-rule="nonzero"
                         stroke-linecap="round" stroke-linejoin="round"
                         points="44.4694872 45.2991453 58.9994017 45.2991453 58.9994017 36.7521368 44.4694872 36.7521368"></polygon>
                <polygon id="Path__International_icon" fill="#234580" fill-rule="nonzero"
                         points="40.1959829 31.6239316 52.1617949 31.6239316 52.1617949 23.0769231 40.1959829 23.0769231"></polygon>
                <polygon id="Path__International_icon" stroke="#2079D4" fill="#2079D4" fill-rule="nonzero"
                         stroke-linecap="round" stroke-linejoin="round"
                         points="33.3583761 27.3504274 47.8882906 27.3504274 47.8882906 18.8034188 33.3583761 18.8034188"></polygon>
                <line x1="44.0421368" y1="77.7777778" x2="44.0421368" y2="34.1880342" id="Path__International_icon"
                      stroke="#2079D4" stroke-width="2" stroke-linecap="round" stroke-linejoin="round"></line>
                <line x1="32.5036752" y1="78.0181666" x2="32.9310256" y2="17.9487179" id="Path__International_icon"
                      stroke="#2079D4" stroke-width="2" stroke-linecap="round" stroke-linejoin="round"></line>
                <line x1="54.7258974" y1="77.7777778" x2="54.7258974" y2="56.5387147" id="Path__International_icon"
                      stroke="#2079D4" stroke-width="2" stroke-linecap="round" stroke-linejoin="round"></line>
                <line x1="28.2301709" y1="80.7692308" x2="81.2216239" y2="80.7692308" id="Path-6__International_icon"
                      stroke="#2079D4" stroke-linecap="round" stroke-linejoin="round" stroke-dasharray="0,2"></line>
                <line x1="23.1019658" y1="78.2051282" x2="76.0934188" y2="78.2051282" id="Path-6__International_icon"
                      stroke="#2079D4" stroke-width="2" stroke-linecap="round" stroke-linejoin="round"></line>
            </g>
        </g>
    </symbol>
    <symbol id="just" width="100px" height="100px" viewBox="0 0 100 100" xmlns="http://www.w3.org/2000/svg">
        <g id="Schema_icons__Justice_icon" stroke="none" stroke-width="1" fill="none" fill-rule="evenodd">
            <g id="Justice_icon__Justice_icon" transform="translate(-0.000000, 0.000000)">
                <path d="M49.7008547,99.4017094 C77.1498291,99.4017094 99.4019658,77.1495726 99.4019658,49.7008547 C99.4019658,22.2521368 77.1498291,0 49.7008547,0 C22.2517949,0 -4.85841187e-14,22.2521368 -4.85841187e-14,49.7008547 C-4.85841187e-14,77.1495726 22.2517949,99.4017094 49.7008547,99.4017094 Z"
                      id="Path__Justice_icon" fill="none" fill-rule="nonzero"></path>
                <polygon id="Path__Justice_icon" fill="#2079D4"
                         points="19.0421368 36.7521368 19.0421368 35.8974359 57.4780342 35.8974359 79.9908547 35.8974359 79.9908547 36.7521368"></polygon>
                <rect id="Rectangle__Justice_icon" stroke="#2079D4" fill="#2079D4" x="35.5677778" y="72.2948718"
                      width="28.0598291" height="2.41880342" rx="1"></rect>
                <rect id="Rectangle__Justice_icon" stroke="#2079D4" fill="#2079D4" x="39.8412821" y="68.1721971"
                      width="19.5128205" height="3.826546" rx="1"></rect>
                <rect id="Rectangle__Justice_icon" stroke="#2079D4" fill="#2079D4" x="48.3882906" y="25.4371543"
                      width="2.41880342" height="42.5897436" rx="1"></rect>
                <path d="M72.247265,70.351941 C78.6197813,70.351941 83.7857265,65.1859958 83.7857265,58.8134794 C83.7857265,55.8653204 60.7088034,55.3891222 60.7088034,58.8134794 C60.7088034,65.1859958 65.8747486,70.351941 72.247265,70.351941 Z"
                      id="Oval__Justice_icon" fill="#2079D4"></path>
                <line x1="61.5635043" y1="57.4033829" x2="71.1279258" y2="39.3162393" id="Path-11__Justice_icon"
                      stroke="#234580" stroke-linecap="round" stroke-linejoin="round" stroke-dasharray="0,2"></line>
                <line x1="73.5293162" y1="57.4033829" x2="83.0937378" y2="39.3162393" id="Path-11__Justice_icon"
                      stroke="#234580" stroke-linecap="round" stroke-linejoin="round" stroke-dasharray="0,2"
                      transform="translate(78.311527, 48.359811) scale(-1, 1) translate(-78.311527, -48.359811) "></line>
                <circle id="Oval__Justice_icon" fill="#234580" cx="71.8199145" cy="35.8974359" r="2.56410256"></circle>
                <circle id="Oval__Justice_icon" fill="#234580" cx="49.5976923" cy="23.0769231" r="4.27350427"></circle>
                <path d="M26.9481197,70.351941 C33.320636,70.351941 38.4865812,65.1859958 38.4865812,58.8134794 C38.4865812,55.8653204 15.4096581,55.3891222 15.4096581,58.8134794 C15.4096581,65.1859958 20.5756033,70.351941 26.9481197,70.351941 Z"
                      id="Oval__Justice_icon" fill="#2079D4"></path>
                <line x1="16.264359" y1="57.4033829" x2="25.8287805" y2="39.3162393" id="Path-11__Justice_icon"
                      stroke="#234580" stroke-linecap="round" stroke-linejoin="round" stroke-dasharray="0,2"></line>
                <line x1="28.2301709" y1="57.4033829" x2="37.7945925" y2="39.3162393" id="Path-11__Justice_icon"
                      stroke="#234580" stroke-linecap="round" stroke-linejoin="round" stroke-dasharray="0,2"
                      transform="translate(33.012382, 48.359811) scale(-1, 1) translate(-33.012382, -48.359811) "></line>
                <circle id="Oval__Justice_icon" fill="#234580" cx="26.5207692" cy="35.8974359" r="2.56410256"></circle>
            </g>
        </g>
    </symbol>
    <symbol id="soci" width="100px" height="100px" viewBox="0 0 100 111" xmlns="http://www.w3.org/2000/svg">
        <defs>
            <filter id="filter-1__People_society_icon">
                <feColorMatrix in="SourceGraphic" type="matrix"
                               values="0 0 0 0 0.125490 0 0 0 0 0.474510 0 0 0 0 0.831373 0 0 0 1.000000 0"></feColorMatrix>
            </filter>
            <rect id="path-2__People_society_icon" x="-1.94336475e-13" y="0.427350427" width="105.128205"
                  height="50.4273504"></rect>
            <filter id="filter-4__People_society_icon">
                <feColorMatrix in="SourceGraphic" type="matrix"
                               values="0 0 0 0 0.125490 0 0 0 0 0.474510 0 0 0 0 0.831373 0 0 0 1.000000 0"></feColorMatrix>
            </filter>
        </defs>
        <g id="Schema_icons__People_society_icon" stroke="none" stroke-width="1" fill="none" fill-rule="evenodd">
            <g id="People_society_icon__People_society_icon" transform="translate(0.029300, 0.000000)">
                <path d="M51.3852137,99.4017094 C78.834188,99.4017094 101.086325,77.1495726 101.086325,49.7008547 C101.086325,22.2521368 78.834188,0 51.3852137,0 C23.9361538,0 1.68435897,22.2521368 1.68435897,49.7008547 C1.68435897,77.1495726 23.9361538,99.4017094 51.3852137,99.4017094 Z"
                      id="Path__People_society_icon" fill="none" fill-rule="nonzero"></path>
                <g id="Group-19__People_society_icon" transform="translate(0.000000, 20.512821)">
                    <g filter="url(#filter-1__People_society_icon)" id="Group-18__People_society_icon">
                        <g transform="translate(55.555556, 2.564103)">
                            <path d="M17.9487179,5.12806913 C17.9487179,7.9603438 15.6526515,10.2564103 12.8203768,10.2564103 C9.98846481,10.2564103 7.69230769,7.9603438 7.69230769,5.12806913 C7.69230769,2.29615712 9.98837415,0 12.8203768,0 C15.6526515,0 17.9487179,2.29606645 17.9487179,5.12806913"
                                  id="Path__People_society_icon" fill="#0066CC" fill-rule="nonzero"></path>
                            <path d="M20.1367521,12.9411703 C19.7651641,12.3253224 19.0756811,11.965812 18.3858287,11.965812 L8.6761621,11.965812 C7.93336503,11.965812 7.29674138,12.3252949 6.92523862,12.9411703 L0.292952723,23.5664442 C-0.290707386,24.4901977 0.027585489,25.7222969 0.982824153,26.286925 C1.93768383,26.8515714 3.21127222,26.5436474 3.79491337,25.6195272 L7.61511005,19.4600398 L7.61511005,46.4081982 C7.61511005,47.6914439 8.67618105,48.7179487 10.0026382,48.7179487 C11.3290954,48.7179487 12.3901664,47.6914439 12.3901664,46.4081982 L12.3901664,30.7012716 L14.6186145,30.7012716 L14.6186145,46.4081982 C14.6186145,47.6914439 15.6796855,48.7179487 17.0061426,48.7179487 C18.3325998,48.7179487 19.3936708,47.6914439 19.3936708,46.4081982 L19.3940409,19.4600398 L20.1367521,12.9411703 Z"
                                  id="Path__People_society_icon" fill="#0066CC" fill-rule="nonzero"></path>
                            <path d="M27.3504274,11.965812 C26.6245415,11.965812 26.0024118,12.3276661 25.639367,12.9476038 L19.158078,23.6429627 C18.587706,24.5728094 18.8987523,25.8130356 19.8322431,26.381388 C20.7653636,26.9497588 22.0099563,26.6398038 22.5803097,25.7095881 L26.809628,19.5094723 L27.3504274,11.965812 Z"
                                  id="Path__People_society_icon" fill="#0066CC" fill-rule="nonzero"
                                  transform="translate(23.111111, 19.316239) scale(-1, 1) translate(-23.111111, -19.316239) "></path>
                        </g>
                    </g>
                    <g id="Group-14__People_society_icon"
                       transform="translate(52.564103, 26.068376) rotate(-180.000000) translate(-52.564103, -26.068376) translate(0.000000, 0.427350)">
                        <mask id="mask-3__People_society_icon" fill="white">
                            <!--                            <use xlink:href="#path-2__People_society_icon"></use>-->
                        </mask>
                        <g id="Rectangle__People_society_icon"></g>
                        <g id="Group-13__People_society_icon" mask="url(#mask-3__People_society_icon)">
                            <g transform="translate(14.529915, -38.034188)">
                                <g id="Group-9__People_society_icon" stroke="none" stroke-width="1" fill-rule="evenodd"
                                   transform="translate(4.372711, 4.375000)">
                                    <path d="M33.8974817,69.0277778 C52.2188709,69.0277778 67.0705586,53.5753605 67.0705586,34.5138889 C67.0705586,15.4524173 52.2188709,1.04027172e-13 33.8974817,1.04027172e-13 C15.5767021,1.04027172e-13 0.724404762,15.4524173 0.724404762,34.5138889 C0.724404762,53.5753605 15.5767021,69.0277778 33.8974817,69.0277778 Z"
                                          id="Path__People_society_icon" fill="#B0CCF5" fill-rule="nonzero"></path>
                                    <path d="M2.64748168,43.1045479 C2.64748168,38.9086041 8.80034689,35.6114371 20.3626405,44.6228017 C31.9249341,53.6341662 35.2304464,61.2143595 30.1297328,61.2143595 C25.0290191,61.2143595 25.7188728,65.1388889 19.3881776,65.1388889 C13.0574823,65.1388889 2.64748168,47.3004917 2.64748168,43.1045479 Z"
                                          id="Path-7__People_society_icon" fill="#0066CC"></path>
                                    <path d="M60.8035591,18.0577178 C63.449635,9.4027937 71.0681894,33.5942872 65.8461047,33.6282625 C60.62402,33.6622378 61.0813985,44.5117717 59.2795225,39.6264139 C57.4776465,34.7410561 58.1574833,26.7126419 60.8035591,18.0577178 Z"
                                          id="Path-7__People_society_icon" fill="#0066CC"
                                          transform="translate(62.953083, 28.538950) rotate(163.000000) translate(-62.953083, -28.538950) "></path>
                                    <path d="M2.6717796,23.3452897 C1.9595356,27.431814 17.1129829,22.4929311 20.8918359,23.3452897 C24.6706889,24.1976484 30.3347336,26.2623737 32.7964817,27.940805 C34.4376471,29.0597592 35.8963255,30.5956159 37.1725169,32.548375 L37.9437233,36.7267951 C36.7169609,39.1770034 36.2308326,41.395452 36.4853381,43.382141 C36.8670965,46.3621744 40.8480786,50.9179552 42.3558331,52.4759816 C43.8635876,54.034008 43.6906516,58.4836748 45.6293907,55.2223292 C47.5681299,51.9609835 47.3836222,46.6619703 47.7617565,43.382141 C48.1398908,40.1023117 49.8988575,39.1293647 47.7617565,36.7267951 C45.6246556,34.3242255 42.4989945,36.7995557 40.375245,35.0780839 C38.2514954,33.356612 37.5686235,34.7251559 37.9437233,28.76848 C38.318823,22.8118041 41.1741716,19.2411852 41.5327144,16.6971878 C41.8912572,14.1531904 40.8567972,9.7119746 34.8874936,6.66952123 C28.91819,3.62706786 30.6720524,-0.425518433 20.417416,3.69315686 C10.1627795,7.81183216 3.38402359,19.2587654 2.6717796,23.3452897 Z"
                                          id="Path-8__People_society_icon" fill="#0066CC"></path>
                                </g>
                                <path d="M38.4615385,73.4027778 C57.3139824,73.4027778 72.5961538,57.9503605 72.5961538,38.8888889 C72.5961538,19.8274173 57.3139824,4.375 38.4615385,4.375 C19.6097218,4.375 4.32692308,19.8274173 4.32692308,38.8888889 C4.32692308,57.9503605 19.6097218,73.4027778 38.4615385,73.4027778 Z"
                                      id="Path__People_society_icon" stroke="#234580" stroke-width="2"
                                      fill-rule="nonzero"></path>
                                <path d="M38.4615385,77.7777778 C59.7037288,77.7777778 76.9230769,60.3666034 76.9230769,38.8888889 C76.9230769,17.4111744 59.7037288,0 38.4615385,0 C17.2200548,0 0,17.4111744 0,38.8888889 C0,60.3666034 17.2200548,77.7777778 38.4615385,77.7777778 Z"
                                      id="Path__People_society_icon" stroke="#0066CC" stroke-width="1"
                                      stroke-linecap="round" stroke-linejoin="round" stroke-dasharray="0,3"
                                      fill-rule="nonzero"></path>
                            </g>
                        </g>
                    </g>
                    <g filter="url(#filter-4__People_society_icon)" id="Group-17__People_society_icon">
                        <g transform="translate(23.931624, 2.564103)">
                            <path d="M17.9487179,5.12806913 C17.9487179,7.9603438 15.6526515,10.2564103 12.8206488,10.2564103 C9.98837415,10.2564103 7.69230769,7.9603438 7.69230769,5.12806913 C7.69230769,2.29615712 9.98837415,0 12.8206488,0 C15.6525608,0 17.9487179,2.29606645 17.9487179,5.12806913"
                                  id="Path__People_society_icon" fill="#0066CC" fill-rule="nonzero"></path>
                            <path d="M18.1438774,11.965812 C18.8079555,11.965812 19.471678,12.3253224 19.8293827,12.9411703 L19.8293827,12.9411703 L26.2137353,23.5664809 C26.7755522,24.4902344 26.4691879,25.7223152 25.5496389,26.2869616 C25.2432563,26.4921251 24.8859164,26.5948856 24.5282117,26.5948856 C23.8641335,26.5948856 23.2004111,26.2353751 22.8427063,25.6195272 L22.8427063,25.6195272 L19.1652401,19.4600398 L19.1655963,24.7981584 L23.4558824,32.2408914 C24.1709453,33.4729905 23.2513963,35.0641235 21.8212706,35.0641235 L21.8212706,35.0641235 L19.0629885,35.0641235 L19.0629885,46.4080149 C19.0629885,47.6912605 18.0415613,48.7179487 16.7646633,48.7179487 C15.4877653,48.7179487 14.4663381,47.6912605 14.4663381,46.4080149 L14.4663381,46.4080149 L14.4663381,35.0641235 L12.3211494,35.0641235 L12.3207932,46.4080149 C12.3207932,47.6912605 11.299366,48.7179487 10.022468,48.7179487 C8.74556995,48.7179487 7.72414275,47.6912605 7.72414275,46.4080149 L7.72414275,46.4080149 L7.72485535,35.0641235 L5.0688163,35.0641235 C3.58740484,35.0641235 2.7191598,33.4728989 3.43420444,32.2408914 L3.43420444,32.2408914 L7.72449052,24.7981584 L7.72449052,19.4600398 L7.652,18.690812 L7.57525069,19.3162393 L3.70851483,25.7095881 C3.13816139,26.6398038 1.89356871,26.9497588 0.960448259,26.381388 C0.026957452,25.8130356 -0.28408887,24.5728094 0.286283087,23.6429627 L0.286283087,23.6429627 L6.76757216,12.9476038 C7.13061694,12.3276661 7.75274662,11.965812 8.47863248,11.965812 L8.47863248,11.965812 L8.47576479,11.9908052 C8.580066,11.974267 8.68732304,11.965812 8.79698397,11.965812 L8.79698397,11.965812 Z"
                                  id="Combined-Shape__People_society_icon" fill="#0066CC" fill-rule="nonzero"></path>
                        </g>
                    </g>
                </g>
            </g>
        </g>
    </symbol>
    <symbol id="regi" width="100px" height="100px" viewBox="0 0 100 100" xmlns="http://www.w3.org/2000/svg">
        <defs>
            <filter id="filter-1__Regions_cities_icon">
                <feColorMatrix in="SourceGraphic" type="matrix"
                               values="0 0 0 0 0.137255 0 0 0 0 0.270588 0 0 0 0 0.501961 0 0 0 1.000000 0"></feColorMatrix>
            </filter>
        </defs>
        <g id="Schema_icons__Regions_cities_icon" stroke="none" stroke-width="1" fill="none" fill-rule="evenodd">
            <g id="Regions_cities_icon__Regions_cities_icon">
                <path d="M49.7008547,99.4017094 C77.1498291,99.4017094 99.4019658,77.1495726 99.4019658,49.7008547 C99.4019658,22.2521368 77.1498291,0 49.7008547,0 C22.2517949,0 -4.85841187e-14,22.2521368 -4.85841187e-14,49.7008547 C-4.85841187e-14,77.1495726 22.2517949,99.4017094 49.7008547,99.4017094 Z"
                      id="Path__Regions_cities_icon" fill="none" fill-rule="nonzero"></path>
                <path d="M17.5464103,55.5555556 C20.6150093,55.5555556 23.1019658,53.2594575 23.1019658,50.4273504 C23.1019658,47.5952434 20.6150093,45.2991453 17.5464103,45.2991453 C14.4782943,45.2991453 11.9908547,47.5952434 11.9908547,50.4273504 C11.9908547,53.2594575 14.4782943,55.5555556 17.5464103,55.5555556 Z"
                      id="Path__Regions_cities_icon" fill="#2079D4" fill-rule="nonzero"></path>
                <path d="M29.5122222,61.5384615 C31.6362947,61.5384615 33.3583761,59.8163802 33.3583761,57.6923077 C33.3583761,55.5677656 31.6362947,53.8461538 29.5122222,53.8461538 C27.3881497,53.8461538 25.6660684,55.5677656 25.6660684,57.6923077 C25.6660684,59.8163802 27.3881497,61.5384615 29.5122222,61.5384615 Z"
                      id="Path__Regions_cities_icon" fill="#2079D4" fill-rule="nonzero"></path>
                <path d="M24.3840171,51.2820513 C28.3963775,51.2820513 31.6489744,48.0294544 31.6489744,44.017094 C31.6489744,40.0047336 28.3963775,36.7521368 24.3840171,36.7521368 C20.3716567,36.7521368 17.1190598,40.0047336 17.1190598,44.017094 C17.1190598,48.0294544 20.3716567,51.2820513 24.3840171,51.2820513 Z"
                      id="Path__Regions_cities_icon" fill="#2079D4" fill-rule="nonzero"></path>
                <polyline id="Path__Regions_cities_icon" stroke="#2079D4" stroke-width="0.83"
                          points="24.3840171 70.0854701 24.3840171 44.4444444 24.3840171 51.8344743"></polyline>
                <line x1="17.1190598" y1="50.4273504" x2="23.9566667" y2="60.6837607" id="Path__Regions_cities_icon"
                      stroke="#2079D4" stroke-width="0.83"></line>
                <line x1="24.8113675" y1="64.1025641" x2="29.9395726" y2="57.2649573" id="Path__Regions_cities_icon"
                      stroke="#2079D4" stroke-width="0.83"></line>
                <line x1="24.3840171" y1="43.5897436" x2="24.3840171" y2="51.2820513" id="Path__Regions_cities_icon"
                      stroke="#FFFFFF" stroke-width="0.83"></line>
                <line x1="17.1190598" y1="49.5726496" x2="20.5378632" y2="53.8461538" id="Path__Regions_cities_icon"
                      stroke="#FFFFFF" stroke-width="0.83"></line>
                <line x1="29.9395726" y1="58.1196581" x2="28.2301709" y2="60.6837607" id="Path__Regions_cities_icon"
                      stroke="#FFFFFF" stroke-width="0.83"></line>
                <polygon id="Path__Regions_cities_icon" fill="#234580" fill-rule="nonzero"
                         points="50.4523932 29.0598291 47.0335897 29.0598291 47.0335897 31.6239316 50.4523932 31.6239316"></polygon>
                <polygon id="Path__Regions_cities_icon" stroke="#2079D4" stroke-width="0.83" fill="#2079D4"
                         fill-rule="nonzero"
                         points="48.7429915 28.2051282 45.324188 28.2051282 45.324188 30.7692308 48.7429915 30.7692308"></polygon>
                <line x1="44.8968376" y1="35.042735" x2="44.8968376" y2="27.3504274" id="Path__Regions_cities_icon"
                      stroke="#2079D4" stroke-width="0.83"></line>
                <path d="M44.4694872,35.0442256 L53.9516551,44.4387661 L67.9687068,44.4387661 C67.9687068,44.4387661 79.522412,44.4515424 79.5122222,44.4387661 L70.9193469,35.0442256 C53.283859,35.0422382 44.467239,35.0422382 44.4694872,35.0442256 Z"
                      id="Path__Regions_cities_icon" fill="#2079D4" fill-rule="nonzero"></path>
                <polyline id="Path__Regions_cities_icon" fill="#2079D4" fill-rule="nonzero"
                          points="53.8711966 44.4444444 79.5122222 44.4444444 79.5122222 69.2307692 53.8711966 69.2307692"></polyline>
                <polygon id="Path__Regions_cities_icon" fill="#234580" fill-rule="nonzero"
                         points="44.4694872 69.2307692 53.8711966 69.2307692 53.8711966 44.210932 44.4694872 35.042735 35.0677778 44.210932 35.0677778 69.2307692"></polygon>
                <polygon id="Path__Regions_cities_icon" fill="#FFFFFF"
                         points="60.7088034 47.008547 56.4352991 47.008547 56.4352991 51.2820513 60.7088034 51.2820513"></polygon>
                <polygon id="Path__Regions_cities_icon" fill="#FFFFFF"
                         points="68.4011111 47.008547 64.1276068 47.008547 64.1276068 51.2820513 68.4011111 51.2820513"></polygon>
                <polygon id="Path__Regions_cities_icon" fill="#FFFFFF"
                         points="60.7088034 53.8461538 56.4352991 53.8461538 56.4352991 58.1196581 60.7088034 58.1196581"></polygon>
                <polygon id="Path__Regions_cities_icon" fill="#FFFFFF"
                         points="68.4011111 53.8461538 64.1276068 53.8461538 64.1276068 58.1196581 68.4011111 58.1196581"></polygon>
                <polygon id="Path__Regions_cities_icon" fill="#FFFFFF"
                         points="73.5293162 47.008547 69.255812 47.008547 69.255812 51.2820513 73.5293162 51.2820513"></polygon>
                <polygon id="Path__Regions_cities_icon" fill="#FFFFFF"
                         points="73.5293162 53.8461538 69.255812 53.8461538 69.255812 58.1196581 73.5293162 58.1196581"></polygon>
                <path d="M44.4694872,47.8632479 C46.3577003,47.8632479 47.8882906,46.1413772 47.8882906,44.017094 C47.8882906,41.8933052 46.3577003,40.1709402 44.4694872,40.1709402 C42.5812741,40.1709402 41.0506838,41.8933052 41.0506838,44.017094 C41.0506838,46.1413772 42.5812741,47.8632479 44.4694872,47.8632479 Z"
                      id="Path__Regions_cities_icon" fill="#2079D4"></path>
                <polyline id="Path__Regions_cities_icon" stroke="#FFFFFF" stroke-width="0.83"
                          points="44.4694872 41.8803419 44.4694872 43.5897436 46.1788889 43.5897436"></polyline>
                <g filter="url(#filter-1__Regions_cities_icon)" id="Group-15__Regions_cities_icon">
                    <g transform="translate(70.110513, 57.264957)">
                        <path d="M15.3846154,11.1111111 C17.2731431,11.1111111 18.8034188,9.77169857 18.8034188,8.11965812 C18.8034188,6.46719634 17.2731431,5.12820513 15.3846154,5.12820513 C13.4965692,5.12820513 11.965812,6.46719634 11.965812,8.11965812 C11.965812,9.77169857 13.4965692,11.1111111 15.3846154,11.1111111 Z"
                              id="Path__Regions_cities_icon" stroke="#5A5A5A" stroke-width="0.83" fill="#FFFFFF"
                              fill-rule="nonzero"></path>
                        <path d="M4.27350427,11.1111111 C6.1616468,11.1111111 7.69230769,9.77169857 7.69230769,8.11965812 C7.69230769,6.46719634 6.1616468,5.12820513 4.27350427,5.12820513 C2.38531359,5.12820513 0.854700855,6.46719634 0.854700855,8.11965812 C0.854700855,9.77169857 2.38531359,11.1111111 4.27350427,11.1111111 Z"
                              id="Path__Regions_cities_icon" stroke="#5A5A5A" stroke-width="0.83"></path>
                        <path d="M9.82688517,7.69230769 L12.6056358,2.56410256 L15.3846154,7.69230769 L9.82688517,7.69230769 Z M9.82688517,7.69230769 L7.05248383,2.56410256 L4.27350427,7.69230769"
                              id="Shape__Regions_cities_icon" stroke="#5A5A5A" stroke-width="0.83"></path>
                        <line x1="12.8205128" y1="2.56410256" x2="13.6752137" y2="0.854700855"
                              id="Path__Regions_cities_icon" stroke="#5A5A5A" stroke-width="0.83"></line>
                        <path d="M6.83455102,2.56410256 L7.69230769,0.854700855 L6.16738392,0.854700855 C6.13352619,0.854269107 6.10008288,0.864088041 6.07107382,0.882833279 C6.04206475,0.902024831 6.0185674,0.928803742 6.00310972,0.96138475 C5.98761059,0.993519443 5.98081417,1.03011729 5.98346643,1.06626882 C5.98611869,1.10286666 5.99805385,1.13767925 6.01807011,1.16713605 L6.37459154,1.71164057"
                              id="Path__Regions_cities_icon" stroke="#5A5A5A" stroke-width="0.83"></path>
                        <line x1="12.8205128" y1="2.99145299" x2="6.83760684" y2="2.99145299"
                              id="Path__Regions_cities_icon" stroke="#5A5A5A" stroke-width="0.83"></line>
                        <line x1="15.3846154" y1="1.28205128" x2="12.8205128" y2="1.28205128"
                              id="Path__Regions_cities_icon" stroke="#5A5A5A" stroke-width="0.83"></line>
                        <path d="M9.40161229,8.54700855 C9.87378085,8.54700855 10.2564103,8.16433566 10.2564103,7.69230769 C10.2564103,7.22027972 9.87378085,6.83760684 9.40161229,6.83760684 C8.92963795,6.83760684 8.54700855,7.22027972 8.54700855,7.69230769 C8.54700855,8.16433566 8.92963795,8.54700855 9.40161229,8.54700855 Z"
                              id="Path__Regions_cities_icon" stroke="#5A5A5A" stroke-width="0.83" fill="#FFFFFF"
                              fill-rule="nonzero"></path>
                        <path d="M4.27350427,8.54700855 C4.74553225,8.54700855 5.12820513,8.16433566 5.12820513,7.69230769 C5.12820513,7.22027972 4.74553225,6.83760684 4.27350427,6.83760684 C3.8014763,6.83760684 3.41880342,7.22027972 3.41880342,7.69230769 C3.41880342,8.16433566 3.8014763,8.54700855 4.27350427,8.54700855 Z"
                              id="Path__Regions_cities_icon" stroke="#5A5A5A" stroke-width="0.83" fill="#FFFFFF"
                              fill-rule="nonzero"></path>
                    </g>
                </g>
                <line x1="35.0677778" y1="72.2222222" x2="86.3498291" y2="72.2222222" id="Path-6__Regions_cities_icon"
                      stroke="#2079D4" stroke-linecap="round" stroke-linejoin="round" stroke-dasharray="0,2"></line>
                <polygon id="Path__Regions_cities_icon" stroke="#2079D4" fill="#2079D4" stroke-linecap="round"
                         stroke-linejoin="round"
                         points="11.1361538 70.1555266 11.1361538 69.1607128 55.8729297 69.1607128 82.0763248 69.1607128 82.0763248 70.1555266"></polygon>
            </g>
        </g>
    </symbol>
    <symbol id="tech" width="100px" height="100px" viewBox="0 0 100 100" xmlns="http://www.w3.org/2000/svg">
        <g id="Schema_icons__Science_icon" stroke="none" stroke-width="1" fill="none" fill-rule="evenodd">
            <g id="Science_icon__Science_icon" transform="translate(-0.000000, 0.000000)">
                <path d="M49.7008547,99.4017094 C77.1498291,99.4017094 99.4019658,77.1495726 99.4019658,49.7008547 C99.4019658,22.2521368 77.1498291,0 49.7008547,0 C22.2517949,0 -4.85841187e-14,22.2521368 -4.85841187e-14,49.7008547 C-4.85841187e-14,77.1495726 22.2517949,99.4017094 49.7008547,99.4017094 Z"
                      id="Path__Science_icon" fill="none" fill-rule="nonzero"></path>
                <ellipse id="Oval__Science_icon" stroke="#2079D4" cx="49.7911094" cy="49.5726496" rx="10.6111111"
                         ry="30.2692308"></ellipse>
                <path d="M23.026718,64.73393 C26.0975827,70.0372868 40.3785053,67.5485704 54.9240514,59.1752264 C69.4695974,50.8018824 78.7716646,39.7147258 75.7007999,34.4113691 C72.6299352,29.1080124 58.3490126,31.5967287 43.8034665,39.9700727 C29.2579204,48.3434167 19.9558533,59.4305733 23.026718,64.73393 Z"
                      id="Oval__Science_icon" stroke="#234580" stroke-linecap="round" stroke-linejoin="round"
                      stroke-dasharray="0,2"></path>
                <path d="M27.246413,32.3774126 C29.212579,31.9807557 31.7183431,32.054698 34.5865386,32.5545344 C40.3128087,33.5524435 47.4603106,36.2503967 54.6745997,40.4034015 C61.8887435,44.5563228 67.8057281,49.3790478 71.5355377,53.8246169 C73.4034649,56.0510039 74.7204049,58.1773613 75.3588647,60.073163 C75.9331629,61.7784474 75.9587584,63.2906279 75.2681044,64.4833813 C74.5771226,65.6767009 73.2503024,66.4109663 71.4811049,66.7678865 C69.5149388,67.1645434 67.0091747,67.0906011 64.1409793,66.5907647 C58.4147092,65.5928556 51.2672072,62.8949025 44.0529182,58.7418976 C36.8387743,54.5889763 30.9217897,49.7662514 27.1919802,45.3206823 C25.3240529,43.0942952 24.0071129,40.9679378 23.3686531,39.0721361 C22.794355,37.3668518 22.7687594,35.8546712 23.4594134,34.6619178 C24.1503952,33.4685982 25.4772155,32.7343329 27.246413,32.3774126 Z"
                      id="Oval__Science_icon" stroke="#2079D4"></path>
                <ellipse id="Oval__Science_icon" fill="#2079D4" cx="26.7141863" cy="44.017094" rx="3.41880342"
                         ry="2.99145299"></ellipse>
                <circle id="Oval__Science_icon" fill="#2079D4" cx="64.3210239" cy="32.4786325" r="3.41880342"></circle>
                <circle id="Oval__Science_icon" fill="#2079D4" cx="49.7911094" cy="49.5726496" r="3.41880342"></circle>
                <ellipse id="Oval__Science_icon" fill="#2079D4" cx="57.483417" cy="71.3675214" rx="3.41880342"
                         ry="2.99145299"></ellipse>
            </g>
        </g>
    </symbol>
    <symbol id="tran" width="100px" height="100px" viewBox="0 0 100 100" xmlns="http://www.w3.org/2000/svg">
        <g id="Schema_icons__Transportation_icon" stroke="none" stroke-width="1" fill="none" fill-rule="evenodd">
            <g id="Transportation_icon__Transportation_icon" transform="translate(-0.000000, 0.000000)">
                <path d="M49.7008547,99.4017094 C77.1498291,99.4017094 99.4019658,77.1495726 99.4019658,49.7008547 C99.4019658,22.2521368 77.1498291,6.07301484e-15 49.7008547,6.07301484e-15 C22.2517949,6.07301484e-15 -4.85841187e-14,22.2521368 -4.85841187e-14,49.7008547 C-4.85841187e-14,77.1495726 22.2517949,99.4017094 49.7008547,99.4017094 Z"
                      id="Path__Transportation_icon" fill="none" fill-rule="nonzero"></path>
                <line x1="18.9331016" y1="61.3323013" x2="30.3003482" y2="72.1556474" id="Path-6__Transportation_icon"
                      stroke="#234580" stroke-linecap="round" stroke-linejoin="round" stroke-dasharray="0,2"
                      transform="translate(24.811368, 66.666667) scale(-1, 1) translate(-24.811368, -66.666667) "></line>
                <line x1="24.9160075" y1="69.0246089" x2="36.2832542" y2="79.8479551" id="Path-6__Transportation_icon"
                      stroke="#234580" stroke-linecap="round" stroke-linejoin="round" stroke-dasharray="0,2"
                      transform="translate(30.794274, 74.358974) scale(-1, 1) translate(-30.794274, -74.358974) "></line>
                <line x1="23.2066058" y1="63.8964038" x2="34.5738525" y2="74.7197499" id="Path-6__Transportation_icon"
                      stroke="#234580" stroke-linecap="round" stroke-linejoin="round" stroke-dasharray="0,2"
                      transform="translate(29.084872, 69.230769) scale(-1, 1) translate(-29.084872, -69.230769) "></line>
                <path d="M41.1051906,51.1887662 C37.6214767,51.1887662 34.7965148,55.8650568 34.7965148,61.6318346 C34.7965148,62.3454756 34.8409592,63.0585098 34.9292393,63.7660824 L47.2823595,63.7660824 C47.3712484,63.0585098 47.4156929,62.3454756 47.4150902,61.6318346 C47.4150902,55.8650568 44.5907309,51.1887662 41.1051906,51.1887662 Z"
                      id="Path__Transportation_icon" fill="#234580" fill-rule="nonzero"
                      transform="translate(41.105802, 57.477424) rotate(-315.000000) translate(-41.105802, -57.477424) "></path>
                <path d="M39.9456008,50.0270425 C37.367823,50.0270425 35.2777165,54.7033331 35.2777165,60.4701108 C35.2777165,61.201957 35.3118109,61.9168117 35.375129,62.6043587 L44.5130285,62.6043587 C44.5763466,61.9168117 44.610441,61.201957 44.610441,60.4701108 C44.610441,54.7033331 42.5215521,50.0270425 39.9456008,50.0270425 Z"
                      id="Path__Transportation_icon" fill="#2079D4" fill-rule="nonzero"
                      transform="translate(39.944079, 56.315701) rotate(-315.000000) translate(-39.944079, -56.315701) "></path>
                <path d="M50.5924559,21.0191476 C50.5924559,32.1467288 44.871908,41.8294296 36.432943,46.846763 C36.1796706,47.0810023 35.9300511,47.3103869 35.6877375,47.5318826 C34.128529,48.9500621 34.6362916,55.654404 34.6362916,55.654404 L50.6722124,55.654404 L50.6722124,16.8750536 C50.6624712,17.6190365 50.6137649,18.3618057 50.5273113,19.1009339 C50.5650587,19.7362929 50.5924559,20.3740792 50.5924559,21.0191476 Z"
                      id="Path__Transportation_icon" fill="#2079D4" fill-rule="nonzero"
                      transform="translate(42.614757, 36.264729) rotate(-315.000000) translate(-42.614757, -36.264729) "></path>
                <path d="M44.5389353,31.6820942 C41.9605487,38.1758634 37.17029,43.5566925 31.0083417,46.8815557 C30.7307162,47.1170087 30.4573524,47.3470002 30.1919034,47.5684959 C29.1501987,48.4326327 28.9492854,51.2556412 28.9510996,53.3322395 L44.5389353,53.3322395 L44.5389353,31.6820942 Z"
                      id="Path__Transportation_icon" fill="#2079D4" fill-rule="nonzero"
                      transform="translate(36.745017, 42.507167) rotate(-315.000000) translate(-36.745017, -42.507167) "></path>
                <path d="M27.1276029,51.5314671 C26.8615451,51.7426466 26.6478464,52.0114756 26.5023365,52.3179286 L41.307816,52.3179286 L41.307816,39.4827064 C38.0183183,44.4096209 33.4338434,48.340715 28.0548479,50.8463474 C27.7400839,51.0811936 27.4301904,51.3105782 27.1276029,51.5314671 Z"
                      id="Path__Transportation_icon" fill="#B0CCF5" fill-rule="nonzero"
                      transform="translate(33.905076, 45.900318) rotate(-315.000000) translate(-33.905076, -45.900318) "></path>
                <path d="M54.3432603,40.7234173 C54.3432603,51.8509985 60.0625906,61.5330925 68.5021644,66.5504259 C68.7542192,66.785272 69.0038387,67.0140498 69.2467611,67.2361524 C70.8053608,68.6543319 70.2975982,75.3586737 70.2975982,75.3586737 L54.2616773,75.3586737 L54.2616773,36.5787165 C54.2720274,37.3226994 54.3207337,38.0660754 54.4065784,38.8052037 C54.3700487,39.4405626 54.3432603,40.078349 54.3432603,40.7234173 Z"
                      id="Path__Transportation_icon" fill="#2079D4" fill-rule="nonzero"
                      transform="translate(62.319152, 55.968695) rotate(-315.000000) translate(-62.319152, -55.968695) "></path>
                <path d="M48.2829091,51.0133466 C50.8619046,57.5071158 55.6521633,62.8885517 61.8135028,66.213415 C62.0917372,66.4488679 62.3663186,66.6788594 62.6299411,66.9003551 C63.6734723,67.763885 63.8725591,70.5875004 63.871347,72.6634919 L48.2829091,72.6634919 L48.2829091,51.0133466 Z"
                      id="Path__Transportation_icon" fill="#2079D4" fill-rule="nonzero"
                      transform="translate(56.077128, 61.838419) rotate(-315.000000) translate(-56.077128, -61.838419) "></path>
                <path d="M59.4627969,70.3099429 C59.7276371,70.5223361 59.9413357,70.7911651 60.0880633,71.0964045 L45.2807573,71.0964045 L45.2807573,58.2611822 C48.5708639,63.1874899 53.1553388,67.1185839 58.5337254,69.6254301 C58.8484894,69.8602763 59.1596005,70.0896609 59.4627969,70.3099429 Z"
                      id="Path__Transportation_icon" fill="#B0CCF5" fill-rule="nonzero"
                      transform="translate(52.684410, 64.678793) rotate(-315.000000) translate(-52.684410, -64.678793) "></path>
                <path d="M65.4145165,68.2664131 L65.4145165,28.1769003 C65.4145165,24.5073533 62.6778346,12.6018063 59.1289762,10.641114 C55.5819442,12.6018063 52.8452623,24.5073533 52.8452623,28.1769003 L52.8452623,68.2664131 L65.4145165,68.2664131 Z"
                      id="Path__Transportation_icon" fill="#2079D4" fill-rule="nonzero"
                      transform="translate(59.129889, 39.453764) rotate(-315.000000) translate(-59.129889, -39.453764) "></path>
                <path d="M58.2249958,12.8249855 C58.1896837,12.8444043 58.1555894,12.871712 58.1184509,12.8947719 L58.1184509,70.4508915 L64.5105361,70.4508915 L64.5105361,30.3613787 C64.5105361,26.6918317 61.7738542,14.7862847 58.2249958,12.8249855 Z"
                      id="Path__Transportation_icon" fill="#234580" fill-rule="nonzero"
                      transform="translate(61.314493, 41.637939) rotate(-315.000000) translate(-61.314493, -41.637939) "></path>
                <path d="M72.1184314,26.0676248 L81.100471,26.0676248 C79.9723127,22.3640949 78.3930128,18.8656761 76.6091468,17.8807787 C74.8258895,18.8656761 73.2484162,22.3640949 72.1184314,26.0676248 Z"
                      id="Path__Transportation_icon" fill="#2079D4" fill-rule="nonzero"
                      transform="translate(76.609451, 21.974202) rotate(-315.000000) translate(-76.609451, -21.974202) "></path>
                <path d="M75.8604658,27.6178784 L80.4589437,27.6178784 C79.3307854,23.9143485 77.7514856,20.4159297 75.9670107,19.4310323 C75.9316987,19.4504511 75.8976043,19.4777588 75.8604658,19.5008186 L75.8604658,27.6178784 Z"
                      id="Path__Transportation_icon" fill="#234580" fill-rule="nonzero"
                      transform="translate(78.159705, 23.524455) rotate(-315.000000) translate(-78.159705, -23.524455) "></path>
                <path d="M73.7875032,29.9080188 C73.5293601,30.494224 72.6745656,30.2727282 71.6718258,29.90013 C70.5229674,29.4522838 69.2468639,29.4522838 68.0980054,29.90013 C67.0964834,30.2715146 66.24108,30.494224 65.9835458,29.9080188 C65.7174879,29.3375915 66.3433631,27.9540018 67.6474727,27.4497197 C69.0867421,26.8902154 70.6843068,26.8902154 72.1235762,27.4497197 C73.4282946,27.9497539 74.0517345,29.3345573 73.7875032,29.9080188 Z"
                      id="Path__Transportation_icon" fill="#FFFFFF" fill-rule="nonzero"
                      transform="translate(69.885243, 28.649365) rotate(-315.000000) translate(-69.885243, -28.649365) "></path>
                <path d="M32.0438925,42.1274651 C30.5193872,42.1274651 29.284684,46.8037557 29.284684,52.5705334 C29.284684,53.3017728 29.3041665,54.0172343 29.341305,54.7047813 L34.7470889,54.7047813 C34.785445,54.0172343 34.8043187,53.3017728 34.8043187,52.5705334 C34.8043187,46.8037557 33.5690067,42.1274651 32.0438925,42.1274651 Z"
                      id="Path__Transportation_icon" fill="#2079D4" fill-rule="nonzero"
                      transform="translate(32.044501, 48.416123) rotate(-315.000000) translate(-32.044501, -48.416123) "></path>
                <path d="M31.8029062,42.7077877 C31.4047327,42.7077877 31.0290858,43.0324458 30.6863156,43.6046937 C31.9392837,44.2867792 32.9042761,48.3550185 32.9042761,53.2849672 C32.9042761,53.9706937 32.8860112,54.6376082 32.8500904,55.2851039 L34.5061025,55.2851039 C34.5450675,54.5975569 34.5633324,53.8820954 34.5633324,53.1508561 C34.5633324,47.3840783 33.3286292,42.7077877 31.8029062,42.7077877 Z"
                      id="Path__Transportation_icon" fill="#234580" fill-rule="nonzero"
                      transform="translate(32.624824, 48.996446) rotate(-315.000000) translate(-32.624824, -48.996446) "></path>
                <path d="M50.1675298,60.2504935 C48.6442421,60.2504935 47.4077124,64.9267841 47.4077124,70.6935618 C47.4077124,71.4248012 47.4271949,72.1402627 47.4649422,72.8278097 L52.8707261,72.8278097 C52.9090823,72.1402627 52.9273471,71.4248012 52.9273471,70.6935618 C52.9273471,64.9267841 51.6926439,60.2504935 50.1675298,60.2504935 Z"
                      id="Path__Transportation_icon" fill="#2079D4" fill-rule="nonzero"
                      transform="translate(50.167530, 66.539152) rotate(-315.000000) translate(-50.167530, -66.539152) "></path>
                <path d="M49.9268848,60.8314619 C49.5299289,60.8314619 49.1518467,61.15612 48.8102942,61.7283679 C50.0638711,62.4104533 51.027037,66.4786926 51.027037,71.4086414 C51.027037,72.0943679 51.009381,72.7612824 50.9728513,73.4087781 L52.6294723,73.4087781 C52.6678285,72.7212311 52.6867021,72.0057696 52.6867021,71.2745302 C52.6867021,65.5077525 51.4513901,60.8314619 49.9268848,60.8314619 Z"
                      id="Path__Transportation_icon" fill="#234580" fill-rule="nonzero"
                      transform="translate(50.748498, 67.120120) rotate(-315.000000) translate(-50.748498, -67.120120) "></path>
            </g>
        </g>
    </symbol>
</svg>