<svg width="276" height="56" version="1.1" id="Livello_1" xmlns="http://www.w3.org/2000/svg" xmlns:xlink="http://www.w3.org/1999/xlink" x="0px" y="0px"
	 viewBox="380 438 1165 210" style="enable-background:new 0 0 1920 1080;" xml:space="preserve">
<style type="text/css">
	.st0{fill:#0066CC;}
	.st1{fill-rule:evenodd;clip-rule:evenodd;fill:#FFFFFF;}
	.st2{fill:#FFFFFF;}
	
		.st3{clip-path:url(#SVGID_00000003062467749435123990000013362352958020828821_);fill-rule:evenodd;clip-rule:evenodd;fill:#0066CC;}
</style>
<g>
	<g>
		<g>
			<path class="st0" d="M827.64,497.64c3.84,0,6.99-0.45,9.47-1.37c2.47-0.92,4.36-2.39,5.66-4.42c1.3-2.02,2.18-4.33,2.65-6.9
				c0.47-2.58,0.7-5.83,0.7-9.75s-0.26-7.11-0.77-9.56c-0.51-2.45-1.44-4.58-2.78-6.39s-3.23-3.11-5.66-3.9
				c-2.43-0.79-5.52-1.19-9.28-1.19h-14.64v43.48H827.64z M827.64,489.97h-5.82v-28.14h5.82c2.14,0,3.83,0.23,5.09,0.68
				c1.26,0.45,2.2,1.27,2.85,2.46c0.64,1.19,1.05,2.52,1.21,3.97c0.17,1.45,0.25,3.38,0.25,5.78c0,2.41-0.04,4.3-0.12,5.66
				c-0.3,3.45-1.07,5.84-2.3,7.16C833.16,489.16,830.83,489.97,827.64,489.97 M862.61,454.16h-8.83v43.48h8.83V454.16z
				 M880.9,497.64v-12.66h7.17c5.07,0,8.92-1.36,11.54-4.06c2.62-2.71,3.93-6.6,3.93-11.67c0-10.06-5.16-15.09-15.48-15.09h-15.99
				v43.48H880.9z M888.01,477.44h-7.1v-15.73h7.1c2.25,0,3.92,0.59,4.98,1.76c1.07,1.17,1.6,3.1,1.6,5.79
				C894.59,474.71,892.4,477.44,888.01,477.44 M914.92,497.64l1.73-7.86h15.22l1.72,7.86h8.83l-9.79-43.48h-16.75l-9.79,43.48
				H914.92z M930.21,482.1h-11.89l4.41-20.65h3.07L930.21,482.1z M957.07,497.64v-14.58h8.5l5.05,14.58h9.65l-6.2-16.63
				c4.27-2.68,6.39-6.86,6.39-12.53c0-9.55-5.11-14.33-15.35-14.33h-16.88v43.48H957.07z M965.26,475.52h-8.19v-13.81h8.06
				c2.05,0,3.61,0.62,4.7,1.85c1.09,1.23,1.63,2.9,1.63,4.99c0,2.09-0.51,3.77-1.54,5.05C968.9,474.88,967.34,475.52,965.26,475.52
				 M1004.45,497.64v-35.68h11.51v-7.8h-31.97v7.8h11.64v35.68H1004.45z M1030.36,454.16h-8.83v43.48h8.83V454.16z M1048.64,497.64
				v-33.64h0.96l8.5,31.72h8.83l8.5-31.72h0.96v33.64h8.83v-43.48h-15.03l-7.68,31.72l-7.67-31.72h-15.03v43.48H1048.64z
				 M1122.82,497.64v-7.67h-19.31v-10.43h15.47V472h-15.47v-10.17h19.31v-7.67h-28.14v43.48H1122.82z M1138.94,497.64v-35.81h0.64
				l10.87,35.81h14.52v-43.48h-8.83v35.81h-0.64l-10.49-35.81h-14.9v43.48H1138.94z M1190.99,497.64v-35.68h11.51v-7.8h-31.97v7.8
				h11.64v35.68H1190.99z M1224.18,498.41c6.61,0,11.25-1.79,13.94-5.38c2.73-3.62,4.09-9.28,4.09-16.95
				c0-7.68-1.36-13.38-4.06-17.1c-2.71-3.73-7.37-5.6-13.98-5.6c-6.61,0-11.27,1.86-13.97,5.6c-2.71,3.73-4.06,9.43-4.06,17.1
				c0,7.67,1.35,13.31,4.06,16.91C1212.91,496.61,1217.57,498.41,1224.18,498.41 M1224.18,490.74c-3.45,0-5.82-1.11-7.1-3.33
				c-1.24-2.25-1.85-6.02-1.85-11.28c0-5.27,0.64-9.1,1.92-11.48c1.28-2.39,3.62-3.58,7.04-3.58s5.75,1.19,7.04,3.58
				c1.27,2.38,1.92,6.21,1.92,11.48c0,5.26-0.63,9.01-1.89,11.25C1229.99,489.62,1227.63,490.74,1224.18,490.74 M817.79,561.59
				v-15.48h12.28c9.21,0,13.81-4.96,13.81-14.9c0-4.78-1.12-8.31-3.36-10.61c-2.24-2.3-5.72-3.45-10.45-3.45h-16.24v44.44H817.79z
				 M830.07,542.6h-12.28v-21.93h12.28c3.41,0,5.88,0.85,7.41,2.56c1.54,1.71,2.3,4.37,2.3,7.99
				C839.78,538.8,836.55,542.6,830.07,542.6 M878.42,561.59v-3.51h-22.71v-17.33h18.87v-3.52h-18.87v-16.5h22.71v-3.58h-26.67v44.44
				H878.42z M891.01,561.59v-17.52h13.55l8.76,17.52h4.42l-9.14-18.29c5.71-1.54,8.57-5.86,8.57-12.98c0-4.56-1.14-7.9-3.42-10.01
				c-2.28-2.11-5.75-3.16-10.39-3.16h-16.31v44.44H891.01z M903.35,540.55h-12.34v-19.89h12.34c3.32,0,5.77,0.79,7.35,2.36
				c1.58,1.58,2.36,4.03,2.36,7.36C913.07,537.16,909.83,540.55,903.35,540.55 M964.74,561.59v-3.58H944.4v-40.86h-3.96v44.44
				H964.74z M971.13,561.59l3.52-12.28h19.83l3.58,12.28h3.9l-12.72-44.44h-9.28l-12.79,44.44H971.13z M993.52,545.8h-17.9
				l7.23-25.19h3.45L993.52,545.8z M1036.49,561.59v-40.86h13.94v-3.58h-31.97v3.58h14.06v40.86H1036.49z M1060.79,561.59v-17.52
				h13.55l8.76,17.52h4.42l-9.14-18.29c5.71-1.54,8.57-5.86,8.57-12.98c0-4.56-1.14-7.9-3.42-10.01c-2.28-2.11-5.75-3.16-10.39-3.16
				h-16.31v44.44H1060.79z M1073.14,540.55h-12.34v-19.89h12.34c3.32,0,5.77,0.79,7.35,2.36s2.36,4.03,2.36,7.36
				C1082.85,537.16,1079.61,540.55,1073.14,540.55 M1096.16,561.59l3.51-12.28h19.83l3.58,12.28h3.9l-12.72-44.44h-9.28
				l-12.79,44.44H1096.16z M1118.54,545.8h-17.91l7.23-25.19h3.45L1118.54,545.8z M1146.04,562.1c4.56,0,8.03-1.05,10.39-3.16
				c2.36-2.11,3.55-5.55,3.55-10.33c0-3.71-0.97-6.35-2.91-7.92c-1.94-1.58-5.18-2.82-9.72-3.71c-4.54-0.9-7.59-1.87-9.14-2.94
				c-1.56-1.06-2.34-3.13-2.34-6.2c0-5.24,3.43-7.86,10.3-7.86c2.47,0,6.66,0.36,12.53,1.09l0.32-3.39l-2.12-0.32
				c-4.51-0.59-8.18-0.9-11-0.9c-9.38,0-14.06,3.88-14.06,11.64c0,2.18,0.28,3.98,0.83,5.41c0.56,1.43,1.48,2.6,2.78,3.51
				s2.69,1.62,4.19,2.11c1.49,0.49,3.84,1.03,7.06,1.63c3.22,0.59,5.57,1.44,7.04,2.52c1.47,1.09,2.21,3.14,2.21,6.14
				s-0.83,5.29-2.49,6.84c-1.66,1.56-4.09,2.34-7.29,2.34c-3.2,0-7.71-0.37-13.55-1.09l-0.45,3.39l2.3,0.32
				C1138.85,561.81,1142.71,562.1,1146.04,562.1 M1172.7,561.59V542.6h18.92v-3.51h-18.92v-18.36h22.25v-3.58h-26.22v44.44H1172.7z
				 M1217.94,562.23c6.59,0,11.13-1.77,13.62-5.31c2.49-3.54,3.74-9.28,3.74-17.21c0-7.92-1.27-13.78-3.81-17.55
				c-2.54-3.77-7.06-5.66-13.59-5.66c-6.52,0-11.04,1.9-13.55,5.69c-2.52,3.79-3.77,9.6-3.77,17.42c0,7.83,1.25,13.55,3.74,17.17
				C1206.81,560.42,1211.36,562.23,1217.94,562.23 M1217.94,558.65c-5.26,0-8.79-1.48-10.58-4.44c-1.79-2.96-2.68-7.84-2.68-14.61
				c0-3.33,0.18-6.12,0.54-8.38c0.37-2.26,1.03-4.27,2.02-6.01c1.83-3.41,5.39-5.12,10.67-5.12c5.12,0,8.61,1.58,10.49,4.73
				c1.88,3.16,2.82,8.13,2.82,14.93c0,6.8-0.9,11.65-2.69,14.55C1226.74,557.2,1223.21,558.65,1217.94,558.65 M1248.61,561.59
				v-17.52h13.55l8.77,17.52h4.41l-9.14-18.29c5.71-1.54,8.57-5.86,8.57-12.98c0-4.56-1.14-7.9-3.42-10.01
				c-2.28-2.11-5.75-3.16-10.39-3.16h-16.31v44.44H1248.61z M1260.95,540.55h-12.34v-19.89h12.34c3.32,0,5.77,0.79,7.35,2.36
				s2.36,4.03,2.36,7.36C1270.67,537.16,1267.43,540.55,1260.95,540.55 M1287.94,561.59v-40.35h0.9l13.94,38.89h4.67l13.94-38.89
				h0.9v40.35h3.97v-44.44h-7.42l-13.69,38.88l-13.75-38.88h-7.41v44.44H1287.94z M1337.36,561.59l3.52-12.28h19.82l3.58,12.28h3.9
				l-12.72-44.44h-9.28l-12.79,44.44H1337.36z M1359.75,545.8h-17.9l7.23-25.19h3.45L1359.75,545.8z M1401.31,561.65v-3.58h-24.36
				v-1.34l24.36-34.28v-5.31h-28.78v3.58h24.37v1.41l-24.37,34.28v5.24H1401.31z M1413.66,517.15h-3.96v44.45h3.96V517.15z
				 M1440.42,562.23c6.59,0,11.13-1.77,13.62-5.31c2.49-3.54,3.74-9.28,3.74-17.21c0-7.92-1.27-13.78-3.8-17.55
				c-2.54-3.77-7.06-5.66-13.59-5.66c-6.52,0-11.04,1.9-13.55,5.69c-2.52,3.79-3.78,9.6-3.78,17.42c0,7.83,1.25,13.55,3.74,17.17
				C1429.29,560.42,1433.83,562.23,1440.42,562.23 M1440.42,558.65c-5.26,0-8.79-1.48-10.58-4.44c-1.79-2.96-2.69-7.84-2.69-14.61
				c0-3.33,0.19-6.12,0.54-8.38c0.37-2.26,1.03-4.27,2.02-6.01c1.83-3.41,5.39-5.12,10.67-5.12c5.12,0,8.61,1.58,10.49,4.73
				c1.87,3.16,2.81,8.13,2.81,14.93c0,6.8-0.89,11.65-2.68,14.55C1449.21,557.2,1445.68,558.65,1440.42,558.65 M1471.09,561.59
				v-40.86h1.41l18.74,40.86h7.67v-44.44h-3.9v40.93h-1.47l-18.61-40.93h-7.8v44.44H1471.09z M1536.76,561.59v-3.51h-22.7v-17.33
				h18.86v-3.52h-18.86v-16.5h22.7v-3.58h-26.67v44.44H1536.76z M830.01,625.54c10.53,0,15.79-7.61,15.79-22.83
				c0-14.41-5.26-21.62-15.79-21.62h-16.18v44.45H830.01z M830.01,622.03h-12.22v-37.35h12.22c7.8,0,11.7,6.01,11.7,18.03
				C841.71,615.58,837.81,622.03,830.01,622.03 M859.1,581.09h-3.96v44.45h3.96V581.09z M885.51,626.18c2.05,0,4.62-0.21,7.73-0.61
				c3.11-0.41,5.29-0.74,6.53-0.99V603.1h-12.09v3.51h8.19v14.97c-3.75,0.68-7.14,1.02-10.17,1.02c-5.11,0-8.58-1.51-10.39-4.54
				c-1.81-3.03-2.72-7.9-2.72-14.64c0-6.73,0.91-11.65,2.72-14.74c1.81-3.09,5.3-4.64,10.46-4.64c3.88,0,8.48,0.49,13.81,1.47
				l0.19-3.39l-2.11-0.45c-4.13-0.81-8.21-1.21-12.22-1.21c-6.56,0-11.06,2.05-13.49,6.14c-1.27,2.09-2.17,4.47-2.69,7.16
				c-0.51,2.69-0.76,5.93-0.76,9.72c0,7.64,1.24,13.33,3.71,17.08C874.68,624.31,879.12,626.18,885.51,626.18 M913.65,581.09h-3.96
				v44.45h3.96V581.09z M938.08,625.54v-40.86h13.94v-3.58h-31.97v3.58h14.06v40.86H938.08z M958.41,625.54l3.51-12.28h19.83
				l3.58,12.28h3.91l-12.73-44.45h-9.28l-12.79,44.45H958.41z M980.8,609.75h-17.91l7.23-25.19h3.45L980.8,609.75z M1020.69,625.54
				v-3.58h-20.34v-40.86h-3.96v44.45H1020.69z M1053.76,625.54v-3.51h-22.7V604.7h18.86v-3.52h-18.86v-16.5h22.7v-3.58h-26.67v44.45
				H1053.76z"/>
			<rect x="592.97" y="453.94" class="st0" width="172.66" height="172.66"/>
		</g>
		<path class="st1" d="M635.68,521.09c-3.13,0-5.71,1-7.72,3.02c-2.01,2.02-3.02,4.54-3.02,7.59c0,3.04,1.02,5.58,3.05,7.64
			c2.02,2.05,4.6,3.07,7.72,3.07c3.11,0,5.65-1.01,7.61-3.02c1.95-2.02,2.94-4.53,2.94-7.56c0-3.03-0.99-5.57-2.94-7.64
			C641.36,522.13,638.82,521.09,635.68,521.09"/>
		<path class="st2" d="M695.67,586.1c7.68,0,13.98-0.92,18.93-2.75c4.94-1.83,8.72-4.78,11.32-8.82c2.6-4.05,4.37-8.66,5.31-13.82
			c0.94-5.16,1.41-11.66,1.41-19.5c0-7.85-0.51-14.22-1.54-19.12c-1.02-4.9-2.88-9.17-5.56-12.79c-2.69-3.62-6.46-6.22-11.32-7.8
			c-4.86-1.58-11.04-2.36-18.54-2.36h-29.29v86.96H695.67z M695.67,570.76h-11.64v-56.27h11.64c4.27,0,7.65,0.45,10.16,1.34
			c2.52,0.89,4.42,2.54,5.69,4.92c1.28,2.39,2.09,5.03,2.43,7.93c0.34,2.9,0.51,6.75,0.51,11.57c0,4.82-0.08,8.59-0.26,11.32
			c-0.59,6.9-2.13,11.68-4.6,14.33C706.71,569.14,702.06,570.76,695.67,570.76"/>
	</g>
	<g>
		<defs>
			<rect id="SVGID_1_" x="383.24" y="453.94" width="153.48" height="172.66"/>
		</defs>
		<clipPath id="SVGID_00000034048433077099314030000013905110617808151713_">
			<use xlink:href="#SVGID_1_"  style="overflow:visible;"/>
		</clipPath>
		
			<path style="clip-path:url(#SVGID_00000034048433077099314030000013905110617808151713_);fill-rule:evenodd;clip-rule:evenodd;fill:#0066CC;" d="
			M535.7,534.68c0.49-3.29,0.15-5.36-1-6.22c-1.22-0.85-2.71-0.58-4.48,0.82c-1.03-0.55-2.43-0.03-4.2,1.55
			c0.3-0.79,0.33-1.49,0.09-2.1c1.58-0.73,2.6-1.54,3.06-2.42c0.46-0.88,0.69-2.27,0.69-4.16c0.18-1.16,1.25-3.23,3.19-6.22
			c1.34-2.99,0.4-4.02-2.83-3.11c1.77-1.58,2.65-2.96,2.65-4.11c0.12-1.1-0.34-2.5-1.37-4.21c-0.43-0.97-1.07-1.16-1.92-0.55
			c0.31-0.61,0.47-1.34,0.5-2.19c0.03-0.86-0.53-2.66-1.69-5.4c-0.18-3.59-1.03-5.09-2.56-4.48c-0.24-1.89-0.85-3.69-1.83-5.39
			c-1.46-2.19-2.62-2.77-3.47-1.74c-2.37-3.54-4.6-5-6.67-4.39c-0.06-1.52-0.58-2.89-1.55-4.11c-0.55-2.32-1.22-3.93-2.01-4.85
			c-1.1-0.43-1.86,0.18-2.28,1.83c-0.18-1.34-0.61-2.74-1.28-4.21c-0.67-1.46-1.73-2.23-3.2-2.29c-0.55-0.06-1.07,0.03-1.55,0.27
			c-0.97-0.61-1.8-0.91-2.46-0.91c-2.07-2.2-3.96-2.38-5.66-0.55l-0.28-1.92c-0.61-2.26-1.83-2.74-3.65-1.47
			c-2.98-3.11-5.54-5.15-7.67-6.12c-1.77-0.61-2.92-0.46-3.47,0.46c-0.91-0.91-1.89-1.49-2.92-1.74c-1.04-0.24-2.01-0.52-2.92-0.82
			c-1.4-0.06-2.01,0.7-1.83,2.29c-2.19,0.12-3.7,0.51-4.52,1.15c-0.82,0.64-1.03,1.54-0.64,2.69c0.4,1.16,1.29,2.1,2.69,2.83
			c-0.37,0.43-0.52,1.1-0.46,2.01c0.06,0.91,1.03,1.68,2.92,2.29c1.4,0.37,2.77,0.4,4.11,0.09c-0.3,1.4,0.18,2.29,1.46,2.65
			c1.77,1.83,3.96,2.29,6.58,1.37l-0.28,1.74l3.56,1.47c0.12,1.71,0.91,2.93,2.37,3.66l1.4,0.6c-0.3,0.04-1.61,1.12-1.63,1.29
			c-0.15,0.18-0.44,0.74-0.39,1.28l-2.98,2.77c-1.93-1.14-3.94-2.15-5.97-3.03l0.6-5.33l-0.36-0.15c-1.05-0.44-5.49-1.88-6.65-2.16
			l-0.39-0.1l-2.62,4.69c-2.25-0.52-4.41-0.87-6.6-1.06l-1.09-5.25l-0.4-0.03c-0.64-0.05-2.22-0.07-3.48-0.07
			c-0.83,0-1.79,0.01-2.54,0.03h-0.4c0,0-0.01,0-0.04,0l-0.09,0.01c0,0-0.02,0-0.02,0l-0.35,0.02l-0.01,0h0h-0.01h-0.01l-0.01,0
			l-0.4,0.03l-1.05,5.25c-2.34,0.21-4.56,0.57-6.6,1.06l-2.7-4.69l-0.39,0.1c-1.1,0.29-5.5,1.71-6.6,2.16l-0.37,0.15l0.6,5.33
			c-2.01,0.86-4,1.88-5.94,3.03l-4-3.64l-0.34,0.22c-0.16,0.11-0.43,0.29-0.73,0.5c0.59-1.22,1.03-2.24,1.15-2.77l0.78-0.25
			l0.91-0.37c3.04-1.22,5.63-2.52,8.01-3.62l3.68-1.96c2.56-1.1,4.99-2.59,7.3-4.48c2.44-2.13,3.74-4.36,3.93-6.67
			c-0.43-0.55-1.68-0.85-3.75-0.91c1.09-1.22,1.67-2.5,1.73-3.84c-0.79-1.1-3.16-1.28-7.12-0.55c-4.14,1.04-7.76,2.65-10.87,4.85
			c-3.16,2.01-6.01,4.47-8.54,7.36c-2.53,2.89-4.55,5.9-6.07,9.01l1.83-4.21c0.91-2.01,1.89-4.36,2.92-7.04
			c0.31-1.28,0.32-2.19,0.05-2.74c-0.27-0.55-0.87-0.7-1.78-0.46c-0.97,0.24-2.74,1.53-5.3,3.84c-2.8,2.87-5.28,6.4-7.44,10.61
			c-2.16,4.21-3.64,7.53-4.43,9.97c0.42-2.74,0.36-5.09-0.18-7.04c-0.3-0.79-0.97-1.01-2.01-0.64c-0.97,0.67-1.95,1.68-2.92,3.02
			c-0.97,1.34-1.92,2.64-2.83,3.89c-0.91,1.25-1.99,3.03-3.24,5.35c-1.25,2.32-2.34,5.06-3.29,8.23c-0.94,3.17-1.66,7.37-2.15,12.62
			c-0.3,3.35-0.06,6.95,0.73,10.79c0.97,3.84,1.95,6.67,2.92,8.5c0.97,1.83,1.89,2.9,2.74,3.2c0.55,1.34,1.28,3.57,2.19,6.68
			c0.49,1.46,0.7,2.57,0.64,3.33c-0.06,0.76,0.14,1.3,0.59,1.6c0.46,0.31,0.84,0.91,1.14,1.83c0.79,2.93,1.86,5.64,3.19,8.14
			c-0.24,1.34-0.36,2.68-0.36,4.02c-2.92-8.47-5.3-14.87-7.12-19.2c-3.53-7.87-6.3-11.46-8.31-10.79c-0.97,0.36-1.58,1.25-1.83,2.65
			c-0.06,0.55-0.06,1.95,0,4.2c0.06,2.26,0.27,4.63,0.64,7.13c1.83,8.11,4.96,14.87,9.4,20.3l6.67,7.87
			c1.34,1.34,2.62,2.33,3.84,2.97c1.22,0.64,2.34,0.81,3.38,0.5c1.52,2.44,3.44,5,5.75,7.68c1.46,2.26,2.98,3.32,4.56,3.2
			c0.67,1.46,1.68,2.19,3.01,2.19l1.37-0.18c1.89,1.83,3.59,3.29,5.12,4.39l-1.74,4.94c-3.04,0.42-5.84,0.67-8.4,0.73
			c-2.37-1.71-5.72-4.02-10.04-6.95l-0.28-5.48c-0.12-1.89,0.21-3.47,1.01-4.76c0.18-1.04-0.4-1.98-1.74-2.83
			c-2.01-0.98-3.44-1.37-4.29-1.19c-0.36,0.12-0.58,0.46-0.64,1v3.02l-8.67,0.18c-0.79,0-1.45,0.3-1.96,0.91
			c-0.52,0.61-0.53,1.83-0.05,3.66c0.06,0.67,0.03,1.25-0.09,1.74c-0.43,1.95-1.55,4.33-3.38,7.13c-0.24,0.43-0.14,1.06,0.32,1.92
			c0.46,0.85,1.6,2.19,3.42,4.02c0.79,0.79,1.99,1.77,3.61,2.93c1.61,1.16,4.46,2.93,8.54,5.3c4.81,2.87,9.4,5.24,13.79,7.13
			c0.91,0.06,7-0.76,18.26-2.47l0.09,1.01c-3.23,2.44-5.3,3.44-6.21,3.02c-1.28,0.12-1.67,1.06-1.19,2.83
			c0.37,0.8,1.03,1.34,2.01,1.65l1.19,1.37l3.38,2.01c1.28,0.37,2.5,0.37,3.65,0c1.1-0.43,1.83-1.37,2.19-2.83l0.36-0.36l3.66-3.66
			l2.65-2.01c2.07-0.37,3.41-1.1,4.02-2.19c0.12-0.98,0.4-1.58,0.82-1.83l3.19-2.19c0.12-0.3,1.43,0.21,3.93,1.55
			c1.21,0.3,2.28,0.24,3.2-0.18l2.38-1.37c2.13,0.49,5.87,3.14,11.23,7.95c-0.06,0.55,0.28,1.19,1.01,1.92
			c0.43,0.55,1.58,1,3.47,1.37l1.28,2.38l1.28,0.46c1.89,0.06,3.65-0.61,5.3-2.01l2.01-0.64c1.03-0.79,1.49-1.58,1.37-2.37
			l-0.82-0.82l-1.73-0.46c-2.19-1.04-4.42-2.44-6.67-4.21l-1.46-1.1c6.64,1.16,14.89,2.07,24.75,2.74c1.22,0.24,2.84-0.38,4.88-1.87
			c2.04-1.49,8.21-5.9,18.49-13.22c1.52-1.65,2.74-3.54,3.65-5.67c-0.91-0.85-1.72-2.07-2.42-3.66c-0.7-1.59-1.14-2.93-1.33-4.02
			c-0.24-1.04-0.27-1.97-0.09-2.79c0.18-0.82-0.09-1.6-0.82-2.33c-0.31-0.43-1.01-0.7-2.1-0.82c-1.95-0.18-4.14-0.15-6.58,0.09
			c-1.16-0.12-1.83-0.4-2.01-0.82l0.09-2.19c0.18-0.98-0.09-1.4-0.82-1.28c-2.68,0.67-4.29,1.34-4.84,2.01
			c-0.79,0.85-0.76,1.77,0.09,2.74c0.67,0.61,1,1.31,1,2.1c-0.36,4.02-0.7,6.74-1,8.14c-4.44,3.54-7.46,5.7-9.04,6.49
			c-1.28,0.43-4.14,0.24-8.58-0.55c-0.97-0.85-1.67-2.32-2.1-4.39c1.52-0.91,3.13-2.01,4.84-3.29c1.16-0.18,2.13-0.41,2.92-0.69
			c0.79-0.27,1.19-1.02,1.19-2.24c0.79-0.3,1.37-0.98,1.74-2.01l5.3-6.4c1.71-1.47,3.56-2.32,5.57-2.56c2.44-0.18,5.6-1.55,9.5-4.11
			c0.61-0.67,0.61-1.62,0-2.84c1.16-0.67,3.04-2.56,5.66-5.67c1.04-1.46,1.28-3.08,0.73-4.85c2.44-2.92,3.81-5.24,4.11-6.95
			c0.24-1.52,0.21-3.17-0.09-4.94c1.15-0.73,1.96-1.36,2.42-1.88c0.46-0.52,0.68-1.24,0.68-2.15c0-0.91-0.34-1.68-1-2.29
			C536.82,538.95,537.04,536.7,535.7,534.68z M513.14,484.48c0.43-0.85,0.73-1.55,0.91-2.1c0.18-0.55,0.73-0.61,1.64-0.18
			c0.91,0.43,2.38,2.04,4.38,4.85c0.97-1.1,1.92-0.7,2.83,1.19c1.09,1.71,1.52,3.75,1.28,6.12c2.25-1.22,3.04-0.4,2.38,2.47
			c0.97,2.01,1.57,3.58,1.78,4.71c0.21,1.13,0.03,2.18-0.55,3.15c-0.58,0.98-0.85,1.72-0.82,2.24c0.03,0.52,0.24,0.5,0.64-0.05
			c0.4-0.55,1.2-1,2.42-1.37c0.79,1.71,1.13,2.84,1,3.38c0,0.67-0.41,1.4-1.23,2.19c-0.82,0.8-1.29,1.74-1.42,2.83
			c0,0.55,0.28,0.82,0.82,0.82l1.64-0.46c0.85-0.12,0.88,0.55,0.09,2.01c-0.85,1.59-1.48,2.93-1.87,4.02
			c-0.4,1.1-0.59,1.98-0.59,2.65c-0.06,1.4-0.3,2.23-0.73,2.47c0.12-1.77,0.08-3.61-0.14-5.53c-0.21-1.92-0.59-4.07-1.14-6.45
			c0.49-0.43,1.16-1.86,2.01-4.3c0.43-1.22,0.34-1.37-0.28-0.46c-0.67,1.83-1.34,2.95-2.01,3.38c-0.67-2.25-1.4-5-2.19-8.23
			c0.91-1.53,1.49-3.45,1.74-5.76c0.06-1.95-0.06-2.1-0.37-0.46c-0.36,2.32-1.03,4.12-2.01,5.39c-0.79-2.56-1.64-4.97-2.56-7.22
			c0.3-1.28,0.43-2.77,0.36-4.48c-0.06-1.71-0.21-1.77-0.46-0.18c0,1.28-0.15,2.38-0.46,3.29l-2.01-5.12l-1.28-2.93
			c-0.43-0.98-0.58-0.98-0.46,0l1.19,3.84c-0.91-1.04-1.76-1.8-2.56-2.29c-0.79-0.49-0.94-0.46-0.46,0.09
			c1.34,1.16,2.5,2.41,3.47,3.75c0.79,1.95,1.58,3.96,2.37,6.03c-2.31-1.95-3.93-3.05-4.84-3.29c-1.15-0.43-1.15-0.21,0,0.64
			c1.65,1.04,3.59,2.87,5.85,5.49c0.73,2.13,1.43,4.21,2.1,6.22c-1.16-0.67-2.56-2.01-4.2-4.02c-0.73-0.73-0.76-0.61-0.09,0.37
			c1.34,2.01,2.89,3.78,4.66,5.3l1.37,5.58c-1.4-1.4-3.23-2.83-5.48-4.3c-0.97-0.61-1.03-0.49-0.18,0.37
			c1.95,1.4,3.99,3.47,6.12,6.22c0.61,1.7,0.88,4.84,0.82,9.41c-0.06,1.16-0.91,2.01-2.56,2.56l-0.36,4.39l-2.28,0.09
			c-1.22-1.71-2.14-3.03-2.78-3.98c-0.64-0.94-1.55-2.39-2.74-4.34c-1.19-1.95-2.05-3.54-2.6-4.75c-0.55-1.22-0.64-2.47-0.28-3.75
			c0.37-1.28,0.67-2.26,0.91-2.93c0.24-0.67,0.21-0.79-0.09-0.36c-0.73,1.28-1.25,2.53-1.55,3.75l-1.83-5.21
			c0.18-2.07,1.28-4.72,3.29-7.96c0.61-1.1,0.55-1.19-0.18-0.27c-1.83,2.44-3.01,4.91-3.56,7.41l-2.83-6.31
			c-0.06-1.16,0.67-3.35,2.19-6.58c0.79-1.71,0.61-1.65-0.55,0.18c-0.97,1.83-1.67,3.54-2.1,5.12c-0.85-3.47-1.67-6.43-2.46-8.87
			l-0.64-0.18l0.37,1.01c0.49,3.05,1.16,5.7,2.01,7.95c-1.15-1.04-2.46-1.89-3.93-2.56c-0.79-0.43-0.79-0.34,0,0.28
			c1.77,1.04,3.1,2.07,4.02,3.11c0.73,1.71,1.4,3.26,2.01,4.66c-1.09-0.79-2.95-1.7-5.57-2.74c-0.97-0.18-0.97-0.06,0,0.37
			c3.29,1.34,5.33,2.65,6.12,3.93l1.83,4.85c-0.67,0-1.55-1.01-2.65-3.02c-0.91-1.71-3.2-3.35-6.85-4.94
			c-0.73-0.31-1.06-0.95-1-1.92c0.12-0.67,0.82-0.94,2.1-0.82c-0.37-1.04-0.79-1.86-1.28-2.47l-0.73-1.1
			c-0.97-2.01-0.4-3.02,1.73-3.02c-0.79-1.22-1.07-2.16-0.82-2.83c-0.06-1.16,0.21-2.29,0.82-3.38c0.37-0.73,0.64-1.46,0.82-2.19
			c1.16,0.67,2.21,1.24,3.15,1.69c0.94,0.46,1.45,1.3,1.51,2.51l-0.46,2.83c0.18,0.55,0.67,0.36,1.46-0.55
			c0.79-1.1,1.43-1.74,1.92-1.92c0.67,0.31,1.31,0.86,1.92,1.65c0.61,1.16,0.4,3.29-0.64,6.4l-1,2.56c2.07-2.74,3.74-4.05,5.02-3.93
			c0.42,0.3,0.56,0.93,0.41,1.88c-0.15,0.94-0.15,1.94,0,2.97c0.15,1.04-0.2,1.92-1.05,2.65c-0.85,0.73-1.43,1.92-1.74,3.57
			c1.95-1.46,2.74-1.19,2.38,0.82l-1.1,3.93c-0.3,1.89,0,2.77,0.91,2.65c0.91-0.12,1.48,0,1.69,0.37c0.21,0.36,0.26,1.01,0.14,1.92
			c-0.55,1.28-0.79,2.12-0.73,2.51c0.06,0.4,0.23,0.73,0.5,1.01c0.27,0.27,0.87,0.21,1.78-0.18c0.91-0.4,1.37-0.12,1.37,0.82
			c0,0.94,0.02,1.86,0.04,2.74c0.03,0.89,0.32,1.75,0.87,2.61c0.41,0.59,0.94,0.96,1.57,1.15l0.89-0.97
			c-1.22,0.06-1.78-0.73-1.69-2.37c0.09-1.65,0.08-2.93-0.04-3.84c-0.49-1.16-0.97-1.8-1.46-1.92c-0.49-0.12-1.61-3.17-3.38-9.14
			l1.92,0.09c1.4,5.12,2.53,7.88,3.38,8.28c0.85,0.4,1.25,0.85,1.19,1.37c-0.06,0.52,0.09,1.63,0.46,3.33
			c1.09-0.3,1.73-1.31,1.92-3.01c0.3-1.58-0.15-2.8-1.37-3.66c-1.28-0.73-2.01-1.4-2.19-2.01c-0.36-1.03,0.03-1.68,1.19-1.92
			c0.67-0.36-0.94-1.83-4.84-4.39c-2.01-1.4-2.62-2.65-1.83-3.75c0.3-0.55,0.87-0.53,1.69,0.05c0.82,0.58,1.35,0.72,1.6,0.41
			c0.43-0.85,0.09-1.45-1-1.78c-1.1-0.34-1.61-0.72-1.55-1.14c-0.06-1.89-0.03-3.17,0.09-3.84c0.12-0.67,0.06-1.46-0.18-2.38
			c-0.67-0.98-1.95-0.92-3.84,0.18c0.43-1.04,0.53-2.04,0.32-3.01c-0.22-0.98-0.69-1.92-1.42-2.83l-0.91-2.84
			c-0.24-0.97,0.31-1.65,1.64-2.01C512.72,486.62,512.72,485.28,513.14,484.48z M511.13,550.77c-0.37,0.73-0.69,1.37-0.96,1.92
			c-0.28,0.55-0.59,1.1-0.96,1.65c-0.12-0.98-0.52-2.71-1.19-5.21c-0.55-1.71-0.7-1.68-0.46,0.09c0.49,2.86,0.82,5.64,1.01,8.32
			c-1.04-1.1-2.09-2.04-3.15-2.83c-1.07-0.79-2-1.65-2.79-2.56c-0.67-0.42-0.79-0.36-0.36,0.18c0.73,0.98,1.81,2.12,3.24,3.43
			c1.43,1.31,2.3,2.18,2.6,2.61c0.3,0.43,0.49,0.79,0.55,1.1c-0.55,0.73-1.19,1.49-1.92,2.29c-0.43-0.24-0.67-0.66-0.73-1.23
			c-0.06-0.58-0.26-1.01-0.59-1.28c-0.34-0.28-1.36-1.11-3.06-2.51c-1.52-1.34-2.01-2.56-1.46-3.66c-0.43-0.55-0.81-1.19-1.14-1.92
			c-0.34-0.73-0.26-1.45,0.23-2.15c0.49-0.7,1.61-0.38,3.38,0.96c0.3-1.04,0.3-2.01,0-2.93c-0.3-0.91-0.67-1.83-1.09-2.74
			c-0.79-1.46-1.55-2.71-2.28-3.75c-0.1-0.2-0.16-0.36-0.23-0.54c0.15-0.6,0.29-1.2,0.41-1.81c0.31,0.11,0.67,0.34,1.1,0.71
			c1.52-1.65,2.53-2.12,3.01-1.42c0.49,0.7,0.88,1.87,1.19,3.52c0.3,1.65,0.34,3.35,0.09,5.12l-0.37,0.37l0.37,0.36
			c0.12,0.37-0.03,1.74-0.46,4.12c0,0.49,0.15,0.97,0.46,1.46c-0.12-0.73-0.15-1.28-0.09-1.65c0.06-0.3,0.26-1.02,0.59-2.15
			c0.34-1.13,0.5-1.77,0.5-1.92c0-0.15,0.02-0.26-0.47-0.32c0.55-0.18,0.64-0.44,0.79-0.78c0.15-0.34,0.18-0.67,0.09-1.01
			c-0.09-0.33-0.15-1.29-0.18-2.88c-0.03-1.58-0.18-2.79-0.46-3.61c-0.27-0.82-0.44-1.46-0.5-1.92c-0.06-0.46-0.43-0.72-1.09-0.78
			c-0.67-0.06-1.61,0.61-2.83,2.01c0.55-2.62,1.11-4.37,1.69-5.26c0.58-0.89,1.17-1.14,1.78-0.78c0.61,0.37,1.01,0.76,1.19,1.19
			c0.18,0.43,0.46,0.35,0.82-0.23c0.37-0.58,0.67-0.78,0.91-0.59c0.24,0.18,0.5,0.55,0.77,1.1c0.28,0.55,0.47,1.13,0.6,1.74
			c0.12,0.61,0.23,1.72,0.32,3.34c0.09,1.62-0.11,2.7-0.6,3.24c-0.49,0.55-0.73,1.22-0.73,2.01c0.12,3.17,0.37,4.74,0.73,4.71
			c0.37-0.03,0.81-0.28,1.33-0.73c0.52-0.46,0.97-0.62,1.37-0.5c0.4,0.12,0.62,1.01,0.69,2.65c0.06,1.65,0.21,1.81,0.46,0.5
			c0.24-1.31,0.7-1.96,1.37-1.96c0.67,0,0.79,1.77,0.36,5.3c-2.37,2.13-4.08,3.9-5.11,5.3c-0.37-1.53-0.38-2.59-0.05-3.2
			c0.34-0.61,0.64-1.3,0.91-2.06c0.28-0.76,0.5-1.45,0.68-2.05C511.89,549.68,511.8,549.56,511.13,550.77z M505.86,562.51
			c-0.01,0.02-0.03,0.05-0.04,0.07c-0.09-0.11-0.17-0.22-0.22-0.34C505.68,562.32,505.77,562.4,505.86,562.51z M499.31,567.71
			c-0.74,0.66-1.34,1.55-1.69,2.08l0.37,3.38c0.24,1.4-0.5,2.97-2.24,4.71c-1.73,1.74-2.88,3.34-3.42,4.8
			c-0.3,1.1-1.49,2.29-3.56,3.57c-0.12-0.37-0.61-0.94-1.46-1.74c-0.12-0.24-0.36-0.33-0.73-0.27c-2.07,0.55-6.24,2.38-12.51,5.49
			c-1.09,0.55-2.65,2.17-4.66,4.85h-3.56c-0.97-0.55-2.01-1.31-3.11-2.29c-0.79-0.61-2.19-0.39-4.2,0.64
			c-1.89-0.43-3.77-0.03-5.66,1.19c-1.16,0.43-2.01,0.52-2.56,0.27l-4.47-4.84c-9.26-3.9-14.31-5.64-15.16-5.21
			c-0.91,0.55-1.58,1.34-2.01,2.38c-0.91-0.43-2.28-1.59-4.11-3.47l-2.83-3.2c-2.07-2.32-2.92-4.51-2.56-6.58l0.46-2.83
			c0.06-0.43,0-0.76-0.18-1.01c-0.67-0.73-1.86-1.17-2.46-1.29c-0.13-0.06-0.53-0.19-0.98,1.46c0.08,0.26-1.23-1.58-2.13-2.9
			l4.8-2.18c1.4,1.55,2.95,3.1,4.74,4.7l-2.22,4.94l0.31,0.26c0.89,0.73,4.63,3.43,5.61,4.07l0.34,0.23l3.97-3.65
			c1.93,1.13,3.94,2.15,5.98,3.03l-0.61,5.39l0.39,0.14c1.12,0.41,5.52,1.84,6.61,2.15l0.4,0.12l2.64-4.71
			c2.29,0.49,4.5,0.83,6.59,1.02l1.09,5.31l0.41,0.01c0.65,0.02,2.23,0.03,3.48,0.03c1.26,0,2.82-0.01,3.45-0.03l0.42-0.01
			l1.05-5.28c2.38-0.25,4.55-0.59,6.6-1.05l2.67,4.7l0.4-0.11c1.15-0.33,5.56-1.75,6.62-2.15l0.38-0.14l-0.61-5.35
			c2.07-0.92,4.07-1.95,5.94-3.06l4,3.64l0.34-0.21c0.98-0.62,4.71-3.37,5.61-4.06l0.33-0.26l-2.27-4.91
			c1.8-1.59,3.36-3.15,4.74-4.74l4.93,2.23l0.26-0.31c0.04-0.05,0.09-0.12,0.15-0.18c-0.61,0.97-1.1,1.75-1.12,1.8
			C502.12,568.28,500,567.1,499.31,567.71z M502,569.43c-0.27,0.65-0.58,1.76-1.19,1.83c-0.61,0.07-1.81-0.79-1.81-1.56
			c0-0.77,0.63-1.32,1.41-1.32C501.19,568.38,502.28,568.78,502,569.43z M479.99,593.29c-0.31-1.04,0.06-1.86,1.09-2.47
			c0.97-0.73,2.04-1.04,3.19-0.91c0.49,0.06,0.52,0.94,0.09,2.65c-0.36,0.86-2.16,1.89-5.39,3.11l-3.01-0.37l3.2-1.83l0.82,1.28
			h0.46L479.99,593.29z M484.11,588.36c-0.79-0.06-1.86,0.2-3.2,0.78c-1.34,0.58-2.07,1.39-2.19,2.42c-0.24,0.73-0.58,1.19-1,1.37
			c-1.34,0.73-2.56,1.37-3.65,1.92l-2.83-0.18l1.46-2.01c0.73-0.85,1.67-1.62,2.83-2.29c5.18-2.56,8.61-4.05,10.32-4.48
			c0.3-0.12,0.58-0.03,0.82,0.28l0.73,0.91l-1.01,0.64C485.78,588.2,485.02,588.42,484.11,588.36z M434.06,586.43
			c-0.97-0.55-1.77-0.73-2.38-0.55c-0.43,0.12-0.88,0.73-1.37,1.83l-0.18-0.18c0.24-1.04,0.62-1.68,1.14-1.92
			c0.52-0.24,1.17-0.18,1.96,0.18l4.38,2.1l7.49,2.83c1.83,1.95,2.95,3.29,3.38,4.02c-1.52,0.18-3.17,0.3-4.93,0.36l-3.93-2.74
			c-1.58-1.89-2.74-3.26-3.47-4.12C435.43,587.41,434.73,586.8,434.06,586.43z M435.52,589.54c-0.85,0.43-1.7,0.43-2.56,0l-1.46-1.1
			c0.49-1.22,1.13-1.62,1.92-1.19l1.46,1.28L435.52,589.54z M502.67,565.62l-4.9-2.21l-0.26,0.3c-1.49,1.75-3.19,3.45-5.19,5.19
			l-0.3,0.26l2.25,4.86c-1.11,0.84-3.72,2.77-4.86,3.54l-3.98-3.62l-0.34,0.2c-2.04,1.23-4.23,2.36-6.51,3.36l-0.36,0.15l0.6,5.3
			c-1.31,0.46-4.39,1.46-5.75,1.87l-2.65-4.66l-0.38,0.09c-2.23,0.52-4.59,0.9-7.23,1.16l-0.39,0.04l-1.04,5.22
			c-0.65,0.01-1.76,0.02-3,0.02c-1.25,0-2.37-0.01-3.03-0.02l-1.08-5.26l-0.39-0.03c-2.27-0.19-4.7-0.56-7.22-1.12l-0.38-0.08
			l-2.6,4.65c-1.34-0.41-4.41-1.4-5.75-1.87l0.6-5.35l-0.36-0.15c-2.24-0.94-4.44-2.05-6.55-3.32l-0.34-0.2l-3.93,3.62
			c-1.15-0.78-3.77-2.68-4.87-3.53l2.21-4.9l-0.29-0.26c-1.99-1.77-3.69-3.46-5.2-5.17l-0.26-0.29l-4.85,2.21
			c-0.14-0.19-0.33-0.44-0.52-0.7c0.82-1.21,1.9-3.36,2.57-5.81c0.94-3.43,1.37-7.21,1.34-8.65c0.14-0.27,0.18-0.35,0.35-0.51
			c0.46-0.36,0.97-1.7,1.42-3.42c1.83,4.27,4.32,8.29,7.5,11.83l0.55,0.61l13.52-19.75l-6.92,23.22l-0.5,1.69l1.45-1l19.61-13.58
			l-14.75,18.59l0.75,0.35c5.63,2.59,11.63,3.91,17.84,3.91c6.01,0,12.07-1.3,17.53-3.75l0.75-0.34l-14.56-18.92l19.88,13.74l1.45,1
			l-0.5-1.69l-6.83-22.88l13.1,19.77l0.56-0.61c4.53-4.91,7.79-10.76,9.62-17.03c1.35,2.5,3.31,5.27,3.4,6.8
			c-1.26-1.12-4.11-1.15-4.11,1.58c0,0.83,0.68,2.24,0.96,2.83c-0.58,2.91,2.77,5.04,5.51,7.79c-0.03,0.72,0.1,1.05,0.29,1.28
			C504.45,563.23,503.29,564.83,502.67,565.62z M413.69,531.57c-0.97,5.06-1.55,11.55-1.74,19.48l-0.09,5.21l-0.18,7.13l-1.19-1.37
			c-0.85-4.27-1.22-8.75-1.1-13.44c0.18-3.47,0.73-7.23,1.64-11.25c1.28-5.06,2.5-7.74,3.65-8.05c0.67,1.77,1.22,5.05,1.64,9.83
			c0.43,4.78,0.43,9.1,0,12.94c-0.55,4.87-1.37,8.17-2.46,9.87l-1.19,2.56c0-3.78,0.05-6.86,0.14-9.23
			c0.09-2.38,0.18-5.54,0.27-9.47c0.09-3.93,0.35-8.4,0.78-13.4C414.12,531.18,414.06,530.9,413.69,531.57z M408.95,560.29
			l-2.01-2.56l1.46-3.66C408.34,556.08,408.52,558.15,408.95,560.29z M408.86,544.28c-2.68,4.63-4.75,9.23-6.21,13.81
			c-0.37,1.4-0.67,3.08-0.91,5.03c-0.18-2.5,0.23-5.99,1.23-10.47c1-4.48,3.3-9.13,6.89-13.94
			C409.26,541.21,408.92,543.07,408.86,544.28z M400,542.91c-0.61-0.61-1.4-3.35-2.37-8.23c0.06-1.28,0.58-3.2,1.55-5.76
			c0.34-0.88,0.77-1.86,1.25-2.89l-0.01,0.18c-0.04,1.14-0.04,5.81,0,6.94l0.01,0.41l5.3,1.1c0.19,2.02,0.52,4.19,1.03,6.6
			l-4.71,2.68l0.12,0.4c0.18,0.6,0.72,2.31,1.23,3.87c-0.47,1.3-0.86,2.65-1.15,4.03c-0.55-0.85-0.86-2.09-1.35-3.7
			c-0.49-1.62-0.64-2.7-0.46-3.25C400.95,544.44,400.8,543.65,400,542.91z M405.84,543c-0.68,1.18-1.29,2.41-1.82,3.67
			c-0.28-0.87-0.54-1.68-0.71-2.23L405.84,543z M448.78,517.03l0.43-0.01l0.14-0.41l9.01-25.75l9.09,25.79l0.14,0.4l0.43,0.01
			l27.23,0.62l-21.68,16.61l-0.34,0.26l0.12,0.41l7.81,26.14l-22.46-15.52l-0.35-0.24l-0.35,0.24l-22.42,15.52l7.81-26.22l0.12-0.41
			l-0.34-0.26l-21.68-16.53L448.78,517.03z M448.14,515.81l-25.2-7.45c5.89-9.78,15.5-16.69,26.59-19.11l-1.12,26.31l-0.08,0.23
			L448.14,515.81z M467.66,489.34c11.13,2.58,20.68,9.61,26.4,19.45l-25.35,7.06l-0.24,0l-0.06-0.18L467.66,489.34z M498.44,539.89
			c-1.61,6.36-4.71,12.31-9.16,17.32l-14.55-21.96l-0.07-0.23l0.15-0.12l24.74-8.83c0.32,3.57,0.16,7.12-0.42,10.59
			c-0.72,0.15-1.22,0.74-1.09,1.81C498.1,538.9,498.24,539.38,498.44,539.89z M474.55,567.78c-5.09,2.16-10.69,3.3-16.23,3.3
			c-5.75,0-11.31-1.16-16.54-3.45l16.38-20.65l0.2-0.14l0.16,0.11L474.55,567.78z M442.1,534.94l-0.05,0.18l-14.87,21.73
			c-3.23-3.74-5.7-7.99-7.41-12.52c0.66-3.19,1.09-6.77,0.87-8.1c-0.18-0.97-0.41-1.47-0.69-1.51c-0.27-0.03-0.53,0.04-0.78,0.23
			l0.55-1.1c0.3-0.8,0.3-1.31,0-1.56c-0.15-0.16-1.34-0.16-2.57,0.27c-0.17-2.31-0.15-4.64,0.07-6.98l24.67,9.2L442.1,534.94z
			 M417.72,539.07l-0.55,1.01l-0.09-1.83l1.37-1.74c0.91-0.91,1.31-0.43,1.19,1.46c-0.18,2.74-0.79,6.16-1.83,10.24
			c-0.06-3.35-0.21-5.61-0.46-6.77l0.82-2.29C418.24,538.37,418.08,538.34,417.72,539.07z M418.26,533.04
			c0.79-0.18,0.95,0.18,0.46,1.1l-1.74,2.56c-0.12-1.04-0.28-1.92-0.46-2.66C417.13,533.62,417.71,533.28,418.26,533.04z
			 M513.43,544.45c-0.1,0.37-0.26,0.9-0.44,1.47c-0.53-0.4-1.28-0.58-1.72-0.27c-0.02,0.01-0.83,0.58-1.33,0.97
			c-0.17,0.13-0.32-0.84-0.38-1.56c-0.03-0.47-0.11-2.03,0.15-2.75L513.43,544.45z M514.95,546.69c0.05-0.07-0.71-0.18-1.12,0.06
			c0.33-1.04,0.62-1.99,0.72-2.44l0.09-0.38l-4.33-2.49c0.17-0.24,0.34-0.5,0.49-0.76c0.48-0.87,0.44-2.91,0.1-5.05
			c0.04-0.32,0.09-0.65,0.12-0.97l5.29-1.09l0.03-0.4c0.06-0.84,0.08-3.6,0.05-5.45c0.2,0.31,0.38,0.62,0.58,0.93
			c-0.01,0.12,2.38,2.66,3.24,4.97c-0.29,1.49-0.25,2.77-0.26,2.84c-0.31,2.94-0.84,5.64-1.58,8.1
			C515.76,543.3,515.33,545.01,514.95,546.69z M521.65,533.17c0.36-0.12,1.18-0.02,1.98-0.02c-0.85,4.63-1.84,9.7-2.63,12.87
			l-1.28-0.73C520.81,540.9,521.4,535.97,521.65,533.17z M515.04,525.54l-4.02-0.8c-0.21-2.34-0.57-4.56-1.05-6.6l1.29-0.73
			C512.22,520.18,513.49,522.89,515.04,525.54z M500.16,492.15c-0.18,0.5-0.33,1.13-0.4,1.77l-1.68,0.78
			c-1.48-1.68-3.03-3.23-4.74-4.74l2.04-4.48c0.32,0.41,0.75,0.9,1.27,1.48c0.99,1.08,2.86,2.14,4.43,2.81
			C500.99,489.88,500.55,491.06,500.16,492.15z M502.01,469.21c0.06-0.85,0.62-1.11,1.69-0.78c1.07,0.34,2.05,2.61,2.97,6.82
			l1.46,0.55c0.49-1.16,0.88-1.74,1.19-1.74c0.48,0,0.97,1.01,1.46,3.02c1.22,1.1,1.8,2.89,1.74,5.39
			c-0.79,1.04-1.22,2.32-1.28,3.84l-0.73-1.65c-0.43-1.83-0.61-3.75-0.55-5.76c-0.06-0.85-0.15-0.85-0.28,0
			c-0.18,1.77-0.21,3.26-0.09,4.48c-1.64-2.13-3.41-4.06-5.3-5.76c-0.37-1.34-0.49-2.87-0.37-4.57c-0.18-1.46-0.34-1.8-0.46-1
			c-0.12,1.83-0.06,3.54,0.18,5.12c-1.4-1.4-3.04-3.44-4.93-6.12c-0.49-0.86-0.7-1.04-0.64-0.55c1.16,2.19,2.37,4.02,3.65,5.49
			c1.28,1.46,2.32,2.62,3.11,3.47c-1.58-0.49-2.95-0.81-4.11-0.96c-1.16-0.15-2.22-0.47-3.2-0.96c-0.91-0.18-0.88,0.03,0.09,0.64
			c0.55,0.36,1.66,0.7,3.33,1c1.67,0.31,3.24,0.82,4.7,1.55c0.79,0.49,1.86,1.74,3.19,3.75l1.1,2.47c-1.71-0.91-3.59-1.55-5.66-1.92
			c-2.07-0.37-3.29-0.7-3.65-1.01c-1.58-0.67-1.77-0.61-0.55,0.18c0.36,0.36,1.66,0.78,3.88,1.23c2.22,0.46,4.37,1.32,6.44,2.6
			l0.18,0.55c-0.43,0.49-0.58,1.16-0.46,2.01l0.64,1.83c-0.55-0.67-1.31-0.36-2.28,0.92c0.36-0.79,0.27-1.53-0.27-2.2
			c-0.85-1.28-2.92-2.65-6.21-4.11l-0.55,1c-2.68-0.85-4.35-2.44-5.02-4.75c-0.06-0.73,0.58-1.14,1.92-1.24
			c1.34-0.09,1.55-0.47,0.64-1.14c-1.76-0.61-3.23-1.65-4.38-3.11c-0.79-1.04-0.79-1.77,0-2.19l1.37-0.36l0.64-0.82l-0.82-3.2
			c-0.24-1.64,0.21-2.8,1.37-3.47C498.81,467.51,500.42,468,502.01,469.21z M484.1,471.78l0.18-2.1l-1.73,0.36
			c-1.64,0.55-3.29,0.06-4.93-1.46c-1.09,0.18-1.55-0.24-1.37-1.28c0.43-0.92,0.3-1.4-0.36-1.46l-2.65,0.28
			c-1.71-0.24-2.83-0.73-3.38-1.47c-0.36-0.61-0.12-1.37,0.73-2.29c-1.65-0.67-2.66-1.4-3.06-2.19c-0.4-0.79-0.15-1.43,0.73-1.92
			c0.88-0.49,2.51-0.58,4.88-0.27c-0.55-0.67-0.7-1.37-0.46-2.1c0.06-0.73,1.64-0.34,4.75,1.19l1.83,1.1
			c0.49-0.91,1.31-1.19,2.46-0.82c1.4,0.67,2.71,1.48,3.93,2.42c1.22,0.95,2.59,2.3,4.11,4.07c1.28-0.85,2.19-0.67,2.74,0.55
			l0.27,2.19c-1.34-1.28-2.98-1.37-4.93-0.27l-1.28-0.55c-1.77-2.13-2.83-3.75-3.2-4.85c-0.37-1.4-0.55-1.53-0.55-0.36
			c0.06,1.22,0.79,2.77,2.19,4.66c-2.68-0.85-4.64-1.95-5.89-3.29c-1.25-1.34-2.2-2.47-2.88-3.38c-0.67-1.1-0.94-1.1-0.82,0
			c0.73,1.34,1.74,2.59,3.01,3.75c-0.97-0.43-1.89-0.85-2.74-1.28c-2.13-0.92-3.9-1.4-5.3-1.46c-0.67,0-0.7,0.12-0.09,0.37
			c2.37,0.61,4.09,1.17,5.16,1.69c1.06,0.52,1.78,0.99,2.14,1.41c-1.71,0.73-3.47,1.07-5.3,1.01c-1.16-0.06-1.68-0.03-1.55,0.09
			c0.12,0.12,0.49,0.24,1.09,0.36c2.19,0.24,4.42,0,6.67-0.73c1.64,0.85,3.56,1.68,5.75,2.47c-1.34,0.3-2.65,0.91-3.93,1.83
			c-0.49,0.61-0.24,0.64,0.73,0.09c0.97-0.73,2.44-1.19,4.38-1.37l1.55,0.64c-0.12,1.65,0.27,3.32,1.19,5.03l-1.01,0.36
			L484.1,471.78z M491.23,479.55l0.62-1.04c-1.98-0.9-3.81-1.98-3.9-4.45l1.64-0.64c0.73-0.85,0.75-1.49,0.04-1.92
			c-0.7-0.43-1.08-1.55-1.14-3.38c0.67-1.46,2.32-1.46,4.93,0c1.16-2.25,2.56-2.93,4.2-2.01c-1.77,0-2.8,0.76-3.1,2.29
			c-0.18,0.97-0.18,2.16,0,3.56c-0.61-0.85-1.34-1.58-2.19-2.19c-1.65-0.85-1.95-0.76-0.91,0.27c1.03,1.04,1.95,2.1,2.74,3.2
			c-1.34,1.1-2.8,1.58-4.38,1.46c-0.55,0.24-0.46,0.4,0.27,0.46c0.73,0.18,1.58,0.12,2.56-0.18c-0.12,0.98,0.2,2.59,0.62,3.57
			c0.58,0.83,1.35,1.57,2.25,2.23c-0.43,0.12-0.78,0.35-0.96,0.78c-2.39,0.04-3.43,0.01-3.91-0.19c-0.1-0.07-0.2-0.14-0.29-0.2
			c-0.04-0.05-0.07-0.1-0.09-0.16C490.1,480.6,490.03,480.23,491.23,479.55z M494.64,484.32c-0.57-0.44-1.36-1.03-2.18-1.63
			c0.55,0.03,1.09,0.06,1.63,0.05C494.14,483.17,494.38,483.82,494.64,484.32z M427.35,481.81l3.97,3.62l0.34-0.2
			c2.12-1.28,4.31-2.39,6.5-3.32l0.36-0.15l-0.6-5.31c1.31-0.49,4.38-1.49,5.71-1.87l2.7,4.67l0.38-0.1
			c2.2-0.55,4.63-0.94,7.21-1.16l0.4-0.04l1.05-5.23c0.65-0.02,1.76-0.04,3.01-0.04c1.26,0,2.37,0.02,3.01,0.04l1.09,5.23l0.39,0.03
			c2.39,0.19,4.75,0.57,7.22,1.16l0.39,0.09l2.62-4.67c1.36,0.38,4.46,1.38,5.74,1.87l-0.6,5.32l0.36,0.15
			c2.23,0.94,4.43,2.06,6.54,3.32l0.34,0.2l3.43-3.19c0.17,0.09,0.37,0.18,0.63,0.22c0.3,0.03,0.62,0.06,0.93,0.09
			c1.29,0.91,2.98,2.18,3.81,2.82l-2.21,4.87l0.29,0.26c1.89,1.65,3.58,3.35,5.19,5.2l0.26,0.3l1.94-0.91
			c0.06,0.65,0.24,1.27,0.6,1.73c-0.2-0.1-1.08,0.51-1.39,1c-1.14,1.76,1.33,4.29,1.72,5.15c-0.19-0.02-0.87,0.32-1.23,0.58
			c-0.85,0.6-0.56,3.63,1.85,4.15c0.6,0.3,3.37,1.9,4.75,3.31c0.27,0.28,1.04,1.74,2.15,3.19c0.59,0.78,1.21,2.08,2.66,2.12
			c0.01,0.03,0.02,0.06,0.03,0.09l-2.14,1.22l0.1,0.39c0.55,2.21,0.94,4.64,1.16,7.22l0.03,0.39l5.27,1.05
			c0.05,1.39,0.05,4.65,0,6.03l-4.79,0.99c-0.14-0.6-0.29-1.2-0.46-1.74c-0.28-0.9-0.88-1.33-1.39-1.54
			c-0.21-0.08-1.58-0.01-1.84,1.04c-0.07-0.59-1.03-0.95-1.74-1.12c-2-0.47-4.13,3.37-3.89,6.94c-0.24-0.19-0.5-0.33-0.76-0.44
			c0.65-3.84,0.78-7.78,0.35-11.72l-0.09-0.82l-22.48,8.03l19.2-14.71l1.39-1.07l-1.76-0.04l-23.82-0.54l22.8-6.35l-0.4-0.72
			c-5.99-10.79-16.37-18.44-28.49-20.99l-0.81-0.18l0.68,23.92l-8.05-22.84l-0.59-1.66l-0.58,1.66l-7.89,22.53l1.01-23.67
			l-0.81,0.16c-12.07,2.38-22.53,9.89-28.7,20.62l-0.41,0.72l22.91,6.77l-24.16,0.58l-1.76,0.05l1.4,1.07l18.97,14.47l-22.2-8.28
			l-0.1,0.83c-0.21,1.71-0.29,3.43-0.28,5.13c-0.22-0.7-0.44-1.3-0.6-1.65c-0.13-0.28-0.53,0.02-0.54,0.03
			c-2.56,1.55-3.69,4.94-4.6,9.15l-0.73,0.67c-0.57,0.72-1.12,1.47-1.65,2.23c-0.43-2.18-0.72-4.16-0.88-6.01l-0.03-0.39l-5.26-1.08
			c-0.03-1.4-0.03-4.64,0-6.04l5.26-1.08l0.03-0.39c0.18-2.29,0.55-4.65,1.12-7.24l0.09-0.38l-0.94-0.53
			c4.22-3.72,12.68-15.38,13.92-23.19c1.12-1.18,2.27-2.32,3.45-3.35l0.3-0.26l-1.43-3.14c0.68-1.21,1.42-2.57,2.1-3.87
			C426.13,482.67,426.87,482.14,427.35,481.81z M400.55,525.77c0.9-1.9,2.02-4.01,3.36-6.31c0.12-0.16,1.06-1.19,1.35-1.26
			c0.23-0.06,0.53-0.22,0.87-0.46l0.63,0.35c-0.5,2.33-0.84,4.5-1.02,6.6L400.55,525.77z M421,490.71
			c-0.08,0.36,0.64-0.78,1.63-2.48l0.79,1.74c-0.79,0.7-1.56,1.45-2.32,2.21C421.11,491.66,421.08,491.17,421,490.71z M450.5,461.72
			c0,1.16-0.7,2.44-2.1,3.84c-2.13,1.95-4.8,3.75-7.99,5.39c-3.19,1.65-7.35,3.6-12.46,5.85v-0.55c6.21-4.63,11.96-8.41,17.26-11.34
			c1.4-0.85,1.28-1.1-0.37-0.73c-1.83,0.91-3.83,2.04-6.03,3.38c-3.65,2.38-7.22,4.72-10.69,7.04l0.09-1.1
			c6.94-6.09,12.63-10.03,17.08-11.8C447.49,461.23,449.22,461.23,450.5,461.72z M429.91,463.91c3.32-2.74,7.29-4.88,11.92-6.4
			c2.26-0.61,4.2-0.88,5.85-0.82c0.79,0.18,1.01,0.64,0.64,1.37l-2.01,2.65c-1.77,0.24-4.19,1.25-7.26,3.02
			c-3.07,1.77-6.38,4.12-9.91,7.04l-1.28,0.82c-0.67-0.49-1.89-0.27-3.65,0.64c5.6-4.69,10.47-8.26,14.61-10.7
			c2.68-1.34,4.23-2.29,4.66-2.84c-1.34,0.37-3.23,1.21-5.66,2.52c-2.44,1.31-6.45,4.04-12.05,8.18l-5.39,4.85
			C423.41,470.1,426.59,466.66,429.91,463.91z M424.29,474.06c0.97-0.55,1.64-0.76,2.01-0.64c0.24,0.61,0.3,1.45,0.18,2.51
			c-0.12,1.07-0.91,3.31-2.37,6.72l-3.38,6.58c-2.38,0.3-4.63,1.4-6.76,3.29c1.1-1.89,2.42-4.05,3.97-6.49
			c1.55-2.44,3.97-6.1,7.26-10.97c0.55-0.91,0.56-1.14,0.05-0.69c-0.52,0.46-1.9,2.21-4.16,5.26c-2.25,3.05-5.27,7.77-9.04,14.17
			c-0.4,0.62-1.03,1.58-1.88,2.88c-1.36,2.09-3.28,5.05-5.8,8.92c-0.3,0.3-1.22,0.49-2.74,0.55l-3.01,8.87
			c0.24,0.36,1,0.24,2.28-0.37c-0.61,1.16-1.52,1.8-2.74,1.92l-0.73-0.55l-0.36-1.37l0.09-0.82l0.73,0.09l3.2-8.14l-1.92-2.38
			l0.46-1.37c0.61,1.28,1.19,1.98,1.74,2.1c0.85-1.64,2.08-3.88,3.7-6.72c1.61-2.83,3.51-5.71,5.71-8.64l-0.09-0.73
			c0-0.43,0.21-0.46,0.64-0.09l4.57-6.58l-3.75,6.49c0.61,0.67,0.33,1.13-0.82,1.37c-3.9,5.18-6.88,10.33-8.95,15.45l0.91,0.28
			c0.55,0.24,1.07,0,1.55-0.73l5.57-9.88l5.3-9.87C418.2,480.04,421.07,476.56,424.29,474.06z M404.38,506.88
			c-1.28,2.38-2.25,4.51-2.92,6.4l-0.73-0.09l1.92-5.94L404.38,506.88z M400.28,516.85l-1.83,4.94l-1.28,4.3l0.46-3.66l0.64-2.65
			l0.55-2.65L400.28,516.85z M397.26,512.46c0.43-2.74,1.01-5.24,1.74-7.5l0.73,0.91L397.26,512.46z M401.91,496.46
			c2.44-3.96,5.36-9.57,8.77-16.82c1.03-2.13,2.56-4.54,4.57-7.22c0.61-1.4,0.27-1.37-1.01,0.09c-2.98,3.72-6.45,9.6-10.41,17.65
			l1.73-4.39c0.31-0.98,1.28-3.18,2.92-6.63c1.64-3.45,3.26-6.17,4.84-8.18c1.58-2.01,2.68-3.32,3.29-3.93
			c2.19-1.89,3.47-2.77,3.83-2.65c0.3,0.24,0.4,0.64,0.28,1.19l-4.48,11.52c-2.92,5.67-6.76,11.58-11.51,17.74
			c-2.01,2.19-3.26,3.59-3.75,4.21c-0.49,0.61-0.88,1.19-1.19,1.74l0.36-1.56L401.91,496.46z M398.36,546.39
			c0-1.22-0.14-1.98-0.41-2.29c-0.28-0.3-0.55-0.87-0.82-1.69c-0.27-0.82-0.68-2.04-1.23-3.65c-0.55-1.62-0.94-3.06-1.19-4.35
			c0,0,0,0-0.01,0c-0.13-0.06-0.24-0.14-0.37-0.21c-1.44-0.75-2.52-1.89-3.19-3.49c-0.73-1.74-1.41-4.01-2.05-6.81
			c-0.64-2.81-0.9-6.16-0.78-10.06c0.3-4.63,0.97-9.14,2.01-13.53c1.52-6.1,4.63-11.89,9.31-17.37c1.03-1.16,1.67-1.43,1.92-0.82
			c0.24,2.44,0.23,4.8-0.04,7.09c-0.28,2.29-0.87,4.83-1.78,7.64c-2.38,7.92-3.81,13.26-4.29,16c-0.91,3.23-1.92,7.44-3.01,12.62
			c-0.49-2.5-0.2-7.76,0.87-15.77c1.06-8.01,2.42-13.73,4.06-17.14c0.79-1.77,0.76-2.04-0.09-0.82c-3.71,6.34-5.87,15.7-6.48,28.07
			c-0.12,4.33,0.12,7.45,0.73,9.37c0.61,1.92,1.31,3.03,2.1,3.34c0.1,0.06,0.21,0.1,0.33,0.13c0.11,0.03,0.22,0.04,0.34,0.03
			c0.23-0.01,0.46-0.1,0.71-0.25c0.36-2.32,0.61-4.19,0.73-5.62c0.12-1.43,0.29-3.11,0.5-5.03c0.21-1.92,0.59-3.52,1.14-4.8
			l0.37,0.36c-0.61,2.81-0.93,4.76-0.96,5.85c-0.03,1.1-0.11,2.19-0.23,3.29c-0.12,1.1-0.24,3.2-0.36,6.31
			c0.73-2.5,1.52-4.88,2.37-7.13l2.83-8.23l3.65-8.69c2.01-3.9,4.81-8.35,8.4-13.35c2.13-2.5,4.02-3.84,5.66-4.02
			c0.43,0.61,0.43,1.86,0,3.75c-0.43,1.89-1.16,3.87-2.19,5.95c-0.02,0.04-0.04,0.07-0.06,0.11c0,0,0,0,0,0
			c-0.26,0.48-0.52,0.92-0.77,1.38c-0.22,0.4-0.45,0.81-0.67,1.2c-0.27,0.47-0.54,0.91-0.81,1.36c-0.21,0.36-0.43,0.74-0.65,1.09
			c-0.28,0.45-0.55,0.87-0.83,1.3c-0.21,0.32-0.41,0.66-0.62,0.97c-0.27,0.41-0.54,0.79-0.82,1.18c-0.21,0.3-0.42,0.61-0.62,0.9
			c-0.28,0.38-0.54,0.73-0.82,1.09c-0.2,0.27-0.41,0.55-0.61,0.8c-0.28,0.36-0.56,0.68-0.84,1.01c-0.19,0.23-0.38,0.47-0.58,0.69
			c-0.31,0.36-0.62,0.68-0.93,1.01c-0.16,0.17-0.31,0.35-0.47,0.51c-0.47,0.47-0.93,0.91-1.39,1.33l6.3-10.24l3.01-5.49
			c1.16-2.07,1.37-2.8,0.64-2.19c-6.15,9.26-9.83,15.09-11.05,17.47c-1.22,2.38-2.4,4.6-3.56,6.67c-1.16,2.07-1.92,3.69-2.28,4.84
			c-0.37,1.16-1.13,3.23-2.28,6.22c0,0.55,0.36,2.13,1.09,4.75c0.73,2.62,1.35,4.16,1.87,4.62c0.52,0.46,0.56,0.96,0.14,1.51
			c-0.18,0.49-0.06,1.4,0.36,2.74c0.3,1.46,1.01,3.47,2.1,6.03l-0.27,0.91C400.31,552.24,399.27,549.43,398.36,546.39z
			 M395.34,519.23c-0.61,4.87-1.13,8.68-1.55,11.42l-0.36-0.73C393.06,529.38,393.7,525.81,395.34,519.23z M424.29,587.9l-1.19-1.55
			c-0.36-0.43-0.87-0.52-1.51-0.27c-0.64,0.24-1.14-0.12-1.51-1.1c-1.65,0.98-3.32,0.61-5.02-1.1l-3.01-3.66l-2.83-4.85l-1-0.73
			c-0.58,0.37-1.22,0.5-1.92,0.4c-1.19-0.16-2.56-0.95-3.93-2.41c-0.85-0.79-2.68-3.93-5.48-9.42c-3.71-7.07-6.24-12.4-7.58-16
			c-0.97-2.99-1.61-4.88-1.92-5.67c-0.31-0.8-0.43-0.81-0.37-0.05c0.06,0.76,0.52,2.47,1.37,5.12c0.85,2.65,2.44,6.54,4.75,11.66
			c2.01,4.14,3.99,7.92,5.94,11.34c-4.5-4.88-7.76-9.45-9.77-13.71c-2.01-4.2-3.35-8.11-4.02-11.7c-0.3-1.28-0.49-3.25-0.55-5.9
			c-0.06-2.65-0.03-4.13,0.09-4.43c0.3-0.92,0.73-1.31,1.28-1.19c0.37,0,1.2,0.87,2.51,2.61c1.31,1.74,3.09,5.64,5.34,11.7
			c2.25,6.06,3.64,10.05,4.16,11.93c0.52,1.89,1.03,3.54,1.55,4.94c0.52,1.4,1.14,2.83,1.87,4.3c1.1,2.19,2.19,3.69,3.29,4.48
			c1.45,1.02,2.5,1.21,3.19,0.54l-3.34-5.98c-0.3-0.13-0.65-0.16-1.04-0.05c-0.06,0-0.1-0.02-0.16-0.02c0,0.01-0.01,0.03-0.01,0.03
			c-0.14,0-0.24-0.05-0.37-0.07c-0.97-0.18-1.4-0.95-1.19-2.4c0.12-1.1,0.52-2.99,1.19-5.67c1.34-4.51,3.26-8.99,5.75-13.44
			c-0.3,1.95-0.46,3.59-0.46,4.94c-2.25,5.06-3.9,9.14-4.93,12.25c-0.55,2.25-0.52,3.35,0.09,3.29l0.73-0.37l-0.55-1.28l0.37-1.01
			l1.09,1.92l0.64-0.46l0.55,0.82l-0.55,0.82l4.11,5.94l1.01-0.82l0.73,0.82c-1.22,1.22-1.71,2.01-1.46,2.38
			c1.09,2.01,2.1,3.63,3.01,4.85c1.83,2.68,3.32,3.44,4.48,2.29c0.37-0.31,0.82-0.24,1.37,0.18c0.55,0.43,1.16,1.34,1.83,2.74
			l-0.09-2.1l-3.38-3.2l-1.92-3.84c-1.58-2.25-2.71-3.99-3.38-5.21c-0.67-1.22-1.51-2.68-2.51-4.39c-1-1.71-2.24-3.63-3.7-5.76
			l0.28-1.01l2.92,3.57c2.62,3.35,4.46,5.9,5.52,7.64c1.07,1.74,1.69,2.15,1.87,1.23l0.55-1.74l0.82,0.46l-0.55,3.57l-0.18,1.1
			c-0.06,0.85,0.11,1.36,0.5,1.51c0.4,0.15,0.74,0.72,1.05,1.69c0.18,0.61,1.14,1.87,2.88,3.79c1.73,1.92,3.56,3.53,5.48,4.85
			c1.92,1.31,3.5,2.38,4.75,3.2c1.25,0.82,1.84,1.63,1.78,2.42l1.74,0.36l-0.46-2.19l1.1-0.28c0.55,0.37,1,1.04,1.37,2.01
			c1.58,1.22,2.95,2.2,4.11,2.93l-4.02,0.73l-6.85-4.12L424.29,587.9z M407.49,566.5l0.55-0.55l2.56,4.3l-0.27,0.55L407.49,566.5z
			 M411.78,575.1l1-1.28l2.38,3.38l1.37,2.47l0.46,1.37c-0.85-0.43-1.58-1.07-2.19-1.92l-1.46-1.92L411.78,575.1z M432.87,597.13
			l-5.48,0.91l1.28-3.66L432.87,597.13z M445.93,614.23c-2.56,2.5-5.45,4.88-8.68,7.13l-1.09-0.36c1.89-1.16,4.56-3.05,8.03-5.67
			l1.55-1.74l-0.82-0.09c-1.16,1.04-2.48,2.09-3.97,3.16c-1.49,1.06-3.21,2.09-5.16,3.06l-2.65,1.28l0.46,0.55l2.01,0.28
			c1.16,0.73,1.64,1.46,1.46,2.19c-0.61,0.91-1.58,1.04-2.92,0.37l-2.19-1.19c-0.79-0.79-1.58-1.34-2.38-1.65l-0.91-0.73l0.37-0.91
			l2.74,1.1h0.82l-0.46-1.65l3.29-2.01c0.85-0.3,1.22-0.82,1.09-1.55l0.28-1.65c1.4,0.3,2.92,0.08,4.56-0.69
			c1.65-0.76,3.19-1.2,4.66-1.33C446.94,612.74,446.91,613.44,445.93,614.23z M443.74,610.44c-3.17,0.7-6.03,1.33-8.59,1.87
			c-6.39,1.16-12.69,2.1-18.9,2.83c-1.58-0.43-6.15-2.77-13.7-7.04c-5.36-3.23-9.1-5.85-11.23-7.86c-2.44-2.62-3.41-4.21-2.92-4.75
			c1.58-2.62,2.65-4.94,3.2-6.95c0.24-0.85,0.3-1.52,0.18-2.01c-0.67-2.07-0.18-3.14,1.46-3.2c4.08-0.24,6.82-0.31,8.22-0.18
			c0.61,0.06,1-0.12,1.19-0.55l1.37-2.74l-0.82-0.37l-1.19,1.83l-0.09-2.1c0-0.3,0.18-0.4,0.55-0.27c2.56,0.67,3.74,1.52,3.56,2.56
			c-0.79,1.34-1.16,2.87-1.1,4.57l0.09,4.76c-3.23-2.13-6.7-4.02-10.41-5.67c0.43-0.06,0.91-0.11,1.46-0.14
			c0.55-0.03,0.91-0.23,1.1-0.59c0.18-0.36-0.15-0.58-1-0.64c-1.89,0-3.11,0.15-3.65,0.46c-0.42,0.49-0.34,1.01,0.28,1.55
			c4.38,2.19,8.25,4.39,11.6,6.59c5.3,3.35,9.41,6.09,12.33,8.23c2.86-0.06,6.88-0.46,12.06-1.19l7.85-1.46
			c3.23-0.61,6.57-1.13,10.04-1.55c1.28-0.18,2.89-0.3,4.84-0.37c1.95-0.06,3.74-0.21,5.39-0.46c1.58,2.99,2.56,5.61,2.92,7.86
			c0.18,1.16,0.03,1.8-0.46,1.92C452.11,608.04,446.91,609.74,443.74,610.44z M467.12,607.46l-0.46-1.46l-2.47,3.11l-2.01,1.28
			c-0.91,0.79-1.86,1.1-2.83,0.91l-3.2-1.55l1.64-0.82l0.46,0.36c-0.3,0.92,0.06,0.8,1.1-0.36l2.83-2.74
			c0.18-1.65-0.21-3.77-1.19-6.36c-0.97-2.59-1.71-4.22-2.19-4.89c-0.12-0.55-1.52-0.67-4.2-0.36c1.58-0.79,3.44-0.85,5.57-0.18
			l2.19,0.91l1.19-0.51l-0.17-0.16l-2.03-0.97l1.1,0.09l0.93,0.88l0.26,0.12l-0.09,0.04l0.63,0.6c3.11,3.35,4.86,5.64,5.25,6.86
			c0.4,1.22,0.44,2.41,0.14,3.56C468.43,607.34,467.6,607.89,467.12,607.46z M488.94,620.63l1,0.18l-0.36,0.46l-2.38,0.73
			c-1.03,0.91-2.25,1.52-3.65,1.83l-1.55-0.28l-0.37-1.1c0.37-0.55,0.84-0.95,1.42-1.19c0.58-0.24,1.32-0.46,2.24-0.64l2.19,0.37
			L488.94,620.63z M485.57,619.63c-1.64,0-2.68,0.18-3.11,0.55h-1.28c-1.77-1.22-3.17-2.35-4.2-3.38l-4.29-3.38
			c0.79-0.43,2.5-0.28,5.11,0.46L485.57,619.63z M498.63,601.02c1.77,0.15,3.1,0.07,4.02-0.23c1.64-0.67,5.02-3.17,10.14-7.5
			c4.93-3.72,9.1-6.31,12.51-7.77c1.03-0.61,1.08-1.05,0.14-1.33c-0.94-0.28-2.36-0.41-4.25-0.41c-0.61,0.49-0.55,0.88,0.18,1.19
			c0.85-0.06,1.46,0,1.83,0.18c-4.08,2.13-7.49,4.27-10.23,6.4c0.24-1.4,0.46-3.81,0.64-7.22c-0.06-1.1-0.42-2.07-1.09-2.93
			c-0.43-0.61,0.15-1.16,1.73-1.65l1.28-0.37v2.01l-1.74-0.46l0.18,0.92c0.36,0.67,1.03,1.13,2.01,1.37l4.93,0.27l2.19-0.09
			c2.56,0.06,3.81,0.68,3.74,1.87c-0.06,1.19,0.03,2.3,0.28,3.34c0.43,2.62,1.46,5.12,3.1,7.5c-0.36,1.1-1.16,2.38-2.37,3.84
			l-4.75,3.11c-4.08,2.93-9.62,6.74-16.62,11.43c-4.99,0.12-10.99-0.27-17.99-1.19c-5.05-0.67-10.87-1.95-17.44-3.84l-1.46-0.36
			l0.64-0.64c1.03-1.34,1.6-2.24,1.69-2.7c0.09-0.46-0.06-1.49-0.46-3.11c-0.4-1.61-1.54-3.52-3.42-5.71v-0.55l1.37-0.18
			c3.77,0.25,7.14,0.73,10.09,1.46s6.47,1.4,10.55,2.01C494,600.42,496.86,600.87,498.63,601.02z M491.77,598.59
			c-1.58-0.24-4.14-0.7-7.67-1.37l3.2-1.1c1.7,0.36,2.68,0,2.92-1.1C490.47,596.31,490.98,597.5,491.77,598.59z M510.86,571.62
			c-1.22,1.34-1.61,2.74-1.19,4.2c-1.71,0.91-3.35,2.26-4.93,4.02c-1.58,1.77-2.78,3.26-3.61,4.48c-0.82,1.22-1.69,1.95-2.6,2.19
			c-1.03,0.49-2.22,0.24-3.56-0.73l-0.36,2.29l-6.12,3.75l-3.01,1.28c0.24-0.61,0.4-1.65,0.46-3.11l1.1-0.91
			c4.2-2.19,6.63-4.21,7.3-6.04c0.85-1.52,1.76-2.79,2.74-3.79c0.97-1.01,1.67-2.24,2.1-3.7l0.09-2.19l-0.28-2.29
			c0.97,1.1,1.86,1.34,2.65,0.73c1.28-2.38,2.65-4.58,4.11-6.63c1.46-2.04,3.01-3.95,4.66-5.71c1.64-1.77,3.04-3.26,4.2-4.48
			l-0.09,2.29c-3.65,4.51-5.93,7.59-6.85,9.24c-3.11,4.69-5.21,8.41-6.3,11.16c-0.67,1.52-1.64,2.74-2.92,3.66
			c-0.97,0.49-1.71,1-2.19,1.55c-0.42,0.79-0.18,1.01,0.73,0.64c0.61-0.61,1.28-1.07,2.01-1.37c1.34-0.67,4.2-3.84,8.59-9.51
			l-0.09-3.2l1.01-1.74c-0.06,1.77,0.09,2.74,0.46,2.93c0.37,0.18,0.87-0.32,1.51-1.51c0.64-1.19,2.21-4.46,4.7-9.83
			c-0.55,1.65-0.58,3.08-0.09,4.3c-1.46,1.04-1.86,2.8-1.19,5.3L510.86,571.62z M531.36,551.33c-0.21,1.52-0.71,2.83-1.51,3.93
			c-2.5,2.87-3.53,4.57-3.11,5.12c0.67,1.16,0.55,2.47-0.36,3.93c-1.34,1.65-3.11,3.47-5.3,5.48c0.61,1.22,0.15,2.26-1.37,3.11
			c-1.77,0.98-3.71,1.83-5.85,2.56c3.96-2.99,6.39-6.19,7.3-9.6c1.28-1.16,2.41-1.92,3.38-2.29c0.85-0.55,1-0.79,0.46-0.73
			c-1.09,0.43-2.25,1.1-3.47,2.01c1.16-2.31,1.98-4.81,2.46-7.49c2.38-2.32,3.87-4.15,4.48-5.49c0.85-1.28,0.88-1.55,0.09-0.82
			c-0.91,1.52-2.31,3.14-4.2,4.84c0.85-2.62,1.61-5.54,2.28-8.78c0.3-1.89,0.21-2.23-0.27-1l-0.91,3.2
			c-0.42-1.28-0.91-2.26-1.46-2.93l1.19,3.84c-0.24,1.53-0.82,3.69-1.74,6.49c-0.85-2.44-1.98-4.63-3.38-6.58
			c-1.28-1.58-1.49-1.61-0.64-0.09c1.4,2.01,2.56,4.66,3.47,7.95c-0.73,2.93-1.58,5.36-2.56,7.32c-0.73-1.1-1.49-1.86-2.28-2.29
			c-0.61-0.3-0.61-0.12,0,0.55c0.79,0.79,1.43,1.58,1.92,2.38c-0.73,1.77-1.69,3.32-2.88,4.66c-1.19,1.34-2.36,2.47-3.52,3.38
			c1.46-2.25,1.95-4.75,1.46-7.5c0-0.49,0.38-0.88,1.14-1.19c0.76-0.31,1.02-0.64,0.77-1.01c-0.67-1.34-1-2.41-1-3.2
			c0.49-0.24,1.22-0.24,2.19,0c0.79-0.55,0.72-1.33-0.23-2.33c-0.94-1.01-1.54-2.45-1.78-4.34c0-1.1,0.73-1.49,2.19-1.19
			c0.67-0.06,0.73-0.85,0.18-2.38l-1.55-2.1c-1.1-2.44-0.64-3.32,1.37-2.65l2.37,1.46c1.58,0.61,2.34-0.46,2.28-3.2
			c0-0.61,0.47-0.75,1.41-0.41c0.95,0.33,1.81-0.38,2.6-2.15c0.79-0.85,1.4-0.06,1.83,2.38c-0.18,3.23,0.61,4.76,2.38,4.57
			C531.53,548.95,531.57,549.8,531.36,551.33z M534.1,543.46c0.09,0.61-0.04,1.11-0.41,1.51c-0.36,0.4-1.07,0.75-2.1,1.05
			l-1.01-1.83c0.06-1.46-0.43-2.87-1.46-4.21c0.43-0.37,1.1-0.73,2.01-1.1c0.67-0.31,0.55-0.4-0.36-0.27
			c-0.97,0.18-1.74,0.43-2.28,0.73h-0.18c0.55-1.95,1.43-3.81,2.65-5.58c0.31-0.79,0.12-0.76-0.55,0.09
			c-1.03,1.46-1.95,3.01-2.74,4.66c-0.36-0.37-0.64-1.04-0.82-2.01c-0.24-1.16-0.42-1.19-0.55-0.09c0.18,1.4,0.46,2.41,0.82,3.02
			c-1.34,2.07-2.4,2.9-3.19,2.47c0.49-2.93,1.13-6.01,1.92-9.24c1.4-1.4,2.62-1.86,3.65-1.37c1.46-1.16,2.71-1.37,3.74-0.64
			c0.55,0.92,0.79,1.82,0.73,2.7c-0.06,0.89-0.36,1.87-0.91,2.97c1.16,0,1.77,0.46,1.83,1.37c-0.49,2.08-1.46,3.57-2.92,4.48
			C533.3,542.42,534.01,542.85,534.1,543.46z M406.22,601.85c0.01,0.21,0.22,0.2,0.45,0.39c0.85,0.57,1.67,0.32,2.24-0.74
			c0.77-1.07,0.52-1.89-0.34-2.46c-0.44-0.4-0.44-0.4-0.82,0.25L406.22,601.85z M394.17,593.77c1.09,0.77,1.74,1.35,2.9-0.16
			c0.58-0.85,0.52-1.88-0.12-2.27c-0.21-0.18-0.64-0.37-0.64-0.37c-0.22,0.01-0.2,0.22-0.41,0.23L394.17,593.77z M411.49,602.3
			c0.16-0.84,0.33-1.46-0.31-2.05l0.19-0.23c0.41,0.19,0.87,0.58,1.28,0.77c0.43,0.18,0.86,0.57,1.49,0.74l-0.2,0.21
			c-0.21-0.19-0.84-0.36-1.03,0.05c-0.19,0.43-0.7,2.52-0.89,3.16l-0.63,3.54l2.59-2.19c0.38-0.43,1.97-1.98,2.15-2.39
			c0.39-0.64-0.04-0.82-0.26-1.03l-0.02-0.41c0.44,0.38,0.85,0.58,1.08,0.77c0.43,0.19,0.84,0.37,1.07,0.57l0.01,0.19
			c-0.86-0.56-1.64,0.51-2.44,1.17l-5.14,4.83l-0.42-0.2L411.49,602.3z M404.86,603.57c-0.18,0.43-0.75,1.29-0.73,1.7
			c-0.18,0.42,0.23,0.62,0.67,1l-0.2,0.21c-0.43-0.38-0.86-0.57-1.51-0.96c-0.42-0.17-0.85-0.55-1.28-0.74l-0.02-0.42
			c0.43,0.19,0.86,0.58,1.05,0.16c0.4-0.24,0.98-1.09,1.17-1.52l1.9-3.19c0.18-0.42,0.76-1.27,0.96-1.5
			c0.17-0.62-0.25-0.81-0.67-0.99l0.2-0.22c0.43,0.39,1.07,0.57,1.51,0.95c0.42,0.18,0.86,0.58,1.28,0.76
			c1.06,0.56,1.96,1.74,0.99,3.25c-0.95,1.7-2.63,1.37-3.7,0.61c-0.21,0.01-0.64-0.38-0.64-0.38L404.86,603.57z M400.27,596.23
			c0.18-0.43,0.76-1.29,0.95-1.5c0.18-0.62-0.25-0.81-0.67-1l0.4-0.24l4.51,2.87l-1.16,1.71l-0.21-0.19
			c0.77-1.28,0.32-1.67-0.75-2.44l-0.65-0.38c-0.21-0.2-0.21-0.2-0.6,0.24l-1.72,2.77c1.29,0.97,1.89,0.32,2.47-0.34l0.21-0.01
			c-0.37,0.65-0.77,1.08-0.96,1.51c-0.38,0.64-0.56,1.05-0.95,1.49l-0.22-0.2c0.76-1.27,0.33-1.66-0.74-2.23l-1.15,1.93
			c-0.19,0.42-0.58,0.86-0.56,1.26c0.03,0.62,0.47,1.03,0.9,1.2c1.07,0.57,1.7,0.73,2.67-0.33l0.21-0.01l-1.14,1.9l-5.16-3.45
			l0.18-0.22c0.23,0.19,0.65,0.39,1.05,0.15c0.19-0.22,0.77-1.07,1.16-1.5L400.27,596.23z M395.28,599.08
			c0.03,0.62,0.04,0.82,0.48,1.22l-0.19,0.21c-0.23-0.19-0.45-0.39-0.66-0.59c-0.22-0.19-0.64-0.17-0.86-0.36l0.15-1.05l0.03-3.3
			c-0.03-0.62-0.03-0.62-0.47-1.01l-0.96,1.29c-0.19,0.42-0.76,1.27-0.95,1.7c0.02,0.41,0.24,0.61,0.66,0.79l-0.2,0.22
			c-0.42-0.18-0.86-0.58-1.27-0.77c-0.45-0.38-0.88-0.77-1.51-0.94l0.18-0.22c0.43,0.18,0.65,0.37,1.04,0.15
			c0.41-0.23,0.99-1.09,1.17-1.5l2.11-3.22c0.2-0.22,0.78-1.07,0.97-1.49c0.18-0.42-0.25-0.61-0.47-0.8l-0.02-0.41
			c0.65,0.38,1.08,0.77,1.73,1.15c0.42,0.18,0.85,0.57,1.08,0.76c1.08,0.77,1.96,1.76,1,3.25c-0.97,1.3-2,1.36-3.06,0.78V599.08z
			 M454.59,601.82l-1.71-3.19l-0.53,3.45L454.59,601.82z M428.12,607.85c0.21,0.4,0.22,1.01,0.44,1.41c0.22,0.4,0.62,0.39,1.02,0.38
			c0.81-0.23,1.19-1.05,0.96-2.05c-0.02-0.81-0.44-1.21-0.86-1.59c-0.61-0.18-1,0.03-1.42,0.04l-0.4,0.01L428.12,607.85z
			 M427.85,605.44l0.2,0c0.39-0.23,0.79-0.24,1-0.44c0.39-0.42,0.37-1.02,0.36-1.62c-0.23-1-0.65-1.39-1.45-1.37
			c-0.2,0.2-0.62,0.21-0.62,0.21s0.01,0.4,0.02,0.6L427.85,605.44z M421.48,608.83c0.01,0.4,0.24,1.2,0.44,1.61
			c0.22,0.39,0.62,0.38,1.02,0.17c1.01-0.03,1.39-0.84,1.16-2.05c-0.22-0.6-0.45-1.2-1.06-1.39c-0.4-0.18-1.01-0.17-1.62,0.04
			l-0.21,0L421.48,608.83z M421.02,606.62l0.4-0.2c0.4-0.01,0.8-0.02,1-0.42c0.4-0.42,0.38-0.83,0.37-1.43
			c-0.23-1.01-0.66-1.6-1.67-1.37c0,0-0.4,0.01-0.61,0.22l0.01,0.41L421.02,606.62z M451.99,603.05c0.02,0.61-0.36,1.63-0.15,2.02
			c0.02,0.61,0.62,0.39,1.03,0.38l0.01,0.41c-0.41,0.01-0.82,0.02-1.22,0.03c-0.4,0.21-0.8,0.22-1.21,0.23l-0.01-0.2
			c0.6-0.22,0.79-0.43,0.98-1.05c0.17-1.01,0.15-1.82,0.33-2.64l0.88-5.46l0.4-0.01l3.21,6.17c0.21,0.4,0.63,1,0.85,1.39
			c0.21,0.2,0.61,0.19,1.02,0.18l0.01,0.4c-0.4,0.01-1.01,0.03-1.41,0.24c-0.61,0.01-1.21,0.23-1.61,0.24l-0.01-0.2
			c0.19-0.21,0.8-0.23,0.58-0.83c-0.01-0.2-0.21-0.6-0.21-0.8l-0.86-1.41l-2.63,0.49L451.99,603.05z M448.21,597.89l0.21-0.01
			l0.49,2.61l-0.22,0.01c-0.45-1.41-1.48-2.38-2.69-2.15c-2.03,0.25-2.16,2.68-1.91,4.69c0.47,2.01,1.33,4.01,3.35,3.75
			c1.41-0.44,1.79-1.65,1.75-3.27l0.2-0.21l0.48,3.02l-0.42-0.59c-0.59,0.82-1.39,1.04-2.2,1.27c-2.21,0.47-4.09-1.1-4.56-3.71
			c-0.28-2.62,0.89-4.88,3.1-5.13c1.02-0.23,1.64-0.04,2.45,0.33L448.21,597.89z M439.92,601.74c-0.01-0.41-0.23-1.2-0.24-1.61
			c-0.42-0.39-0.82-0.38-1.03-0.38l-0.21-0.19c0.6-0.23,1.22-0.24,1.63-0.25c0.6-0.02,1.2-0.24,1.61-0.25l0.01,0.21
			c-0.2,0-0.61,0.23-0.8,0.62c0.01,0.42,0.03,1.22,0.24,1.62l0.52,3.83c0.01,0.4,0.24,1.4,0.44,1.6c0.22,0.4,0.63,0.38,1.03,0.37
			l0.01,0.41c-0.6,0.02-1.02,0.03-1.62,0.04c-0.4,0.21-1,0.22-1.61,0.24l-0.01-0.19c0.41-0.01,0.81-0.02,0.79-0.63
			c0.19-0.41-0.03-1.21-0.04-1.6L439.92,601.74z M432.87,603.09c-0.01-0.41-0.24-1.4-0.25-1.82c-0.22-0.39-0.81-0.38-1.02-0.18
			l-0.22-0.39c0.61-0.02,1.22-0.03,1.62-0.24c0.6-0.01,1.22-0.03,1.62-0.25l0.2,0.4c-0.4,0.01-0.8,0.02-1,0.43
			c0.01,0.4,0.24,1.4,0.25,1.82l0.5,3.81c0.25,1.62,0.66,2.01,2.08,1.77c0.4-0.21,1.02-0.23,1.4-0.65c0.4-0.41,0.39-1.01,0.37-1.63
			l0.4-0.22l0.26,2.42c-0.19,0.01-0.41,0.01-0.59,0.02c-1.83,0.25-3.85,0.7-5.67,0.96l-0.01-0.21c0.4-0.21,0.81-0.22,0.79-0.62
			c0.19-0.41-0.04-1.42-0.05-1.82L432.87,603.09z M426.4,604.26c-0.01-0.41-0.24-1.41-0.45-1.61c-0.21-0.39-0.61-0.38-1.03-0.37
			l-0.01-0.19c0.61-0.23,1.01-0.23,1.63-0.25c0.39-0.01,0.79-0.22,1.21-0.23c1.21-0.24,2.63-0.07,2.88,1.54
			c0.24,1.21-0.57,1.82-1.36,2.26c0.61-0.01,1.22-0.03,1.65,0.36c0.61,0.38,1.03,0.97,1.25,1.57c0.03,1.01-0.37,1.63-0.76,2.04
			c-0.59,0.63-1.4,0.65-2.02,0.67c-0.19,0.21-0.8,0.23-1.2,0.24c-0.62,0.02-1.22,0.23-1.82,0.44l-0.01-0.4c0.2,0,0.8-0.02,0.78-0.63
			c-0.01-0.4-0.23-1.21-0.24-1.61L426.4,604.26z M419.56,605.44c-0.01-0.4-0.24-1.4-0.25-1.8c-0.21-0.4-0.62-0.39-1.02-0.17
			l-0.01-0.41c0.4-0.01,1.01-0.03,1.41-0.24c0.62-0.02,1.02-0.03,1.42-0.24c1-0.23,2.64-0.07,2.89,1.74
			c0.23,1.22-0.36,1.83-1.15,2.24c0.61-0.02,1.21-0.03,1.62,0.17c0.63,0.38,1.04,0.98,1.07,1.78c0.22,0.81-0.15,1.42-0.76,2.04
			c-0.4,0.41-1.2,0.64-1.81,0.65c-0.62,0.02-1.02,0.03-1.41,0.24c-0.82,0.02-1.21,0.24-2.03,0.26l-0.01-0.21
			c0.4-0.22,0.81-0.23,1-0.63c-0.01-0.4-0.24-1.4-0.25-1.8L419.56,605.44z M488.28,606.51l-0.62-3.71l-1.64,3.3L488.28,606.51z
			 M502.05,605.59c0-0.41-0.21-1.43-0.21-1.65c-0.2-0.62-0.62-0.41-1.02-0.41v-0.42h1.63c0.41,0,1.03-0.21,1.65-0.21v0.41
			c-0.4,0-0.83,0-1.02,0.42v1.85l0.41,3.72c0,0.41,0,1.44,0.21,1.85c0.2,0.41,0.61,0.41,1.02,0.41v0.2h-1.63
			c-0.62,0.2-1.03,0.2-1.64,0.2v-0.2c0.21,0,0.83,0,0.83-0.61c0.19-0.42,0-1.24,0-1.65L502.05,605.59z M493.98,604.8
			c0-0.42,0.22-1.45,0.22-1.85c-0.22-0.41-0.62-0.63-1.03-0.63l0.21-0.19c0.4,0,1.02,0.19,1.43,0.19c0.62,0.22,1.23,0.22,1.84,0.22
			l-0.2,0.41c-0.21,0-0.83-0.2-1.03,0.2c-0.21,0.41-0.21,1.45-0.42,1.85l-0.61,3.93c-0.2,1.64,0,2.05,1.23,2.27
			c0.63,0,1.23,0.2,1.64,0c0.84-0.42,0.84-0.84,1.03-1.66h0.42l-0.61,2.48c0-0.2-0.42-0.2-0.42-0.2c-2.06-0.42-3.9-0.62-5.94-1.04
			v-0.21c0.4,0,0.81,0,1.22-0.41c0-0.2,0.21-1.23,0.42-1.65L493.98,604.8z M485.41,606.92c-0.21,0.41-0.61,1.44-0.81,1.86
			c0,0.61,0.61,0.61,0.81,0.82v0.2c-0.41,0-0.81-0.2-1.22-0.2c-0.42,0-0.83-0.22-1.23-0.22l0.2-0.19c0.61,0,0.81-0.22,1.24-0.83
			c0.41-0.83,0.81-1.65,1.23-2.47l2.45-4.94l0.41,0.19l1.23,7.02c0.22,0.41,0.22,1.23,0.42,1.65c0.2,0.43,0.41,0.43,0.81,0.62v0.21
			c-0.41,0-1.01-0.21-1.64-0.21c-0.42-0.19-1.02-0.19-1.64-0.19l0.21-0.43c0.2,0,0.82,0.21,0.82-0.2v-1.24l-0.21-1.44l-2.86-0.42
			L485.41,606.92z M484.63,602.7l-0.21-0.2c0.21-1.24-0.2-1.66-1.22-1.87c-0.61,0-1.24-0.2-1.24,0.21l-1.02,6.39
			c0,1.04,0,1.24,1.02,1.66v0.2c-0.6,0-1.22-0.2-1.83-0.41c-0.62,0-1.24,0-1.85-0.21v-0.2c1.23,0,1.45-0.2,1.64-1.24l0.82-6.4
			c0.21-0.2-0.42-0.41-0.82-0.41c-1.24-0.19-1.64-0.19-1.84,1.44l-0.41-0.2l0.41-2.07l6.96,1.24L484.63,602.7z M474.24,601.32
			c0-0.42,0.2-1.24,0-1.66c0-0.41-0.4-0.62-0.81-0.62v-0.4c0.6,0.2,1.22,0.4,1.64,0.4c0.62,0,1.22,0.22,1.84,0.22l-0.21,0.2
			c-0.22,0-0.82,0-1.02,0.42c-0.22,0.41-0.22,1.23-0.41,1.65l-0.42,3.91c-0.2,0.42-0.2,1.44-0.2,1.66c0,0.61,0.41,0.61,0.81,0.61
			v0.42c-0.62-0.22-1.03-0.22-1.63-0.42c-0.62,0-1.02,0-1.64-0.21v-0.2c0.4,0,0.8,0,1.01-0.41c0.22-0.2,0.41-1.24,0.41-1.64
			L474.24,601.32z M523.72,595.13l-3.07-2.06l1.23,3.51L523.72,595.13z M509.89,605.09l-2.67-2.47l0.62,3.51L509.89,605.09z
			 M522.07,597.4c0,0.62,0.42,1.65,0.63,2.06c0.41,0.41,0.82,0,1.02-0.21l0.21,0.42c-0.21,0.21-0.61,0.42-1.02,0.63
			c-0.2,0.18-0.62,0.41-0.83,0.82l-0.2-0.42c0.41-0.41,0.41-0.61,0.41-1.24c-0.41-1.03-0.62-1.86-0.81-2.68l-1.64-5.36l0.2-0.22
			l5.96,4.14c0.2,0.2,1.01,0.82,1.23,0.82c0.4,0.2,0.82,0,1.23-0.21v0.42c-0.41,0.21-0.83,0.41-1.23,0.82
			c-0.41,0.41-0.82,0.63-1.23,1.04l-0.2-0.21c0.2-0.2,0.61-0.62,0.4-1.03c-0.2-0.2-0.61-0.41-0.82-0.62l-1.22-0.82l-2.26,1.65
			L522.07,597.4z M511.82,598.89c-0.61-0.21-1.03-0.21-1.43,0.21l-0.21-0.42c0.41-0.2,0.61-0.2,0.82-0.61c0.21,0,0.61-0.2,0.82-0.41
			l8,2.69l-2.26-3.11c-0.41-0.4-0.82-1.23-1.23-1.64c-0.6-0.42-0.82-0.21-1.43,0l-0.21-0.21c0.41-0.21,0.81-0.41,1.23-0.62
			c0.2-0.42,0.41-0.61,0.82-0.84l0.21,0.22c-0.21,0.42-0.62,0.42-0.41,1.03c0.2,0.42,1.02,1.44,1.44,2.06l3.27,4.55l-0.21,0.2
			c-0.41,0-0.81-0.2-1.23-0.41l-7.38-2.47l2.67,3.71c0.21,0.42,0.82,1.03,1.23,1.44c0.41,0.21,0.82,0,1.23-0.22v0.22
			c-0.2,0.42-0.61,0.62-1.02,0.83c-0.41,0.2-0.62,0.41-1.03,0.82l-0.19-0.2c0.41-0.42,0.61-0.62,0.41-1.23
			c-0.22-0.43-0.62-1.04-1.03-1.46L511.82,598.89z M508.06,607.15c0,0.41,0.2,1.45,0.4,2.06c0.21,0.41,0.81,0.2,1.02,0l0.21,0.2
			c-0.42,0.21-0.61,0.42-1.02,0.63c-0.41,0.2-0.82,0.41-1.03,0.61l-0.21-0.2c0.42-0.41,0.63-0.62,0.42-1.44
			c0-0.83-0.21-1.85-0.42-2.68l-1.02-5.57h0.42l5.32,4.74c0.22,0.21,0.83,0.83,1.24,1.03c0.4,0.21,0.82,0,1.03,0l0.21,0.21
			c-0.41,0.2-1.03,0.42-1.44,0.83c-0.41,0.21-1.03,0.41-1.44,0.82l-0.21-0.42c0.41,0,0.83-0.41,0.61-0.82
			c-0.2-0.21-0.41-0.63-0.81-0.82l-1.02-0.83l-2.45,1.24L508.06,607.15z"/>
	</g>
</g>
</svg>
