<svg xmlns="http://www.w3.org/2000/svg" width="264" height="161" viewBox="0 0 264 161" fill="none">
<title>f.a.q</title>
<path d="M115.306 4.24431e-05H8.39272C6.16929 -0.00700884 4.0345 0.864796 2.45978 2.42292C0.885071 3.98105 -1.13477e-05 6.09732 0 8.30438V50.9669C0 55.5532 3.74558 59.2712 8.36599 59.2712H109.346L123.646 74.6329V8.30438C123.646 3.72836 119.916 0.0146623 115.306 4.24431e-05Z" fill="#50A7EF"/>
<path d="M74.0745 36.7594C76.2278 36.7594 77.9732 35.0139 77.9732 32.8606C77.9732 30.7075 76.2278 28.9619 74.0745 28.9619C71.9213 28.9619 70.1758 30.7075 70.1758 32.8606C70.1758 35.0139 71.9213 36.7594 74.0745 36.7594Z" fill="#5A6772"/>
<path d="M74.0745 36.7594C76.2278 36.7594 77.9732 35.0139 77.9732 32.8606C77.9732 30.7075 76.2278 28.9619 74.0745 28.9619C71.9213 28.9619 70.1758 30.7075 70.1758 32.8606C70.1758 35.0139 71.9213 36.7594 74.0745 36.7594Z" fill="#5A6772"/>
<path d="M74.0745 36.7594C76.2278 36.7594 77.9732 35.0139 77.9732 32.8606C77.9732 30.7075 76.2278 28.9619 74.0745 28.9619C71.9213 28.9619 70.1758 30.7075 70.1758 32.8606C70.1758 35.0139 71.9213 36.7594 74.0745 36.7594Z" fill="#5A6772"/>
<path d="M74.0745 36.7594C76.2278 36.7594 77.9732 35.0139 77.9732 32.8606C77.9732 30.7075 76.2278 28.9619 74.0745 28.9619C71.9213 28.9619 70.1758 30.7075 70.1758 32.8606C70.1758 35.0139 71.9213 36.7594 74.0745 36.7594Z" fill="#5A6772"/>
<path d="M74.0745 36.7594C76.2278 36.7594 77.9732 35.0139 77.9732 32.8606C77.9732 30.7075 76.2278 28.9619 74.0745 28.9619C71.9213 28.9619 70.1758 30.7075 70.1758 32.8606C70.1758 35.0139 71.9213 36.7594 74.0745 36.7594Z" fill="#5A6772"/>
<path d="M89.6722 36.7594C91.8254 36.7594 93.5709 35.0139 93.5709 32.8606C93.5709 30.7075 91.8254 28.9619 89.6722 28.9619C87.519 28.9619 85.7734 30.7075 85.7734 32.8606C85.7734 35.0139 87.519 36.7594 89.6722 36.7594Z" fill="#5A6772"/>
<path d="M89.6722 36.7594C91.8254 36.7594 93.5709 35.0139 93.5709 32.8606C93.5709 30.7075 91.8254 28.9619 89.6722 28.9619C87.519 28.9619 85.7734 30.7075 85.7734 32.8606C85.7734 35.0139 87.519 36.7594 89.6722 36.7594Z" fill="#5A6772"/>
<path d="M89.6722 36.7594C91.8254 36.7594 93.5709 35.0139 93.5709 32.8606C93.5709 30.7075 91.8254 28.9619 89.6722 28.9619C87.519 28.9619 85.7734 30.7075 85.7734 32.8606C85.7734 35.0139 87.519 36.7594 89.6722 36.7594Z" fill="#5A6772"/>
<path d="M89.6722 36.7594C91.8254 36.7594 93.5709 35.0139 93.5709 32.8606C93.5709 30.7075 91.8254 28.9619 89.6722 28.9619C87.519 28.9619 85.7734 30.7075 85.7734 32.8606C85.7734 35.0139 87.519 36.7594 89.6722 36.7594Z" fill="#5A6772"/>
<path d="M89.6722 36.7594C91.8254 36.7594 93.5709 35.0139 93.5709 32.8606C93.5709 30.7075 91.8254 28.9619 89.6722 28.9619C87.519 28.9619 85.7734 30.7075 85.7734 32.8606C85.7734 35.0139 87.519 36.7594 89.6722 36.7594Z" fill="#5A6772"/>
<path d="M104.153 36.7594C106.306 36.7594 108.051 35.0139 108.051 32.8606C108.051 30.7075 106.306 28.9619 104.153 28.9619C101.999 28.9619 100.254 30.7075 100.254 32.8606C100.254 35.0139 101.999 36.7594 104.153 36.7594Z" fill="#5A6772"/>
<path d="M104.153 36.7594C106.306 36.7594 108.051 35.0139 108.051 32.8606C108.051 30.7075 106.306 28.9619 104.153 28.9619C101.999 28.9619 100.254 30.7075 100.254 32.8606C100.254 35.0139 101.999 36.7594 104.153 36.7594Z" fill="#5A6772"/>
<path d="M104.153 36.7594C106.306 36.7594 108.051 35.0139 108.051 32.8606C108.051 30.7075 106.306 28.9619 104.153 28.9619C101.999 28.9619 100.254 30.7075 100.254 32.8606C100.254 35.0139 101.999 36.7594 104.153 36.7594Z" fill="#5A6772"/>
<path d="M104.153 36.7594C106.306 36.7594 108.051 35.0139 108.051 32.8606C108.051 30.7075 106.306 28.9619 104.153 28.9619C101.999 28.9619 100.254 30.7075 100.254 32.8606C100.254 35.0139 101.999 36.7594 104.153 36.7594Z" fill="#5A6772"/>
<path d="M104.153 36.7594C106.306 36.7594 108.051 35.0139 108.051 32.8606C108.051 30.7075 106.306 28.9619 104.153 28.9619C101.999 28.9619 100.254 30.7075 100.254 32.8606C100.254 35.0139 101.999 36.7594 104.153 36.7594Z" fill="#5A6772"/>
<path d="M253.247 37.874H160.019C154.08 37.874 149.266 42.6082 149.266 48.4482V126.988L166.497 108.642H253.247C259.186 108.642 264 103.908 264 98.0676V48.4482C264 42.6082 259.186 37.874 253.247 37.874Z" fill="#2079D4"/>
<path d="M175.442 77.9752C177.595 77.9752 179.34 76.2297 179.34 74.0765C179.34 71.9233 177.595 70.1777 175.442 70.1777C173.289 70.1777 171.543 71.9233 171.543 74.0765C171.543 76.2297 173.289 77.9752 175.442 77.9752Z" fill="#5A6772"/>
<path d="M175.442 77.9752C177.595 77.9752 179.34 76.2297 179.34 74.0765C179.34 71.9233 177.595 70.1777 175.442 70.1777C173.289 70.1777 171.543 71.9233 171.543 74.0765C171.543 76.2297 173.289 77.9752 175.442 77.9752Z" fill="#5A6772"/>
<path d="M175.442 77.9752C177.595 77.9752 179.34 76.2297 179.34 74.0765C179.34 71.9233 177.595 70.1777 175.442 70.1777C173.289 70.1777 171.543 71.9233 171.543 74.0765C171.543 76.2297 173.289 77.9752 175.442 77.9752Z" fill="#5A6772"/>
<path d="M175.442 77.9752C177.595 77.9752 179.34 76.2297 179.34 74.0765C179.34 71.9233 177.595 70.1777 175.442 70.1777C173.289 70.1777 171.543 71.9233 171.543 74.0765C171.543 76.2297 173.289 77.9752 175.442 77.9752Z" fill="#5A6772"/>
<path d="M175.442 77.9752C177.595 77.9752 179.34 76.2297 179.34 74.0765C179.34 71.9233 177.595 70.1777 175.442 70.1777C173.289 70.1777 171.543 71.9233 171.543 74.0765C171.543 76.2297 173.289 77.9752 175.442 77.9752Z" fill="white"/>
<path d="M191.039 77.9752C193.193 77.9752 194.938 76.2297 194.938 74.0765C194.938 71.9233 193.193 70.1777 191.039 70.1777C188.886 70.1777 187.141 71.9233 187.141 74.0765C187.141 76.2297 188.886 77.9752 191.039 77.9752Z" fill="#5A6772"/>
<path d="M191.039 77.9752C193.193 77.9752 194.938 76.2297 194.938 74.0765C194.938 71.9233 193.193 70.1777 191.039 70.1777C188.886 70.1777 187.141 71.9233 187.141 74.0765C187.141 76.2297 188.886 77.9752 191.039 77.9752Z" fill="#5A6772"/>
<path d="M191.039 77.9752C193.193 77.9752 194.938 76.2297 194.938 74.0765C194.938 71.9233 193.193 70.1777 191.039 70.1777C188.886 70.1777 187.141 71.9233 187.141 74.0765C187.141 76.2297 188.886 77.9752 191.039 77.9752Z" fill="#5A6772"/>
<path d="M191.039 77.9752C193.193 77.9752 194.938 76.2297 194.938 74.0765C194.938 71.9233 193.193 70.1777 191.039 70.1777C188.886 70.1777 187.141 71.9233 187.141 74.0765C187.141 76.2297 188.886 77.9752 191.039 77.9752Z" fill="#5A6772"/>
<path d="M191.039 77.9752C193.193 77.9752 194.938 76.2297 194.938 74.0765C194.938 71.9233 193.193 70.1777 191.039 70.1777C188.886 70.1777 187.141 71.9233 187.141 74.0765C187.141 76.2297 188.886 77.9752 191.039 77.9752Z" fill="white"/>
<path d="M205.52 77.9752C207.673 77.9752 209.419 76.2297 209.419 74.0765C209.419 71.9233 207.673 70.1777 205.52 70.1777C203.367 70.1777 201.621 71.9233 201.621 74.0765C201.621 76.2297 203.367 77.9752 205.52 77.9752Z" fill="#5A6772"/>
<path d="M205.52 77.9752C207.673 77.9752 209.419 76.2297 209.419 74.0765C209.419 71.9233 207.673 70.1777 205.52 70.1777C203.367 70.1777 201.621 71.9233 201.621 74.0765C201.621 76.2297 203.367 77.9752 205.52 77.9752Z" fill="#5A6772"/>
<path d="M205.52 77.9752C207.673 77.9752 209.419 76.2297 209.419 74.0765C209.419 71.9233 207.673 70.1777 205.52 70.1777C203.367 70.1777 201.621 71.9233 201.621 74.0765C201.621 76.2297 203.367 77.9752 205.52 77.9752Z" fill="#5A6772"/>
<path d="M205.52 77.9752C207.673 77.9752 209.419 76.2297 209.419 74.0765C209.419 71.9233 207.673 70.1777 205.52 70.1777C203.367 70.1777 201.621 71.9233 201.621 74.0765C201.621 76.2297 203.367 77.9752 205.52 77.9752Z" fill="#5A6772"/>
<path d="M205.52 77.9752C207.673 77.9752 209.419 76.2297 209.419 74.0765C209.419 71.9233 207.673 70.1777 205.52 70.1777C203.367 70.1777 201.621 71.9233 201.621 74.0765C201.621 76.2297 203.367 77.9752 205.52 77.9752Z" fill="white"/>
<path d="M132.396 96.9111H44.7209C40.94 96.9111 37.875 99.9789 37.875 103.763V140.854C37.875 144.638 40.94 147.706 44.7209 147.706H127.533L139.242 160.405V103.631C139.17 99.8984 136.126 96.9104 132.396 96.9111Z" fill="#65DDE0"/>
<path d="M89.6722 128.101C91.8254 128.101 93.5709 126.356 93.5709 124.202C93.5709 122.049 91.8254 120.304 89.6722 120.304C87.519 120.304 85.7734 122.049 85.7734 124.202C85.7734 126.356 87.519 128.101 89.6722 128.101Z" fill="#2079D4"/>
<path d="M104.153 128.101C106.306 128.101 108.051 126.356 108.051 124.202C108.051 122.049 106.306 120.304 104.153 120.304C101.999 120.304 100.254 122.049 100.254 124.202C100.254 126.356 101.999 128.101 104.153 128.101Z" fill="#2079D4"/>
<path d="M118.633 128.101C120.786 128.101 122.532 126.356 122.532 124.202C122.532 122.049 120.786 120.304 118.633 120.304C116.48 120.304 114.734 122.049 114.734 124.202C114.734 126.356 116.48 128.101 118.633 128.101Z" fill="#2079D4"/>
</svg>