<?xml version="1.0" encoding="UTF-8"?>
<svg width="254px" height="46px" viewBox="0 0 254 46" version="1.1" xmlns="http://www.w3.org/2000/svg">
    <title>dipartimento</title>
    <g id="MVP_dicembre2021" stroke="none" stroke-width="1" fill="none" fill-rule="evenodd">
        <g id="ndc_home" transform="translate(-49.000000, -3087.000000)" fill="#0066CC" fill-rule="nonzero">
            <g id="dipartimento" transform="translate(49.000000, 3087.000000)">
                <path d="M62.9251655,11.7809318 C63.9536595,11.7809318 64.7992434,11.6589233 65.4620141,11.4149063 C66.1247848,11.1708892 66.6304715,10.7793091 66.9789774,10.2401659 C67.3275801,9.70111879 67.564657,9.08819408 67.6903049,8.40154547 C67.8160494,7.71489686 67.8789217,6.84949135 67.8789217,5.80532894 C67.8789217,4.76115693 67.8103426,3.91277497 67.6731842,3.26017347 C67.5361226,2.60757196 67.2875353,2.04008822 66.9276156,1.55773184 C66.5675992,1.07537546 66.0620092,0.729212291 65.4106523,0.519244266 C64.7592954,0.309277201 63.930832,0.204293188 62.9251655,0.204293188 L59,0.204293188 L59,11.7809318 L62.9251655,11.7809318 Z M62.9251655,9.73800956 L61.3653523,9.73800956 L61.3653523,2.24722411 L62.9251655,2.24722411 C63.4965296,2.24722411 63.9507577,2.30680654 64.2879466,2.42598101 C64.6250388,2.54514587 64.8792363,2.76362759 65.0506359,3.08141657 C65.2220354,3.39920555 65.3306594,3.75104163 65.3763143,4.13693442 C65.422066,4.5228176 65.4448935,5.03638703 65.4448935,5.6776427 C65.4448935,6.31889837 65.4334798,6.82111236 65.4106523,7.18430388 C65.3306594,8.10362371 65.1249219,8.73920166 64.7935366,9.09103774 C64.4049858,9.52232347 63.7822599,9.73800956 62.9251655,9.73800956 Z M72.301262,11.7809318 L72.301262,0.204293188 L69.9358129,0.204293188 L69.9358129,11.7809318 L72.301262,11.7809318 Z M77.2034629,11.7809318 L77.2034629,8.41005725 L79.1232925,8.41005725 C80.4830751,8.41005725 81.5143741,8.04970939 82.2171896,7.32901368 C82.9200051,6.60830836 83.2713161,5.57265773 83.2713161,4.22205217 C83.2713161,1.54354234 81.8887061,0.204293188 79.1232925,0.204293188 L74.8381106,0.204293188 L74.8381106,11.7809318 L77.2034629,11.7809318 Z M79.1061719,6.40118208 L77.2034629,6.40118208 L77.2034629,2.213177 L79.1061719,2.213177 C79.7117772,2.213177 80.1573966,2.36923263 80.443127,2.68134389 C80.7287607,2.99345515 80.8716258,3.50702458 80.8716258,4.22205217 C80.8716258,5.67480864 80.2831412,6.40118208 79.1061719,6.40118208 Z M86.3224601,11.7809318 L86.7852001,9.68690048 L90.8647413,9.68690048 L91.3275781,11.7809318 L93.6929304,11.7809318 L91.0704788,0.204293188 L86.5795594,0.204293188 L83.957011,11.7809318 L86.3224601,11.7809318 Z M90.4191219,7.64395899 L87.2309163,7.64395899 L88.4135925,2.14507319 L89.236349,2.14507319 L90.4191219,7.64395899 Z M97.6183861,11.7809318 L97.6183861,7.89933148 L99.8982321,7.89933148 L101.252405,11.7809318 L103.840808,11.7809318 L102.178078,7.354549 C103.320419,6.63952141 103.892074,5.52725518 103.892074,4.01775995 C103.892074,1.47544813 102.52049,0.204293188 99.7782912,0.204293188 L95.2527436,0.204293188 L95.2527436,11.7809318 L97.6183861,11.7809318 Z M99.8121455,5.8904467 L97.6183861,5.8904467 L97.6183861,2.213177 L99.7782912,2.213177 C100.326731,2.213177 100.746524,2.37774441 101.037672,2.70687922 C101.328819,3.03602363 101.474876,3.47865519 101.474876,4.0347835 C101.474876,4.59091181 101.337524,5.03922108 101.063788,5.37971133 C100.789084,5.72020158 100.372192,5.8904467 99.8121455,5.8904467 Z M110.319556,11.7809318 L110.319556,2.28127121 L113.405135,2.28127121 L113.405135,0.204293188 L104.834191,0.204293188 L104.834191,2.28127121 L107.954591,2.28127121 L107.954591,11.7809318 L110.319556,11.7809318 Z M117.261625,11.7809318 L117.261625,0.204293188 L114.895692,0.204293188 L114.895692,11.7809318 L117.261625,11.7809318 Z M122.163729,11.7809318 L122.163729,2.82605369 L122.421021,2.82605369 L124.700867,11.2701292 L127.065833,11.2701292 L129.345679,2.82605369 L129.602972,2.82605369 L129.602972,11.7809318 L131.967937,11.7809318 L131.967937,0.204293188 L127.940241,0.204293188 L125.883834,8.64839658 L123.826459,0.204293188 L119.798763,0.204293188 L119.798763,11.7809318 L122.163729,11.7809318 Z M142.046849,11.7809318 L142.046849,9.73800956 L136.871009,9.73800956 L136.871009,6.9629881 L141.018645,6.9629881 L141.018645,4.95410333 L136.871009,4.95410333 L136.871009,2.24722411 L142.046849,2.24722411 L142.046849,0.204293188 L134.505076,0.204293188 L134.505076,11.7809318 L142.046849,11.7809318 Z M146.366659,11.7809318 L146.366659,2.24722411 L146.537865,2.24722411 L149.452238,11.7809318 L153.342582,11.7809318 L153.342582,0.204293188 L150.977616,0.204293188 L150.977616,9.73800956 L150.80641,9.73800956 L147.995535,0.204293188 L144.001694,0.204293188 L144.001694,11.7809318 L146.366659,11.7809318 Z M160.319472,11.7809318 L160.319472,2.28127121 L163.40505,2.28127121 L163.40505,0.204293188 L154.834106,0.204293188 L154.834106,2.28127121 L157.953539,2.28127121 L157.953539,11.7809318 L160.319472,11.7809318 Z M169.215417,11.985176 C170.986481,11.985176 172.23232,11.5084782 172.951966,10.5551785 C173.683219,9.59041767 174.048845,8.08660016 174.048845,6.04366828 C174.048845,4.0007364 173.686121,2.48272938 172.960671,1.48963763 C172.235222,0.496544916 170.986481,0 169.215417,0 C167.444353,0 166.195613,0.496544916 165.470163,1.48963763 C164.744714,2.48272938 164.381989,4.0007364 164.381989,6.04366828 C164.381989,8.08660016 164.744714,9.58758362 165.470163,10.5466283 C166.195613,11.5056921 167.444353,11.985176 169.215417,11.985176 Z M169.215417,9.94225375 C168.289744,9.94225375 167.655217,9.64712762 167.312805,9.05699064 C166.981033,8.45545979 166.81563,7.45385626 166.81563,6.05218005 C166.81563,4.65050384 166.986836,3.63187676 167.330216,2.99629881 C167.672628,2.36072086 168.301351,2.04293188 169.215417,2.04293188 C170.129484,2.04293188 170.758206,2.36072086 171.100619,2.99629881 C171.443998,3.63187676 171.615204,4.65050384 171.615204,6.05218005 C171.615204,7.45385626 171.4469,8.45261612 171.109324,9.04847886 C170.772715,9.6443416 170.141091,9.94225375 169.215417,9.94225375 Z M60.2854965,28.8053482 L60.2854965,24.6853989 L63.5765225,24.6853989 C66.0447919,24.6853989 67.2789266,23.3631915 67.2789266,20.7186808 C67.2789266,19.4475825 66.9789774,18.505523 66.379079,17.8926943 C65.7791806,17.2797696 64.8449951,16.9733072 63.5765225,16.9733072 L59.2227614,16.9733072 L59.2227614,28.8053482 L60.2854965,28.8053482 Z M63.5765225,23.7490075 L60.2854965,23.7490075 L60.2854965,17.9096987 L63.5765225,17.9096987 C64.4907823,17.9096987 65.153553,18.1367114 65.5649312,18.5906407 C65.9763095,19.0446661 66.1819502,19.7539488 66.1819502,20.7186808 C66.1819502,22.7389306 65.3135388,23.7490075 63.5765225,23.7490075 Z M76.5349854,28.8053482 L76.5349854,27.8689567 L70.4500115,27.8689567 L70.4500115,23.2553052 L75.5065881,23.2553052 L75.5065881,22.3190099 L70.4500115,22.3190099 L70.4500115,17.926703 L76.5349854,17.926703 L76.5349854,16.9733072 L69.3872764,16.9733072 L69.3872764,28.8053482 L76.5349854,28.8053482 Z M79.9118078,28.8053482 L79.9118078,24.1405876 L83.5456328,24.1405876 L85.8938645,28.8053482 L87.0766374,28.8053482 L84.6254886,23.9363434 C86.1567674,23.5277589 86.9223585,22.3757871 86.9223585,20.4803318 C86.9223585,19.2659147 86.6167024,18.3778463 86.0052935,17.8160307 C85.3939814,17.2542151 84.4655028,16.9733072 83.2199543,16.9733072 L78.8490726,16.9733072 L78.8490726,28.8053482 L79.9118078,28.8053482 Z M83.2199543,23.2042922 L79.9118078,23.2042922 L79.9118078,17.9096987 L83.2199543,17.9096987 C84.1112899,17.9096987 84.7683537,18.119611 85.1911457,18.5396277 C85.6139377,18.9595484 85.8253821,19.6121499 85.8253821,20.4974322 C85.8253821,22.3020056 84.9568739,23.2042922 83.2199543,23.2042922 Z M99.6747937,28.8053482 L99.6747937,27.8519524 L94.2243464,27.8519524 L94.2243464,16.9733072 L93.1616112,16.9733072 L93.1616112,28.8053482 L99.6747937,28.8053482 Z M101.388789,28.8053482 L102.331873,25.5365765 L107.646033,25.5365765 L108.605561,28.8053482 L109.651175,28.8053482 L106.239628,16.9733072 L103.754722,16.9733072 L100.326731,28.8053482 L101.388789,28.8053482 Z M107.38874,24.6002811 L102.589166,24.6002811 L104.525633,17.8926943 L105.451306,17.8926943 L107.38874,24.6002811 Z M118.906944,28.8053482 L118.906944,17.926703 L122.643493,17.926703 L122.643493,16.9733072 L114.073516,16.9733072 L114.073516,17.926703 L117.843919,17.926703 L117.843919,28.8053482 L118.906944,28.8053482 Z M125.420513,28.8053482 L125.420513,24.1405876 L129.054532,24.1405876 L131.403054,28.8053482 L132.585053,28.8053482 L130.134001,23.9363434 C131.665183,23.5277589 132.431258,22.3757871 132.431258,20.4803318 C132.431258,19.2659147 132.125601,18.3778463 131.514289,17.8160307 C130.902977,17.2542151 129.974402,16.9733072 128.728563,16.9733072 L124.357488,16.9733072 L124.357488,28.8053482 L125.420513,28.8053482 Z M128.728563,23.2042922 L125.420513,23.2042922 L125.420513,17.9096987 L128.728563,17.9096987 C129.620382,17.9096987 130.277156,18.119611 130.699851,18.5396277 C131.122547,18.9595484 131.334378,19.6121499 131.334378,20.4974322 C131.334378,22.3020056 130.465773,23.2042922 128.728563,23.2042922 Z M134.89972,28.8053482 L135.841838,25.5365765 L141.155997,25.5365765 L142.115525,28.8053482 L143.16114,28.8053482 L139.75056,16.9733072 L137.264686,16.9733072 L133.836695,28.8053482 L134.89972,28.8053482 Z M140.898704,24.6002811 L136.09913,24.6002811 L138.036564,17.8926943 L138.962238,17.8926943 L140.898704,24.6002811 Z M148.269271,28.9414789 C149.491896,28.9414789 150.420471,28.6605711 151.054998,28.0987555 C151.688557,27.5369398 152.00582,26.6205309 152.00582,25.3493366 C152.00582,24.3619322 151.745625,23.6582216 151.226204,23.2383009 C150.705815,22.8183802 149.838177,22.4892454 148.620389,22.2508965 C147.403568,22.0125475 146.586229,21.7515262 146.169337,21.4678323 C145.752445,21.1840424 145.543516,20.633563 145.543516,19.8163941 C145.543516,18.4204052 146.463386,17.7224588 148.304093,17.7224588 C148.96667,17.7224588 150.085797,17.8189128 151.663408,18.0118208 L151.748527,17.1095341 L151.183644,17.0244163 C149.97166,16.865517 148.988917,16.7860674 148.235417,16.7860674 C145.721493,16.7860674 144.464047,17.8189128 144.464047,19.8845075 C144.464047,20.4633275 144.538526,20.9429074 144.686518,21.3230553 C144.835477,21.7032992 145.084064,22.0154296 145.43228,22.2594467 C145.781463,22.5034637 146.154828,22.6907036 146.555276,22.8212623 C146.954757,22.951725 147.586382,23.0964059 148.449183,23.2553052 C149.311984,23.4142045 149.940707,23.6384312 150.334384,23.9277932 C150.729029,24.2172512 150.926351,24.7619664 150.926351,25.562131 C150.926351,26.3622956 150.702913,26.9695522 150.25797,27.3838047 C149.812061,27.7980573 149.161091,28.0051836 148.304093,28.0051836 C147.446128,28.0051836 146.235111,27.9087296 144.670075,27.7157256 L144.550134,28.6180122 L145.167249,28.70313 C146.343445,28.8620293 147.378419,28.9414789 148.269271,28.9414789 Z M155.417367,28.8053482 L155.417367,23.7490075 L160.490678,23.7490075 L160.490678,22.8127121 L155.417367,22.8127121 L155.417367,17.926703 L161.382497,17.926703 L161.382497,16.9733072 L154.354342,16.9733072 L154.354342,28.8053482 L155.417367,28.8053482 Z M167.543981,28.9755837 C169.309242,28.9755837 170.52703,28.5045539 171.195411,27.5624944 C171.863791,26.6205309 172.197498,25.0939833 172.197498,22.9829476 C172.197498,20.8719119 171.857988,19.3142377 171.178,18.3097329 C170.498012,17.3053241 169.284093,16.8030717 167.535276,16.8030717 C165.787426,16.8030717 164.576409,17.3081102 163.902225,18.3182831 C163.22804,19.32836 162.890465,20.874794 162.890465,22.9573931 C162.890465,25.0400882 163.225139,26.5637537 163.893519,27.5284857 C164.5619,28.4932177 165.778721,28.9755837 167.543981,28.9755837 Z M167.543981,28.0221879 C166.13274,28.0221879 165.187721,27.6278218 164.70699,26.8389934 C164.227226,26.0501651 163.987344,24.7535123 163.987344,22.948939 C163.987344,22.0636566 164.035708,21.3202692 164.133401,20.7186808 C164.230128,20.1171883 164.41004,19.5837133 164.673136,19.1184477 C165.164507,18.2104929 166.118231,17.7564675 167.535276,17.7564675 C168.906859,17.7564675 169.84414,18.1763882 170.347118,19.0162295 C170.849129,19.8561669 171.100619,21.1811603 171.100619,22.9914978 C171.100619,24.8017393 170.860737,26.092724 170.380973,26.864548 C169.901209,27.6362759 168.955223,28.0221879 167.543981,28.0221879 Z M175.762841,28.8053482 L175.762841,24.1405876 L179.396859,24.1405876 L181.745381,28.8053482 L182.928348,28.8053482 L180.477295,23.9363434 C182.008478,23.5277589 182.773585,22.3757871 182.773585,20.4803318 C182.773585,19.2659147 182.467929,18.3778463 181.856617,17.8160307 C181.245305,17.2542151 180.316729,16.9733072 179.071858,16.9733072 L174.700783,16.9733072 L174.700783,28.8053482 L175.762841,28.8053482 Z M179.071858,23.2042922 L175.762841,23.2042922 L175.762841,17.9096987 L179.071858,17.9096987 C179.96271,17.9096987 180.619484,18.119611 181.042179,18.5396277 C181.465841,18.9595484 181.676705,19.6121499 181.676705,20.4974322 C181.676705,22.3020056 180.8081,23.2042922 179.071858,23.2042922 Z M186.305073,28.8053482 L186.305073,18.0629298 L186.544955,18.0629298 L190.281504,28.413768 L191.533146,28.413768 L195.269695,18.0629298 L195.509577,18.0629298 L195.509577,28.8053482 L196.572602,28.8053482 L196.572602,16.9733072 L194.583903,16.9733072 L190.91603,27.3241454 L187.230747,16.9733072 L185.242048,16.9733072 L185.242048,28.8053482 L186.305073,28.8053482 Z M199.554683,28.8053482 L200.497768,25.5365765 L205.81096,25.5365765 L206.770488,28.8053482 L207.816102,28.8053482 L204.405522,16.9733072 L201.919649,16.9733072 L198.491658,28.8053482 L199.554683,28.8053482 Z M205.553667,24.6002811 L200.754093,24.6002811 L202.691527,17.8926943 L203.6172,17.8926943 L205.553667,24.6002811 Z M216.695604,28.8223525 L216.695604,27.8689567 L210.164624,27.8689567 L210.164624,27.5114814 L216.695604,18.3863965 L216.695604,16.9733072 L208.981658,16.9733072 L208.981658,17.926703 L215.512638,17.926703 L215.512638,18.3012788 L208.981658,27.4263636 L208.981658,28.8223525 L216.695604,28.8223525 Z M220.003654,28.8053482 L220.003654,16.9733072 L218.940629,16.9733072 L218.940629,28.8053482 L220.003654,28.8053482 Z M227.176899,28.9755837 C228.942159,28.9755837 230.159947,28.5045539 230.828328,27.5624944 C231.496709,26.6205309 231.830416,25.0939833 231.830416,22.9829476 C231.830416,20.8719119 231.490905,19.3142377 230.810917,18.3097329 C230.130929,17.3053241 228.917011,16.8030717 227.168194,16.8030717 C225.420344,16.8030717 224.209327,17.3081102 223.535142,18.3182831 C222.860958,19.32836 222.523382,20.874794 222.523382,22.9573931 C222.523382,25.0400882 222.858056,26.5637537 223.526437,27.5284857 C224.194818,28.4932177 225.411639,28.9755837 227.176899,28.9755837 Z M227.176899,28.0221879 C225.765658,28.0221879 224.820639,27.6278218 224.339908,26.8389934 C223.860144,26.0501651 223.620262,24.7535123 223.620262,22.948939 C223.620262,22.0636566 223.668625,21.3202692 223.766319,20.7186808 C223.863046,20.1171883 224.042957,19.5837133 224.306053,19.1184477 C224.797425,18.2104929 225.751149,17.7564675 227.168194,17.7564675 C228.539777,17.7564675 229.477058,18.1763882 229.980036,19.0162295 C230.482047,19.8561669 230.733536,21.1811603 230.733536,22.9914978 C230.733536,24.8017393 230.493654,26.092724 230.01389,26.864548 C229.534126,27.6362759 228.58814,28.0221879 227.176899,28.0221879 Z M235.395758,28.8053482 L235.395758,17.926703 L235.772992,17.926703 L240.795037,28.8053482 L242.852412,28.8053482 L242.852412,16.9733072 L241.806798,16.9733072 L241.806798,27.8689567 L241.412153,27.8689567 L236.424929,16.9733072 L234.3337,16.9733072 L234.3337,28.8053482 L235.395758,28.8053482 Z M253,28.8053482 L253,27.8689567 L246.914929,27.8689567 L246.914929,23.2553052 L251.970829,23.2553052 L251.970829,22.3190099 L246.914929,22.3190099 L246.914929,17.926703 L253,17.926703 L253,16.9733072 L245.851904,16.9733072 L245.851904,28.8053482 L253,28.8053482 Z M63.5594019,45.8297645 C66.3819808,45.8297645 67.793222,43.8038465 67.793222,39.7520107 C67.793222,35.9158513 66.3819808,33.9977236 63.5594019,33.9977236 L59.2227614,33.9977236 L59.2227614,45.8297645 L63.5594019,45.8297645 Z M63.5594019,44.8933731 L60.2854965,44.8933731 L60.2854965,34.9511193 L63.5594019,34.9511193 C65.650631,34.9511193 66.6961488,36.5514485 66.6961488,39.7520107 C66.6961488,43.1795856 65.650631,44.8933731 63.5594019,44.8933731 Z M71.3584678,45.8297645 L71.3584678,33.9977236 L70.2957326,33.9977236 L70.2957326,45.8297645 L71.3584678,45.8297645 Z M78.4376944,46 C78.9861342,46 79.6775359,45.9460088 80.5117062,45.8382186 C81.3458764,45.7304284 81.9286542,45.6424286 82.2600395,45.5743151 L82.2600395,39.8541328 L79.0204721,39.8541328 L79.0204721,40.7905242 L81.2144249,40.7905242 L81.2144249,44.7742466 C80.2088552,44.9558184 79.3003989,45.0466042 78.4890562,45.0466042 C77.1177631,45.0466042 76.1893812,44.6436879 75.7037169,43.8378552 C75.2180527,43.0320225 74.9751722,41.7324876 74.9751722,39.9392505 C74.9751722,38.1460134 75.2180527,36.8380244 75.7037169,36.0151874 C76.1893812,35.1922543 77.12347,34.7808838 78.5061768,34.7808838 C79.5460845,34.7808838 80.7802192,34.9113465 82.2085809,35.1724639 L82.2600395,34.2701772 L81.6943823,34.1509547 C80.5859922,33.9353743 79.4946259,33.827488 78.420477,33.827488 C76.6607299,33.827488 75.4551296,34.3722993 74.8037726,35.4618259 C74.4609736,36.0179734 74.2209949,36.6535706 74.0838365,37.3686174 C73.9467749,38.0835681 73.8781958,38.946178 73.8781958,39.9562549 C73.8781958,41.9878409 74.2095811,43.5030523 74.8723518,44.501793 C75.5351225,45.5005336 76.7236022,46 78.4376944,46 Z M85.9795643,45.8297645 L85.9795643,33.9977236 L84.9169258,33.9977236 L84.9169258,45.8297645 L85.9795643,45.8297645 Z M92.5273749,45.8297645 L92.5273749,34.9511193 L96.264117,34.9511193 L96.264117,33.9977236 L87.6936564,33.9977236 L87.6936564,34.9511193 L91.4646397,34.9511193 L91.4646397,45.8297645 L92.5273749,45.8297645 Z M97.9782091,45.8297645 L98.9212935,42.5609928 L104.234486,42.5609928 L105.194014,45.8297645 L106.239628,45.8297645 L102.829048,33.9977236 L100.343175,33.9977236 L96.9151837,45.8297645 L97.9782091,45.8297645 Z M103.977193,41.6246974 L99.177619,41.6246974 L101.115053,34.9171106 L102.040726,34.9171106 L103.977193,41.6246974 Z M114.673221,45.8297645 L114.673221,44.8763687 L109.222677,44.8763687 L109.222677,33.9977236 L108.159651,33.9977236 L108.159651,45.8297645 L114.673221,45.8297645 Z M123.535312,45.8297645 L123.535312,44.8933731 L117.450241,44.8933731 L117.450241,40.2797216 L122.507108,40.2797216 L122.507108,39.3434262 L117.450241,39.3434262 L117.450241,34.9511193 L123.535312,34.9511193 L123.535312,33.9977236 L116.387216,33.9977236 L116.387216,45.8297645 L123.535312,45.8297645 Z"
                      id="Shape"></path>
                <path d="M46,0 L46,46 L0,46 L0,0 L46,0 Z M27.3615319,12.0395453 L19.5585373,12.0395453 L19.5585373,35.2099057 L27.3615319,35.2099057 C29.4059699,35.2099057 31.0868989,34.9657076 32.404415,34.4773115 C33.7220272,33.9889153 34.7271811,33.205174 35.4199731,32.1261838 C36.1128612,31.0471936 36.5842404,29.8205309 36.8341108,28.4461956 C37.0839812,27.0718603 37.2088684,25.3397844 37.2088684,23.2498718 C37.2088684,21.1600554 37.0726366,19.4620134 36.7999808,18.1558421 C36.5274211,16.8496708 36.0333526,15.7138612 35.3177752,14.7484135 C34.6021979,13.7829658 33.5970439,13.0901739 32.3022171,12.6698456 C31.0536341,12.2646114 29.4776911,12.0548317 27.5742919,12.0403145 L27.3615319,12.0395453 Z M27.3615319,16.1284211 C28.4973415,16.1284211 29.4002976,16.247636 30.0704003,16.4861617 C30.7405029,16.7246875 31.2459161,17.1619367 31.5866397,17.7980054 C31.9274595,18.4340741 32.1431999,19.1383068 32.2340531,19.9106072 C32.3249064,20.6830039 32.3703811,21.7108471 32.3703811,22.9943291 C32.3703811,24.2778112 32.3476918,25.2829651 32.3022171,26.0098871 C32.1431999,27.8499292 31.7343123,29.1219705 31.0755543,29.8262032 C30.3032537,30.6893569 29.0651501,31.1210299 27.3615319,31.1210299 L24.2607929,31.1210299 L24.2607929,16.1284211 L27.3615319,16.1284211 Z M11.3788624,17.8888586 C10.5449355,17.8888586 9.85800813,18.155746 9.32261821,18.6927895 C8.78724753,19.2315635 8.51852386,19.9035889 8.51852386,20.7134806 C8.51852386,21.5236606 8.79079513,22.2017429 9.33002107,22.7482082 C9.86810293,23.2941928 10.5537804,23.5679062 11.3859768,23.5679062 C12.2164426,23.5679062 12.8924099,23.2993844 13.4150323,22.7640715 C13.934482,22.2261627 14.1975237,21.5560601 14.1975237,20.7484759 C14.1975237,19.9420453 13.934482,19.2630978 13.4150323,18.7146135 C12.8924099,18.1634372 12.2134622,17.8888586 11.3788624,17.8888586 Z"
                      id="Shape"></path>
            </g>
        </g>
    </g>
</svg>