<svg width="210" height="65" viewBox="0 0 206 65" fill="none" xmlns="http://www.w3.org/2000/svg">
<path d="M80.3788 14.9057V5.96416H86.0688V7.54206H82.188V10.1719H85.3608V11.7498H82.188V14.9057H80.3788ZM87.1864 14.9057V8.33103H88.9433V14.9057H87.1864ZM87.1864 7.48947V5.70117H88.9433V7.48947H87.1864ZM92.3233 14.9057H90.5665V8.33103H92.3103V8.6992C92.9045 8.34855 93.4509 8.17324 93.9491 8.17324C94.8231 8.17324 95.4262 8.43183 95.7583 8.94904C96.0905 9.46625 96.2565 10.264 96.2565 11.3422V14.9057H94.4998V11.3948C94.4998 10.8338 94.4341 10.4218 94.303 10.1588C94.1719 9.88702 93.9098 9.75115 93.5164 9.75115C93.1581 9.75115 92.8128 9.8125 92.4807 9.93524L92.3233 9.98783V14.9057ZM102.835 10.3823V13.1173C102.852 13.3278 102.887 13.4768 102.94 13.5645C102.992 13.6434 103.101 13.7003 103.267 13.7354L103.215 15.0634C102.769 15.0634 102.411 15.0328 102.14 14.9714C101.877 14.9101 101.611 14.7873 101.34 14.6032C100.711 14.9101 100.068 15.0634 99.4127 15.0634C98.0579 15.0634 97.3805 14.3446 97.3805 12.907C97.3805 12.2057 97.5685 11.7103 97.9444 11.4211C98.3201 11.1231 98.897 10.9477 99.6749 10.8951L101.078 10.7899V10.3823C101.078 10.1106 101.017 9.92647 100.894 9.83004C100.772 9.72485 100.575 9.67225 100.304 9.67225L97.8394 9.77745L97.787 8.55457C98.7222 8.30035 99.6094 8.17324 100.448 8.17324C101.296 8.17324 101.904 8.34855 102.271 8.6992C102.647 9.04986 102.835 9.61089 102.835 10.3823ZM99.8847 12.118C99.3953 12.1618 99.1505 12.4249 99.1505 12.907C99.1505 13.3891 99.3646 13.6302 99.7929 13.6302C100.125 13.6302 100.488 13.5776 100.881 13.4724L101.078 13.4198V12.0128L99.8847 12.118ZM106.266 14.9057H104.509V8.33103H106.253V8.6992C106.847 8.34855 107.394 8.17324 107.892 8.17324C108.766 8.17324 109.369 8.43183 109.701 8.94904C110.033 9.46625 110.199 10.264 110.199 11.3422V14.9057H108.442V11.3948C108.442 10.8338 108.377 10.4218 108.246 10.1588C108.115 9.88702 107.853 9.75115 107.459 9.75115C107.101 9.75115 106.756 9.8125 106.423 9.93524L106.266 9.98783V14.9057ZM111.481 9.90894V8.33103H116.345V9.90894L113.592 13.3278H116.345V14.9057H111.481V13.3278L114.234 9.90894H111.481ZM117.709 14.9057V8.33103H119.466V14.9057H117.709ZM117.709 7.48947V5.70117H119.466V7.48947H117.709ZM126.111 10.3823V13.1173C126.129 13.3278 126.163 13.4768 126.215 13.5645C126.269 13.6434 126.377 13.7003 126.544 13.7354L126.491 15.0634C126.045 15.0634 125.688 15.0328 125.416 14.9714C125.154 14.9101 124.887 14.7873 124.616 14.6032C123.988 14.9101 123.344 15.0634 122.689 15.0634C121.334 15.0634 120.657 14.3446 120.657 12.907C120.657 12.2057 120.844 11.7103 121.221 11.4211C121.597 11.1231 122.173 10.9477 122.952 10.8951L124.354 10.7899V10.3823C124.354 10.1106 124.293 9.92647 124.17 9.83004C124.048 9.72485 123.852 9.67225 123.58 9.67225L121.116 9.77745L121.063 8.55457C121.998 8.30035 122.886 8.17324 123.725 8.17324C124.573 8.17324 125.18 8.34855 125.548 8.6992C125.923 9.04986 126.111 9.61089 126.111 10.3823ZM123.161 12.118C122.672 12.1618 122.426 12.4249 122.426 12.907C122.426 13.3891 122.642 13.6302 123.07 13.6302C123.402 13.6302 123.764 13.5776 124.158 13.4724L124.354 13.4198V12.0128L123.161 12.118ZM131.417 9.83004H129.805V12.5256C129.805 12.7886 129.809 12.9771 129.818 13.0911C129.835 13.1963 129.884 13.2883 129.962 13.3672C130.05 13.4461 130.18 13.4855 130.355 13.4855L131.352 13.4593L131.43 14.8662C130.845 14.9977 130.399 15.0634 130.094 15.0634C129.307 15.0634 128.77 14.8881 128.48 14.5375C128.192 14.178 128.049 13.5206 128.049 12.5651V9.83004H127.274V8.33103H128.049V6.50328H129.805V8.33103H131.417V9.83004ZM132.915 9.08053C133.379 8.47566 134.152 8.17324 135.237 8.17324C136.32 8.17324 137.093 8.47566 137.557 9.08053C138.02 9.67663 138.251 10.5182 138.251 11.6052C138.251 13.9107 137.247 15.0634 135.237 15.0634C133.225 15.0634 132.221 13.9107 132.221 11.6052C132.221 10.5182 132.452 9.67663 132.915 9.08053ZM134.266 13.0911C134.45 13.4066 134.773 13.5645 135.237 13.5645C135.7 13.5645 136.018 13.4066 136.193 13.0911C136.377 12.7755 136.468 12.2802 136.468 11.6052C136.468 10.9302 136.377 10.4393 136.193 10.1325C136.018 9.82565 135.7 9.67225 135.237 9.67225C134.773 9.67225 134.45 9.82565 134.266 10.1325C134.091 10.4393 134.004 10.9302 134.004 11.6052C134.004 12.2802 134.091 12.7755 134.266 13.0911ZM85.7935 24.2726V33.4771H84.0498V33.201C83.4379 33.4902 82.9091 33.6348 82.4633 33.6348C81.5106 33.6348 80.8464 33.3587 80.4706 32.8064C80.0947 32.2542 79.9067 31.382 79.9067 30.1897C79.9067 28.9888 80.1296 28.1166 80.5754 27.5731C81.0299 27.0208 81.7117 26.7447 82.6206 26.7447C82.9003 26.7447 83.2893 26.7885 83.7875 26.8761L84.0366 26.9288V24.2726H85.7935ZM83.853 31.8992L84.0366 31.8597V28.4015C83.5558 28.3138 83.1276 28.27 82.7517 28.27C82.0438 28.27 81.6898 28.9011 81.6898 30.1635C81.6898 30.8473 81.7685 31.3337 81.9258 31.6231C82.0832 31.9123 82.341 32.057 82.6993 32.057C83.0664 32.057 83.451 32.0044 83.853 31.8992ZM92.4383 28.9538V31.6888C92.4557 31.8992 92.4907 32.0483 92.5431 32.1359C92.5956 32.2148 92.7049 32.2717 92.871 32.3069L92.8184 33.6348C92.3727 33.6348 92.0143 33.6042 91.7434 33.5428C91.4812 33.4815 91.2146 33.3587 90.9436 33.1746C90.3144 33.4815 89.6719 33.6348 89.0163 33.6348C87.6616 33.6348 86.9842 32.916 86.9842 31.4785C86.9842 30.7772 87.1722 30.2818 87.5479 29.9925C87.9238 29.6944 88.5008 29.5192 89.2786 29.4666L90.6815 29.3613V28.9538C90.6815 28.6819 90.6202 28.4979 90.4979 28.4015C90.3755 28.2962 90.1788 28.2437 89.9079 28.2437L87.4431 28.3488L87.3907 27.126C88.3259 26.8718 89.2131 26.7447 90.0521 26.7447C90.9 26.7447 91.5074 26.92 91.8745 27.2706C92.2503 27.6213 92.4383 28.1823 92.4383 28.9538ZM89.4884 30.6894C88.9989 30.7333 88.7542 30.9963 88.7542 31.4785C88.7542 31.9605 88.9683 32.2016 89.3966 32.2016C89.7288 32.2016 90.0915 32.149 90.4847 32.0438L90.6815 31.9913V30.5842L89.4884 30.6894ZM94.1917 33.4771V24.2726H95.9486V33.4771H94.1917ZM97.7254 33.4771V24.2726H99.4823V33.4771H97.7254ZM100.905 27.7834L101.521 24.5356H103.37L102.256 27.7834H100.905ZM106.397 30.4922C106.397 31.5353 106.926 32.057 107.984 32.057C109.041 32.057 109.57 31.5353 109.57 30.4922V24.5356H111.379V30.4527C111.379 31.5486 111.095 32.355 110.527 32.8722C109.968 33.3806 109.12 33.6348 107.984 33.6348C106.847 33.6348 105.995 33.3806 105.427 32.8722C104.868 32.355 104.588 31.5486 104.588 30.4527V24.5356H106.397V30.4922ZM114.78 33.4771H113.024V26.9025H114.767V27.2706C115.362 26.92 115.908 26.7447 116.406 26.7447C117.28 26.7447 117.883 27.0033 118.215 27.5204C118.547 28.0376 118.714 28.8354 118.714 29.9136V33.4771H116.957V29.9663C116.957 29.4052 116.891 28.9931 116.76 28.7302C116.629 28.4585 116.367 28.3226 115.973 28.3226C115.615 28.3226 115.27 28.384 114.938 28.5067L114.78 28.5593V33.4771ZM120.27 33.4771V26.9025H122.027V33.4771H120.27ZM120.27 26.0609V24.2726H122.027V26.0609H120.27ZM124.004 27.6519C124.468 27.0471 125.241 26.7447 126.325 26.7447C127.409 26.7447 128.182 27.0471 128.646 27.6519C129.109 28.2481 129.34 29.0896 129.34 30.1766C129.34 32.4821 128.336 33.6348 126.325 33.6348C124.315 33.6348 123.309 32.4821 123.309 30.1766C123.309 29.0896 123.541 28.2481 124.004 27.6519ZM125.354 31.6625C125.538 31.978 125.861 32.1359 126.325 32.1359C126.788 32.1359 127.108 31.978 127.282 31.6625C127.465 31.3469 127.557 30.8517 127.557 30.1766C127.557 29.5016 127.465 29.0108 127.282 28.7039C127.108 28.3971 126.788 28.2437 126.325 28.2437C125.861 28.2437 125.538 28.3971 125.354 28.7039C125.18 29.0108 125.093 29.5016 125.093 30.1766C125.093 30.8517 125.18 31.3469 125.354 31.6625ZM132.385 33.4771H130.628V26.9025H132.372V27.2706C132.966 26.92 133.512 26.7447 134.011 26.7447C134.885 26.7447 135.488 27.0033 135.82 27.5204C136.152 28.0376 136.319 28.8354 136.319 29.9136V33.4771H134.562V29.9663C134.562 29.4052 134.496 28.9931 134.365 28.7302C134.233 28.4585 133.972 28.3226 133.578 28.3226C133.219 28.3226 132.875 28.384 132.542 28.5067L132.385 28.5593V33.4771ZM139.317 30.9393C139.325 31.3425 139.431 31.6362 139.632 31.8203C139.842 31.9956 140.139 32.0833 140.523 32.0833C141.336 32.0833 142.061 32.057 142.7 32.0044L143.067 31.9649L143.092 33.2667C142.088 33.5121 141.178 33.6348 140.366 33.6348C139.379 33.6348 138.661 33.3719 138.215 32.8459C137.77 32.32 137.547 31.4652 137.547 30.2818C137.547 27.9238 138.513 26.7447 140.444 26.7447C142.349 26.7447 143.303 27.7353 143.303 29.7164L143.171 30.9393H139.317ZM141.572 29.5981C141.572 29.0721 141.49 28.7083 141.323 28.5067C141.157 28.2962 140.865 28.1911 140.444 28.1911C140.034 28.1911 139.741 28.3007 139.566 28.5198C139.401 28.7302 139.313 29.0896 139.303 29.5981H141.572ZM148.881 30.9393C148.889 31.3425 148.995 31.6362 149.196 31.8203C149.405 31.9956 149.703 32.0833 150.087 32.0833C150.901 32.0833 151.625 32.057 152.264 32.0044L152.631 31.9649L152.657 33.2667C151.652 33.5121 150.743 33.6348 149.93 33.6348C148.943 33.6348 148.225 33.3719 147.779 32.8459C147.334 32.32 147.112 31.4652 147.112 30.2818C147.112 27.9238 148.077 26.7447 150.008 26.7447C151.915 26.7447 152.867 27.7353 152.867 29.7164L152.736 30.9393H148.881ZM151.136 29.5981C151.136 29.0721 151.053 28.7083 150.887 28.5067C150.721 28.2962 150.429 28.1911 150.008 28.1911C149.598 28.1911 149.305 28.3007 149.13 28.5198C148.965 28.7302 148.877 29.0896 148.868 29.5981H151.136ZM157.99 26.9025H159.747V33.4771H158.003V33.1089C157.373 33.4596 156.827 33.6348 156.364 33.6348C155.455 33.6348 154.844 33.385 154.529 32.8854C154.214 32.377 154.057 31.531 154.057 30.3476V26.9025H155.813V30.3738C155.813 31.0225 155.866 31.4652 155.971 31.7019C156.076 31.9387 156.33 32.057 156.731 32.057C157.115 32.057 157.479 31.9956 157.819 31.8729L157.99 31.8203V26.9025ZM161.369 33.4771V26.9025H163.113V27.5993C163.847 27.1611 164.546 26.8761 165.211 26.7447V28.5198C164.502 28.6688 163.895 28.8223 163.388 28.98L163.125 29.0721V33.4771H161.369ZM166.601 27.6519C167.065 27.0471 167.838 26.7447 168.921 26.7447C170.005 26.7447 170.779 27.0471 171.243 27.6519C171.706 28.2481 171.937 29.0896 171.937 30.1766C171.937 32.4821 170.932 33.6348 168.921 33.6348C166.911 33.6348 165.906 32.4821 165.906 30.1766C165.906 29.0896 166.138 28.2481 166.601 27.6519ZM167.951 31.6625C168.135 31.978 168.458 32.1359 168.921 32.1359C169.385 32.1359 169.703 31.978 169.878 31.6625C170.062 31.3469 170.154 30.8517 170.154 30.1766C170.154 29.5016 170.062 29.0108 169.878 28.7039C169.703 28.3971 169.385 28.2437 168.921 28.2437C168.458 28.2437 168.135 28.3971 167.951 28.7039C167.776 29.0108 167.69 29.5016 167.69 30.1766C167.69 30.8517 167.776 31.3469 167.951 31.6625ZM173.225 36.2384V26.9025H174.969V27.2575C175.536 26.9156 176.035 26.7447 176.463 26.7447C177.346 26.7447 177.997 27.012 178.417 27.5468C178.836 28.0727 179.046 28.9713 179.046 30.2424C179.046 31.5135 178.815 32.3989 178.351 32.8985C177.888 33.3895 177.128 33.6348 176.07 33.6348C175.782 33.6348 175.471 33.6086 175.139 33.556L174.982 33.5297V36.2384H173.225ZM176.122 28.3226C175.799 28.3226 175.471 28.3883 175.139 28.5198L174.982 28.5856V32.0307C175.375 32.0833 175.694 32.1095 175.939 32.1095C176.446 32.1095 176.791 31.9605 176.975 31.6625C177.167 31.3645 177.263 30.856 177.263 30.1371C177.263 28.9274 176.882 28.3226 176.122 28.3226ZM181.798 30.9393C181.808 31.3425 181.912 31.6362 182.113 31.8203C182.323 31.9956 182.62 32.0833 183.004 32.0833C183.818 32.0833 184.544 32.057 185.181 32.0044L185.548 31.9649L185.575 33.2667C184.569 33.5121 183.66 33.6348 182.847 33.6348C181.86 33.6348 181.143 33.3719 180.697 32.8459C180.251 32.32 180.029 31.4652 180.029 30.2818C180.029 27.9238 180.994 26.7447 182.926 26.7447C184.832 26.7447 185.784 27.7353 185.784 29.7164L185.653 30.9393H181.798ZM184.054 29.5981C184.054 29.0721 183.971 28.7083 183.804 28.5067C183.638 28.2962 183.346 28.1911 182.926 28.1911C182.515 28.1911 182.222 28.3007 182.047 28.5198C181.882 28.7302 181.794 29.0896 181.786 29.5981H184.054ZM192.061 28.9538V31.6888C192.079 31.8992 192.113 32.0483 192.166 32.1359C192.219 32.2148 192.328 32.2717 192.494 32.3069L192.441 33.6348C191.995 33.6348 191.637 33.6042 191.366 33.5428C191.104 33.4815 190.837 33.3587 190.566 33.1746C189.937 33.4815 189.294 33.6348 188.639 33.6348C187.284 33.6348 186.607 32.916 186.607 31.4785C186.607 30.7772 186.794 30.2818 187.171 29.9925C187.547 29.6944 188.123 29.5192 188.902 29.4666L190.305 29.3613V28.9538C190.305 28.6819 190.243 28.4979 190.121 28.4015C189.998 28.2962 189.801 28.2437 189.53 28.2437L187.066 28.3488L187.013 27.126C187.948 26.8718 188.836 26.7447 189.675 26.7447C190.523 26.7447 191.13 26.92 191.498 27.2706C191.873 27.6213 192.061 28.1823 192.061 28.9538ZM189.111 30.6894C188.622 30.7333 188.377 30.9963 188.377 31.4785C188.377 31.9605 188.591 32.2016 189.019 32.2016C189.351 32.2016 189.714 32.149 190.108 32.0438L190.305 31.9913V30.5842L189.111 30.6894Z" fill="#2B528D"/>
<path d="M80.3611 51.3391V43.5626H81.9746L84.9438 50.5749H85.1791V43.5626H86.0306V51.3391H84.4508L81.4367 44.3268H81.2239V51.3391H80.3611ZM91.5423 50.6423L91.8671 50.6087L91.8896 51.2717C91.038 51.3916 90.3097 51.4515 89.7047 51.4515C88.8979 51.4515 88.3265 51.2192 87.9904 50.7547C87.6542 50.2827 87.4861 49.5523 87.4861 48.5634C87.4861 46.5931 88.2667 45.6078 89.8279 45.6078C90.5824 45.6078 91.1463 45.8213 91.5198 46.2483C91.8933 46.6679 92.0801 47.3309 92.0801 48.2374L92.0353 48.878H88.3377C88.3377 49.4998 88.4497 49.9605 88.6738 50.2602C88.8979 50.5599 89.2863 50.7098 89.839 50.7098C90.3993 50.7098 90.9671 50.6872 91.5423 50.6423ZM91.2397 48.2038C91.2397 47.5146 91.1276 47.0275 90.9035 46.7428C90.6869 46.4582 90.3284 46.3158 89.8279 46.3158C89.3349 46.3158 88.9614 46.4656 88.7074 46.7653C88.4609 47.065 88.334 47.5445 88.3265 48.2038H91.2397ZM92.7857 45.7202H93.7044L95.0715 47.9228L96.4385 45.7202H97.3572L95.5757 48.5072L97.346 51.3391H96.4272L95.0715 49.1477L93.7044 51.3391H92.7857L94.5448 48.5296L92.7857 45.7202ZM101.314 46.4506H99.5325V49.1364C99.5325 49.7807 99.5774 50.204 99.667 50.4064C99.7641 50.6087 99.9883 50.7098 100.339 50.7098L101.337 50.6423L101.393 51.3391C100.892 51.4215 100.511 51.4627 100.25 51.4627C99.667 51.4627 99.2637 51.3203 99.0396 51.0357C98.8154 50.751 98.7034 50.2078 98.7034 49.4062V46.4506H97.9079V45.7202H98.7034V44.0008H99.5325V45.7202H101.314V46.4506ZM105.556 48.1363V47.3609H107.696V51.1817C106.755 51.3615 105.915 51.4515 105.175 51.4515C104.047 51.4515 103.263 51.1255 102.822 50.4738C102.389 49.8219 102.172 48.818 102.172 47.4621C102.172 46.0986 102.389 45.0909 102.822 44.4391C103.263 43.7798 104.04 43.4502 105.153 43.4502C105.847 43.4502 106.568 43.5251 107.315 43.6749L107.696 43.7423L107.663 44.4615C106.736 44.3042 105.933 44.2256 105.254 44.2256C104.394 44.2256 103.816 44.4766 103.517 44.9785C103.218 45.473 103.069 46.3008 103.069 47.4621C103.069 48.6158 103.218 49.4437 103.517 49.9456C103.816 50.44 104.391 50.6872 105.242 50.6872C105.765 50.6872 106.299 50.6348 106.845 50.53V48.1363H105.556ZM113.054 50.6423L113.379 50.6087L113.402 51.2717C112.55 51.3916 111.822 51.4515 111.217 51.4515C110.41 51.4515 109.839 51.2192 109.502 50.7547C109.166 50.2827 108.998 49.5523 108.998 48.5634C108.998 46.5931 109.779 45.6078 111.34 45.6078C112.094 45.6078 112.658 45.8213 113.032 46.2483C113.405 46.6679 113.592 47.3309 113.592 48.2374L113.547 48.878H109.85C109.85 49.4998 109.962 49.9605 110.186 50.2602C110.41 50.5599 110.799 50.7098 111.351 50.7098C111.911 50.7098 112.479 50.6872 113.054 50.6423ZM112.752 48.2038C112.752 47.5146 112.64 47.0275 112.416 46.7428C112.199 46.4582 111.841 46.3158 111.34 46.3158C110.847 46.3158 110.474 46.4656 110.22 46.7653C109.973 47.065 109.846 47.5445 109.839 48.2038H112.752ZM115.742 51.3391H114.902V45.7202H115.732V46.1136C116.336 45.7764 116.915 45.6078 117.467 45.6078C118.215 45.6078 118.715 45.8102 118.97 46.2147C119.23 46.6192 119.361 47.3385 119.361 48.3723V51.3391H118.532V48.3948C118.532 47.6157 118.453 47.0837 118.297 46.799C118.148 46.5068 117.823 46.3608 117.322 46.3608C117.083 46.3608 116.829 46.3982 116.56 46.4732C116.299 46.5406 116.097 46.608 115.955 46.6755L115.742 46.7766V51.3391ZM124.73 50.6423L125.055 50.6087L125.077 51.2717C124.225 51.3916 123.497 51.4515 122.892 51.4515C122.085 51.4515 121.513 51.2192 121.178 50.7547C120.841 50.2827 120.673 49.5523 120.673 48.5634C120.673 46.5931 121.454 45.6078 123.016 45.6078C123.77 45.6078 124.334 45.8213 124.708 46.2483C125.08 46.6679 125.268 47.3309 125.268 48.2374L125.223 48.878H121.525C121.525 49.4998 121.637 49.9605 121.861 50.2602C122.085 50.5599 122.474 50.7098 123.026 50.7098C123.586 50.7098 124.154 50.6872 124.73 50.6423ZM124.427 48.2038C124.427 47.5146 124.315 47.0275 124.091 46.7428C123.874 46.4582 123.516 46.3158 123.016 46.3158C122.523 46.3158 122.149 46.4656 121.895 46.7653C121.649 47.065 121.522 47.5445 121.513 48.2038H124.427ZM126.577 51.3391V45.7202H127.406V46.4844C128.056 46.0349 128.74 45.7389 129.457 45.5966V46.4506C129.142 46.5107 128.814 46.6042 128.471 46.7317C128.134 46.859 127.876 46.9713 127.698 47.0687L127.417 47.2149V51.3391H126.577ZM134.406 47.4171V50.294C134.428 50.5712 134.645 50.736 135.056 50.7885L135.023 51.4515C134.432 51.4515 133.988 51.3016 133.688 51.0019C133.016 51.3016 132.345 51.4515 131.672 51.4515C131.156 51.4515 130.764 51.3053 130.495 51.0132C130.227 50.721 130.092 50.3014 130.092 49.7545C130.092 49.2077 130.23 48.8069 130.507 48.5521C130.783 48.2899 131.216 48.1288 131.806 48.0689L133.566 47.9004V47.4171C133.566 47.0351 133.483 46.7616 133.319 46.5968C133.155 46.432 132.93 46.3495 132.647 46.3495C132.049 46.3495 131.429 46.387 130.787 46.4619L130.44 46.4956L130.406 45.8551C131.228 45.6903 131.956 45.6078 132.591 45.6078C133.225 45.6078 133.685 45.7539 133.968 46.0461C134.26 46.3383 134.406 46.7953 134.406 47.4171ZM130.955 49.7096C130.955 50.3988 131.238 50.7434 131.806 50.7434C132.315 50.7434 132.814 50.6573 133.307 50.4851L133.566 50.3951V48.5409L131.907 48.6982C131.572 48.7282 131.328 48.8256 131.179 48.9904C131.03 49.1552 130.955 49.3949 130.955 49.7096ZM138.966 46.4506H137.184V49.1364C137.184 49.7807 137.23 50.204 137.319 50.4064C137.416 50.6087 137.64 50.7098 137.991 50.7098L138.989 50.6423L139.044 51.3391C138.544 51.4215 138.162 51.4627 137.901 51.4627C137.319 51.4627 136.916 51.3203 136.691 51.0357C136.467 50.751 136.355 50.2078 136.355 49.4062V46.4506H135.56V45.7202H136.355V44.0008H137.184V45.7202H138.966V46.4506ZM139.992 51.3391V45.7202H140.832V51.3391H139.992ZM139.992 44.4504V43.4727H140.832V44.4504H139.992ZM142.197 48.5185C142.197 47.492 142.38 46.7503 142.745 46.2934C143.112 45.8363 143.728 45.6078 144.595 45.6078C145.468 45.6078 146.084 45.8363 146.443 46.2934C146.809 46.7503 146.993 47.492 146.993 48.5185C146.993 49.5448 146.82 50.2902 146.476 50.7547C146.133 51.2192 145.505 51.4515 144.595 51.4515C143.683 51.4515 143.055 51.2192 142.712 50.7547C142.368 50.2902 142.197 49.5448 142.197 48.5185ZM143.059 48.5072C143.059 49.3238 143.156 49.8969 143.351 50.2266C143.552 50.5562 143.967 50.721 144.595 50.721C145.229 50.721 145.644 50.5599 145.838 50.2378C146.032 49.9082 146.129 49.3313 146.129 48.5072C146.129 47.6831 146.022 47.1175 145.804 46.8102C145.588 46.4956 145.185 46.3383 144.595 46.3383C144.011 46.3383 143.609 46.4956 143.384 46.8102C143.168 47.1175 143.059 47.6831 143.059 48.5072ZM149.203 51.3391H148.363V45.7202H149.191V46.1136C149.797 45.7764 150.375 45.6078 150.929 45.6078C151.675 45.6078 152.176 45.8102 152.43 46.2147C152.691 46.6192 152.822 47.3385 152.822 48.3723V51.3391H151.993V48.3948C151.993 47.6157 151.915 47.0837 151.757 46.799C151.608 46.5068 151.284 46.3608 150.783 46.3608C150.544 46.3608 150.29 46.3982 150.021 46.4732C149.76 46.5406 149.558 46.608 149.416 46.6755L149.203 46.7766V51.3391ZM154.527 51.3391V43.5626H159.244V44.3268H155.389V47.0125H158.571V47.7655H155.389V50.5749H159.244V51.3391H154.527ZM161.526 49.0017C161.526 50.1253 162.131 50.6872 163.342 50.6872C163.969 50.6872 164.44 50.5562 164.754 50.294C165.074 50.0243 165.235 49.5935 165.235 49.0017V43.5626H166.087V48.9791C166.087 49.8482 165.855 50.4775 165.393 50.867C164.937 51.2567 164.261 51.4515 163.364 51.4515C162.468 51.4515 161.792 51.2567 161.336 50.867C160.888 50.4775 160.664 49.8482 160.664 48.9791V43.5626H161.526V49.0017Z" fill="#373567"/>
<path d="M68.3344 4.96045H0V51.1538H68.3344V4.96045Z" fill="#164194"/>
<path d="M32.6962 15.0241L34.1419 13.9493L35.5876 15.0241L35.0335 13.2896L36.5032 12.2393H34.6961L34.1419 10.4805L33.5878 12.2393H31.7805L33.2504 13.2896L32.6962 15.0241Z" fill="white"/>
<path d="M25.2531 17.0529L26.6747 15.9781L28.1204 17.0529L27.5902 15.3186L29.0359 14.2681H27.2288L26.6747 12.5093L26.1205 14.2681H24.3374L25.7831 15.3186L25.2531 17.0529Z" fill="white"/>
<path d="M21.2285 18.0547L20.6744 19.8135H18.8672L20.3371 20.8883L19.7828 22.5983L21.2285 21.5479L22.6743 22.5983L22.1201 20.8883L23.5899 19.8135H21.7828L21.2285 18.0547Z" fill="white"/>
<path d="M19.2281 29.0953L20.6738 30.1457L20.1195 28.4357L21.5894 27.3609H19.7823L19.2281 25.6265L18.6738 27.3609H16.8667L18.3366 28.4357L17.7824 30.1457L19.2281 29.0953Z" fill="white"/>
<path d="M21.7828 34.9326L21.2285 33.1982L20.6744 34.9326H18.8672L20.3371 36.0074L19.7828 37.7419L21.2285 36.6669L22.6743 37.7419L22.1201 36.0074L23.5899 34.9326H21.7828Z" fill="white"/>
<path d="M27.2529 40.4775L26.6988 38.7432L26.1445 40.502L24.3374 40.4775L25.8072 41.5524L25.2531 43.2868L26.6988 42.212L28.1445 43.2868L27.5902 41.5524L29.0601 40.4775H27.2529Z" fill="white"/>
<path d="M34.6961 42.5064L34.1419 40.7476L33.5878 42.5064H31.7805L33.2504 43.5567L32.6962 45.2912L34.1419 44.2162L35.5876 45.2912L35.0335 43.5567L36.5032 42.5064H34.6961Z" fill="white"/>
<path d="M42.1424 40.4775L41.6123 38.7432L41.0581 40.502L39.251 40.4775L40.6967 41.5524L40.1666 43.2868L41.6123 42.212L43.034 43.2868L42.5038 41.5524L43.9496 40.4775H42.1424Z" fill="white"/>
<path d="M47.6367 34.9326L47.0826 33.1982L46.5283 34.9326H44.7212L46.191 36.0074L45.6367 37.7419L47.0826 36.6669L48.5042 37.7419L47.974 36.0074L49.4197 34.9326H47.6367Z" fill="white"/>
<path d="M51.4195 27.336H49.6124L49.0581 25.6016L48.5039 27.336H46.6968L48.1665 28.4108L47.6124 30.1452L49.0581 29.0704L50.5038 30.1452L49.9496 28.4108L51.4195 27.336Z" fill="white"/>
<path d="M45.6367 22.5734L47.0826 21.523L48.5042 22.5734L47.974 20.8634L49.4197 19.7886H47.6367L47.0826 18.0298L46.5283 19.7886H44.7212L46.191 20.8634L45.6367 22.5734Z" fill="white"/>
<path d="M41.6132 12.5093L41.0589 14.2681H39.2759L40.7216 15.3429L40.1915 17.0529L41.6132 15.9781L43.0589 17.0529L42.5046 15.3429L43.9745 14.2681H42.1673L41.6132 12.5093Z" fill="white"/>
</svg>
