<?xml version="1.0" encoding="UTF-8"?>
<svg width="560px" height="356px" viewBox="0 0 560 356" version="1.1" xmlns="http://www.w3.org/2000/svg" xmlns:xlink="http://www.w3.org/1999/xlink">
    <title>Error-Noresults</title>
    <g id="MVP_dicembre2021" stroke="none" stroke-width="1" fill="none" fill-rule="evenodd">
        <g id="ndc_pagina_error" transform="translate(-370.000000, -611.000000)">
            <g id="Error-Noresults" transform="translate(370.000000, 611.000000)">
                <g id="Error" transform="translate(171.000000, 52.000000)">
                    <path d="M113.212851,187.149237 L117.865449,191.803684 L123.304944,197.214705 L125.400868,199.325791 C130.014286,199.110346 132.916541,198.40665 134.107634,197.214705 C135.298727,196.02276 136.014173,193.106166 136.253973,188.464922 L124.084814,176.276904 L113.212851,187.149237 Z" id="Shape" fill="#5D6D7E" fill-rule="nonzero"></path>
                    <path d="M147.32118,188.392814 L184.774188,225.843974 C187.591559,228.653577 189.339888,232.553669 189.32848,236.843142 C189.32848,241.140009 187.591189,245.036403 184.774188,247.85747 C181.964584,250.663376 178.073737,252.394697 173.77687,252.394697 C169.481851,252.394697 165.595071,250.663376 162.777701,247.847856 L125.326912,210.392999 C127.496869,203.338502 129.897864,198.494883 132.529897,195.862142 C135.161931,193.2294 140.092358,190.739625 147.32118,188.392814 Z" id="Shape" fill="#0066CC" fill-rule="nonzero"></path>
                    <g id="Group" transform="translate(-0.000000, 63.067011)" fill-rule="nonzero">
                        <path d="M125.325063,147.325988 L147.32118,125.323954 L145.680827,123.679533 C144.690551,122.685559 143.336778,122.081705 141.831765,122.081705 C140.317138,122.081705 138.959668,122.68297 137.979006,123.672137 L123.675096,137.983443 C122.692585,138.958559 122.079116,140.316029 122.079116,141.832505 C122.079116,143.326425 122.691475,144.700905 123.675096,145.670103 L125.325063,147.325988 Z" id="Shape" fill="#004D99"></path>
                        <path d="M0,70.3184997 C0,31.4891628 31.4843556,0.00110934624 70.321458,0.00110934624 C109.162258,0.00110934624 140.644765,31.4910116 140.644765,70.3184997 C140.644765,109.1593 109.15856,140.641807 70.321458,140.651051 C31.4843556,140.641807 0,109.158191 0,70.3184997 Z M70.321458,128.012639 C102.177075,128.012639 128.009681,102.190017 128.009681,70.3184997 C128.009681,38.4706485 102.175965,12.6321256 70.321458,12.6321256 C38.4669505,12.6321256 12.6302767,38.4706485 12.6302767,70.3184997 C12.6302767,102.188168 38.4602945,128.012639 70.321458,128.012639 Z" id="Combined-Shape" fill="#34495E"></path>
                    </g>
                    <g id="Group-2" transform="translate(95.664966, 0.000000)">
                        <path d="M19.3142857,0 L109.785981,0 C116.35028,0 121.671696,5.32141554 121.671696,11.8857143 L121.671696,102.357432 C121.671696,108.921731 116.350276,114.243146 109.785977,114.243146 L80.8593964,114.243147 C79.2832527,114.243147 77.7716638,114.869267 76.6571619,115.983769 L68.7523681,123.888563 C66.431538,126.209393 62.668729,126.209393 60.347899,123.888563 L52.4431052,115.983769 C51.3286033,114.869267 49.8170142,114.243147 48.2408706,114.243147 L19.3142857,114.243147 C12.749987,114.243147 7.42857143,108.921731 7.42857143,102.357432 L7.42857143,11.8857147 C7.42857143,5.32141599 12.749987,0 19.3142857,0 Z" id="Rectangle-18" fill="#2079D4" fill-rule="nonzero"></path>
                        <path d="M7.42857143,47.2145927 C11.5312581,47.2145927 14.8571428,44.0859547 14.8571428,40.226584 C14.8571428,37.6536702 12.3809524,32.5544351 7.42857143,24.9288785 C2.47619047,32.5544351 -8.70414851e-14,37.6536702 -8.70414851e-14,40.226584 C-8.70414851e-14,44.0859547 3.32588472,47.2145927 7.42857143,47.2145927 Z" id="Oval-7" fill="#F3D22D" fill-rule="nonzero"></path>
                        <g id="Group-9" stroke-linecap="round" stroke-linejoin="round" transform="translate(32.084510, 48.214593)" stroke="#FFFFFF" stroke-width="6">
                            <line x1="0.468408244" y1="0.0641093989" x2="15.1560601" y2="14.7517611" id="Path-2"></line>
                            <line x1="49.7751872" y1="0.0641093989" x2="64.4628391" y2="14.7517611" id="Path-2-Copy"></line>
                            <line x1="0.468406903" y1="0.0641093989" x2="15.1560587" y2="14.7517611" id="Path-2" transform="translate(7.812233, 7.407935) scale(-1, 1) translate(-7.812233, -7.407935) "></line>
                            <line x1="49.7751886" y1="0.0641093989" x2="64.4628404" y2="14.7517611" id="Path-2-Copy-2" transform="translate(57.119014, 7.407935) scale(-1, 1) translate(-57.119014, -7.407935) "></line>
                            <line x1="46.3132745" y1="28.9143526" x2="18.6179727" y2="28.9143526" id="Path-2-Copy-3"></line>
                        </g>
                    </g>
                    <g id="Group" transform="translate(90.427022, 119.242830)" fill="#8EBEED" fill-rule="nonzero">
                        <path d="M26.9657114,4.30670438 C26.6950309,3.90068365 26.3418891,3.52387571 25.9547272,3.20290486 C23.7707942,1.41648764 20.5684815,1.7640828 18.802772,3.94616685 C13.6058547,10.3263868 10.0293224,17.9812456 8.45035293,26.1279146 C6.58258363,35.8036326 7.5595479,45.7100944 11.2695715,54.787505 C12.3508143,57.4040829 15.3268204,58.6328687 17.9226906,57.5630892 C20.5259565,56.5084707 21.7662055,53.543558 20.7001238,50.92698 C17.7418673,43.6881261 16.9741996,35.7825549 18.4766242,28.060026 C19.70541,21.5566686 22.5623465,15.450827 26.7076036,10.3589277 C28.149014,8.58619237 28.1871016,6.09866832 26.9657114,4.30670438 Z" id="Shape" transform="translate(17.682460, 30.003596) rotate(-164.000000) translate(-17.682460, -30.003596) "></path>
                    </g>
                </g>
                <rect id="Rectangle" x="0" y="0" width="560" height="356"></rect>
            </g>
        </g>
    </g>
</svg>