<svg xmlns="http://www.w3.org/2000/svg" width="274" height="382" viewBox="0 0 274 382" fill="none">
<title>No results</title>
<path fill-rule="evenodd" clip-rule="evenodd" d="M74.2482 171.834V258.805L99.3071 273.124V171.834L171.703 91.8894C174.357 88.9584 174.132 84.4307 171.201 81.7765C169.885 80.5841 168.172 79.9238 166.396 79.9238H7.15968C3.2055 79.9238 0 83.1293 0 87.0835C0 88.8598 0.660318 90.5727 1.85266 91.8894L74.2482 171.834Z" fill="#2079D4"/>
<path d="M94.2988 156.501L134.917 115.883" stroke="#65DDE0" stroke-width="4" stroke-linecap="round" stroke-linejoin="round"/>
<path d="M181.908 303.395L187.513 309.003L194.067 315.522L196.592 318.065C202.15 317.806 205.646 316.958 207.081 315.522C208.516 314.086 209.378 310.572 209.667 304.98L195.006 290.297L181.908 303.395Z" fill="#5D6D7E"/>
<path d="M223.003 304.894L268.124 350.013C271.518 353.398 273.625 358.096 273.611 363.264C273.611 368.441 271.518 373.135 268.124 376.534C264.739 379.914 260.052 382 254.875 382C249.701 382 245.018 379.914 241.624 376.522L196.505 331.398C199.119 322.899 202.012 317.064 205.183 313.892C208.354 310.72 214.294 307.721 223.003 304.894Z" fill="#0066CC"/>
<path d="M196.497 331.398L222.996 304.891L221.02 302.91C219.827 301.713 218.196 300.985 216.383 300.985C214.558 300.985 212.923 301.71 211.741 302.901L194.509 320.143C193.325 321.318 192.586 322.953 192.586 324.78C192.586 326.58 193.324 328.236 194.509 329.404L196.497 331.398Z" fill="#004D99"/>
<path d="M45.5127 238.623C45.5127 191.844 83.4436 153.908 130.233 153.908C177.026 153.908 214.955 191.846 214.955 238.623C214.955 285.417 177.022 323.345 130.233 323.357C83.4436 323.345 45.5127 285.415 45.5127 238.623ZM130.233 308.13C168.611 308.13 199.733 277.021 199.733 238.623C199.733 200.254 168.609 169.125 130.233 169.125C91.8559 169.125 60.7291 200.254 60.7291 238.623C60.7291 277.018 91.8478 308.13 130.233 308.13Z" fill="#34495E"/>
<path d="M156.479 284.408C156.657 284.968 156.941 285.521 157.283 286.022C159.219 288.816 163.043 289.477 165.812 287.536C173.949 281.873 180.633 274.196 185.167 265.285C190.543 254.7 192.702 242.904 191.42 231.159C191.036 227.77 187.998 225.359 184.636 225.735C181.271 226.092 178.85 229.114 179.216 232.498C180.238 241.864 178.502 251.274 174.198 259.718C170.615 266.842 165.279 272.964 158.787 277.485C156.529 279.059 155.659 281.927 156.479 284.408Z" fill="#8EBEED"/>
<path d="M70.3867 53.3457L70.3867 64.4922" stroke="#004080" stroke-width="2" stroke-linecap="round" stroke-linejoin="round"/>
<path d="M75.9619 58.9189L64.8154 58.9189" stroke="#004080" stroke-width="2" stroke-linecap="round" stroke-linejoin="round"/>
<path opacity="0.4" d="M145.039 72.751C152.947 72.751 159.358 66.34 159.358 58.4317C159.358 50.5233 152.947 44.1123 145.039 44.1123C137.131 44.1123 130.72 50.5233 130.72 58.4317C130.72 66.34 137.131 72.751 145.039 72.751Z" fill="#8EBEED"/>
<path opacity="0.2" d="M118.166 11.2057C121.261 11.2057 123.769 8.6972 123.769 5.60284C123.769 2.50847 121.261 0 118.166 0C115.072 0 112.563 2.50847 112.563 5.60284C112.563 8.6972 115.072 11.2057 118.166 11.2057Z" fill="#455B71"/>
<path d="M157.138 74.8572C160.686 74.8572 163.561 71.9814 163.561 68.434C163.561 64.8865 160.686 62.0107 157.138 62.0107C153.591 62.0107 150.715 64.8865 150.715 68.434C150.715 71.9814 153.591 74.8572 157.138 74.8572Z" stroke="#004D99"/>
</svg>