<svg xmlns="http://www.w3.org/2000/svg" width="560px" height="356px" viewBox="0 0 252 278" fill="none">
<g id="Error-Noresults">
<g id="Group 2">
<path id="Rectangle-18" d="M26.2178 9.89721e-07L225.782 0C240.262 0 252 11.7381 252 26.2178L252 225.782C252 240.262 240.262 252 225.782 252H161.975C158.499 252 155.164 253.381 152.706 255.84L135.269 273.276C130.15 278.395 121.85 278.395 116.731 273.276L99.2941 255.84C96.8357 253.381 93.5014 252 90.0247 252H26.2178C11.7381 252 0 240.262 0 225.782V26.2178C0 11.7381 11.7381 9.89721e-07 26.2178 9.89721e-07Z" fill="#2079D4"/>
<path id="Oval-7" d="M227.2 88.7059C236.249 88.7059 243.586 81.8047 243.586 73.2916C243.586 67.6162 238.124 56.3682 227.2 39.5476C216.276 56.3682 210.813 67.6162 210.813 73.2916C210.813 81.8047 218.15 88.7059 227.2 88.7059Z" fill="#F3D22D"/>
<g id="Group-9">
<path id="Path-2" d="M55.4199 106.495L87.8183 138.893" stroke="white" stroke-width="6" stroke-linecap="round" stroke-linejoin="round"/>
<path id="Path-2-Copy" d="M164.182 106.495L196.58 138.893" stroke="white" stroke-width="6" stroke-linecap="round" stroke-linejoin="round"/>
<path id="Path-2_2" d="M87.8193 106.495L55.421 138.893" stroke="white" stroke-width="6" stroke-linecap="round" stroke-linejoin="round"/>
<path id="Path-2-Copy-2" d="M196.581 106.495L164.183 138.893" stroke="white" stroke-width="6" stroke-linecap="round" stroke-linejoin="round"/>
<path id="Path-2-Copy-3" d="M156.545 170.132H95.4541" stroke="white" stroke-width="6" stroke-linecap="round" stroke-linejoin="round"/>
</g>
</g>
</g>
</svg>