<svg xmlns="http://www.w3.org/2000/svg" width="16" height="16" viewBox="0 0 16 16" fill="none">
<circle cx="8" cy="8" r="8" fill="#0066CC"/>
<circle cx="4.60176" cy="6.44248" r="0.778761" fill="white"/>
<path d="M9.02303 5.81947C8.25135 5.81947 7.86551 6.07434 7.86551 6.58407C7.86551 6.81062 7.96109 6.98407 8.15224 7.10443C8.34339 7.22478 8.78941 7.39823 9.49029 7.62478C10.1983 7.85133 10.6938 8.10974 10.977 8.4C11.2602 8.68319 11.4018 9.12213 11.4018 9.71682C11.4018 10.4743 11.1717 11.0478 10.7115 11.4372C10.2514 11.8266 9.64958 12.0212 8.90622 12.0212C8.35401 12.0212 7.6779 11.9363 6.8779 11.7664L6.4956 11.692L6.64427 10.5558C7.59295 10.6832 8.31861 10.7469 8.82126 10.7469C9.57171 10.7469 9.94693 10.4354 9.94693 9.81239C9.94693 9.58584 9.85843 9.40885 9.68144 9.28142C9.51153 9.15399 9.16817 9.01593 8.65135 8.86726C7.83011 8.63363 7.24958 8.35752 6.90976 8.03894C6.57702 7.71328 6.41064 7.26372 6.41064 6.69027C6.41064 5.96814 6.63011 5.43009 7.06905 5.07611C7.50799 4.72213 8.10976 4.54514 8.87436 4.54514C9.39826 4.54514 10.0637 4.61593 10.8708 4.75752L11.2531 4.83186L11.1363 5.98938C10.1381 5.87611 9.43365 5.81947 9.02303 5.81947Z" fill="white"/>
</svg>